<svg width="288" height="230" viewBox="0 0 288 230" fill="none" xmlns="http://www.w3.org/2000/svg">
<g clip-path="url(#clip0)">
<path opacity="0.1" d="M168.902 38.8691C150.679 38.2327 133.32 32.324 116.747 25.8581C100.174 19.3923 83.7582 12.2277 65.9715 8.80245C54.5314 6.59907 41.4469 6.28794 32.2311 12.4484C23.3589 18.3881 20.4925 28.6131 18.9523 38.1111C17.7923 45.2558 17.1109 52.7739 20.2898 59.4632C22.4945 64.1076 26.4111 68.0109 29.117 72.4742C38.5411 87.9516 31.882 107.038 21.6695 122.151C16.8828 129.242 11.3218 136.01 7.62763 143.551C3.93344 151.092 2.2215 159.744 5.45392 167.443C8.66099 175.08 16.3 180.805 24.5725 184.835C41.3793 193.024 61.1764 195.366 80.4949 196.692C123.245 199.631 166.221 198.358 209.085 197.085C224.948 196.613 240.879 196.135 256.484 193.671C265.151 192.302 274.096 190.133 280.389 184.889C288.374 178.234 290.354 166.962 285.004 158.618C276.025 144.62 251.216 141.144 244.931 126.119C241.479 117.851 245.027 108.642 250.044 100.971C260.812 84.5206 278.857 70.087 279.809 51.2833C280.462 38.3656 271.784 25.4339 258.37 19.3215C244.312 12.8924 224.81 13.707 214.443 24.311C203.76 35.2374 184.991 39.4291 168.902 38.8691Z" fill="#FFAA40"/>
<path d="M122.609 195.306L26.2336 194.834L16.6575 172.271L50.519 169.802L44.6173 145.064L111.591 136.344L47.4583 113.948L53.1235 112.596L156.248 129.496L150.569 168.102L142.451 189.318L122.609 195.306Z" fill="#FFAA40"/>
<path d="M27.712 185.384C27.712 185.384 33.625 184.433 37.1727 188.631C37.1727 188.631 34.571 190.69 28.9735 187.839L27.712 185.384Z" fill="#FFAA40"/>
<path d="M27.0924 185.291C27.0924 185.291 23.3194 189.955 25.1778 195.148C25.1778 195.148 28.2525 193.912 28.5876 187.616L27.0924 185.291Z" fill="#FFAA40"/>
<path d="M23.7024 177.622C23.7024 177.622 26.0676 173.264 35.5283 179.365C35.5283 179.365 34.2669 182.295 30.0884 182.057C25.9099 181.82 24.8061 179.919 23.7024 177.622Z" fill="#FFAA40"/>
<path d="M23.0915 177.308C23.0915 177.308 18.1837 176.743 17.7079 188.028C17.7079 188.028 20.8192 188.676 23.0295 185.106C25.2399 181.537 24.3332 179.534 23.0915 177.308Z" fill="#FFAA40"/>
<path d="M20.2335 168.305C20.2335 168.305 22.9929 160.623 33.0055 166.088C33.0055 166.088 30.7191 173.137 21.2584 170.919L20.2335 168.305Z" fill="#FFAA40"/>
<path d="M17.1588 156.822C17.1588 156.822 22.3622 149.06 31.5864 156.256C31.5864 156.256 28.354 163.542 17.9472 159.582L17.1588 156.822Z" fill="#FFAA40"/>
<path d="M16.0551 145.893C16.0551 145.893 22.1257 138.762 31.2598 145.893C31.2598 145.893 25.5045 152.149 16.0551 147.714V145.893Z" fill="#FFAA40"/>
<path d="M15.109 135.277C15.109 135.277 21.2585 127.833 30.0096 134.881C30.0096 134.881 23.0718 141.455 15.109 137.02V135.277Z" fill="#FFAA40"/>
<path d="M15.6608 125.853C15.6608 125.853 22.1369 116.27 30.3249 122.764C30.3249 122.764 23.387 131.001 15.6608 127.674V125.853Z" fill="#FFAA40"/>
<path d="M17.1588 114.844C17.1588 114.844 24.0178 105.341 31.9806 112.627C31.9806 112.627 23.8602 120.863 17.1588 116.587V114.844Z" fill="#FFAA40"/>
<path d="M19.4452 105.004C19.4452 105.004 27.5657 96.0717 34.65 99.6299C34.65 99.6299 26.1888 109.117 19.0905 107.374L19.4452 105.004Z" fill="#FFAA40"/>
<path d="M22.2834 95.6758C22.2834 95.6758 31.654 84.7352 37.1052 88.3896C37.1052 88.3896 30.2011 96.8751 21.6189 97.7236L22.2834 95.6758Z" fill="#FFAA40"/>
<path d="M26.3802 84.8571C26.3802 84.8571 34.5823 75.9248 40.5741 78.1424C40.5741 78.1424 33.5574 87.4084 25.2793 87.646L26.3802 84.8571Z" fill="#FFAA40"/>
<path d="M30.0884 74.7369C30.0884 74.7369 39.1549 66.1836 43.0969 67.6883C43.0969 67.6883 36.5532 77.192 29.6942 76.6376L30.0884 74.7369Z" fill="#FFAA40"/>
<path d="M33.7151 65.3915C33.7151 65.3915 41.5202 55.1722 45.7803 55.9642C45.7803 55.9642 41.0471 65.0747 33.7151 66.4295V65.3915Z" fill="#FFAA40"/>
<path d="M37.6515 52.7907C37.6515 52.7907 44.5499 44.9586 48.2779 44.9756C48.2779 44.9756 42.8323 55.441 37.3671 55.3448L37.6515 52.7907Z" fill="#FFAA40"/>
<path d="M39.9828 44.4015L46.6475 28.0869C46.6475 28.0869 46.9798 42.8346 39.1353 47.428L39.9828 44.4015Z" fill="#FFAA40"/>
<path d="M42.6886 26.4093C42.6886 26.4093 43.7924 12.7845 43.0828 11.6758C43.0828 11.6758 47.8469 23.0038 42.6436 32.4283L42.6886 26.4093Z" fill="#FFAA40"/>
<path d="M19.9745 168.124C19.9745 168.124 13.0648 163.822 8.5907 174.347C8.5907 174.347 14.7402 178.448 20.7883 170.809L19.9745 168.124Z" fill="#FFAA40"/>
<path d="M16.9362 156.383C16.9362 156.383 8.461 152.5 4.3501 163.488C4.3501 163.488 10.8966 168.014 17.7077 159.161L16.9362 156.383Z" fill="#FFAA40"/>
<path d="M15.6608 146.546C15.6608 146.546 9.59015 139.416 0.456055 146.546C0.456055 146.546 6.21132 152.803 15.6608 148.368V146.546Z" fill="#FFAA40"/>
<path d="M14.9006 135.277C14.9006 135.277 8.75116 127.833 0 134.881C0 134.881 6.93786 141.455 14.9006 137.02V135.277Z" fill="#FFAA40"/>
<path d="M15.6608 126.125C15.6608 126.125 11.3472 115.391 1.97095 120.007C1.97095 120.007 7.03919 129.524 15.2779 127.906L15.6608 126.125Z" fill="#FFAA40"/>
<path d="M17.7023 114.791C17.7023 114.791 13.414 103.87 3.9054 108.933C3.9054 108.933 9.72824 118.943 17.2799 116.476L17.7023 114.791Z" fill="#FFAA40"/>
<path d="M20.3603 105.058C20.3603 105.058 18.6709 93.0852 10.787 92.0132C10.787 92.0132 12.4595 104.639 19.2988 107.216L20.3603 105.058Z" fill="#FFAA40"/>
<path d="M22.4833 95.6987C22.4833 95.6987 21.8245 81.2735 15.3062 80.77C15.3062 80.77 15.5258 91.719 21.7484 97.7408L22.4833 95.6987Z" fill="#FFAA40"/>
<path d="M27.056 84.4524C27.056 84.4524 25.1132 72.4568 18.8905 70.9917C18.8905 70.9917 19.662 82.6082 26.4394 87.3969L27.056 84.4524Z" fill="#FFAA40"/>
<path d="M30.8262 74.8358C30.8262 74.8358 30.7614 62.3396 26.9602 60.5039C26.9602 60.5039 24.6035 71.8178 29.7252 76.431L30.8262 74.8358Z" fill="#FFAA40"/>
<path d="M34.005 65.2501C34.005 65.2501 33.4729 52.3834 29.5365 50.5703C29.5365 50.5703 28.1906 60.7528 33.4166 66.093L34.005 65.2501Z" fill="#FFAA40"/>
<path d="M38.2005 53.8174C38.2005 53.8174 38.178 43.3521 35.3679 40.897C35.3679 40.897 32.5748 52.3608 36.7335 55.9218L38.2005 53.8174Z" fill="#FFAA40"/>
<path d="M39.6533 43.8865L36.9193 26.4688C36.9193 26.4688 33.2054 40.7412 39.7828 47.0317L39.6533 43.8865Z" fill="#FFAA40"/>
<path d="M40.1855 26.5735C40.1855 26.5735 33.1688 14.8636 33.3124 13.5625C33.3124 13.5625 34.0585 25.8352 42.8857 31.9476L40.1855 26.5735Z" fill="#FFAA40"/>
<path d="M41.0078 23.1145C41.0078 23.1145 34.3853 6.48307 31.3894 5.13672C31.3894 5.13672 40.8501 9.96775 41.5597 22.6393L41.0078 23.1145Z" fill="#FFAA40"/>
<path d="M37.3332 55.4437L36.8799 55.3051C42.469 36.9964 43.8628 25.3233 40.8078 22.3959L41.1316 22.0508C44.3724 25.1395 43.0575 36.6853 37.3332 55.4437Z" fill="#444053"/>
<path d="M21.9427 98.3121L21.2726 98.0717C21.8667 96.3944 22.5059 94.6917 23.176 93.0144C29.0101 78.4082 33.977 64.8202 37.1615 54.3888L37.7444 54.106C34.5542 64.5572 29.6746 78.6656 23.8349 93.2916C23.1675 94.9378 22.5312 96.632 21.9427 98.3121Z" fill="#444053"/>
<path d="M36.0436 199.085C35.9535 198.986 26.8954 188.738 20.5798 171.244C16.8792 161.002 14.8198 150.235 14.4782 139.345C14.0446 125.731 16.8884 110.531 21.7596 96.7227L22.2889 97.3449C11.3528 128.336 15.6974 154.893 21.4611 170.885C27.7091 188.221 36.6658 198.355 36.7531 198.457L36.0436 199.085Z" fill="#444053"/>
<path d="M177.594 177.328C177.594 177.328 171.211 185.155 176.279 196.986L125.315 219.19L120.424 220.219L118.171 210.319L119.678 197.826V190.998L177.594 177.328Z" fill="#D5D6DB"/>
<path d="M16.6575 172.271L87.1961 159.353L180.663 174.31L122.609 195.306L16.6575 172.271Z" fill="#FFAA40"/>
<path d="M16.6575 172.271L87.1961 159.353L180.663 174.31L122.609 195.306L16.6575 172.271Z" fill="#FFAA40"/>
<path d="M16.6577 172.268C16.6577 172.268 10.0605 184.824 17.6629 196.42L122.266 219.19C122.266 219.19 115.773 209.188 122.601 195.306L16.6577 172.268Z" fill="#FFAA40"/>
<path opacity="0.1" d="M16.6577 172.268C16.6577 172.268 10.0605 184.824 17.6629 196.42L122.266 219.19C122.266 219.19 115.773 209.188 122.601 195.306L16.6577 172.268Z" fill="black"/>
<path opacity="0.1" d="M19.7746 176.621C19.7746 176.621 16.0044 185.808 19.7746 191.753V176.621Z" fill="black"/>
<path d="M122.266 219.19L180.663 194.158C180.663 194.158 183.929 194.865 181.818 197.269C179.706 199.673 123.392 221.594 123.392 221.594L17.6628 196.42L122.266 219.19Z" fill="#FFAA40"/>
<path opacity="0.1" d="M122.266 219.19L180.663 194.158C180.663 194.158 183.929 194.865 181.818 197.269C179.706 199.673 123.392 221.594 123.392 221.594L17.6628 196.42L122.266 219.19Z" fill="black"/>
<path opacity="0.1" d="M117.479 197.834C117.479 197.834 111.848 204.623 117.479 214.805V197.834Z" fill="black"/>
<path opacity="0.1" d="M144.743 197.72L119.483 206.185L119.573 206.453L144.832 197.988L144.743 197.72Z" fill="black"/>
<path opacity="0.1" d="M149.802 196.877L119.475 208.462L119.575 208.726L149.902 197.142L149.802 196.877Z" fill="black"/>
<path opacity="0.1" d="M154.448 196.837L119.645 211.147L119.751 211.409L154.555 197.098L154.448 196.837Z" fill="black"/>
<path opacity="0.1" d="M159.501 195.612L120.051 213.513L120.167 213.771L159.617 195.869L159.501 195.612Z" fill="black"/>
<path opacity="0.1" d="M163.746 195.617L120.363 214.666L120.476 214.925L163.858 195.877L163.746 195.617Z" fill="black"/>
<path opacity="0.1" d="M173.031 194.033L121.017 216.6L121.129 216.86L173.142 194.293L173.031 194.033Z" fill="black"/>
<path opacity="0.3" d="M42.8633 173.651L92.4194 163.186L122.609 168.984L82.0014 182.137L42.8633 173.651Z" fill="white"/>
<path d="M180.663 174.31C180.663 174.31 183.225 175.348 181.722 176.952C180.218 178.556 122.601 195.306 122.601 195.306L180.663 174.31Z" fill="#FFAA40"/>
<path d="M205.551 150.124C205.551 150.124 199.171 157.948 204.239 169.782L153.275 191.985L148.384 193.021L146.131 183.121L147.66 170.63V163.794L205.551 150.124Z" fill="#D5D6DB"/>
<path d="M44.6173 145.064L115.153 132.149L208.623 147.106L150.569 168.102L44.6173 145.064Z" fill="#3A3768"/>
<path d="M44.6061 145.064C44.6061 145.064 38.0061 157.62 45.6084 169.216L150.211 191.986C150.211 191.986 143.721 181.976 150.558 168.099L44.6061 145.064Z" fill="#3A3768"/>
<path opacity="0.1" d="M44.6061 145.064C44.6061 145.064 38.0061 157.62 45.6084 169.216L150.211 191.986C150.211 191.986 143.721 181.976 150.558 168.099L117.479 160.906L44.6061 145.064Z" fill="black"/>
<path opacity="0.1" d="M47.7315 149.417C47.7315 149.417 43.9641 158.601 47.7315 164.549V149.417Z" fill="black"/>
<path d="M150.223 191.986L208.623 166.954C208.623 166.954 211.886 167.661 209.775 170.065C207.663 172.469 151.349 194.39 151.349 194.39L45.6199 169.216L150.223 191.986Z" fill="#3A3768"/>
<path opacity="0.1" d="M150.223 191.986L208.623 166.954C208.623 166.954 211.886 167.661 209.775 170.065C207.663 172.469 151.349 194.39 151.349 194.39L45.6199 169.216L150.223 191.986Z" fill="black"/>
<path opacity="0.1" d="M145.436 170.63C145.436 170.63 139.805 177.419 145.436 187.601V170.63Z" fill="black"/>
<path opacity="0.1" d="M172.702 170.518L147.442 178.984L147.531 179.252L172.791 170.787L172.702 170.518Z" fill="black"/>
<path opacity="0.1" d="M177.765 169.675L147.438 181.259L147.538 181.524L177.865 169.939L177.765 169.675Z" fill="black"/>
<path opacity="0.1" d="M182.407 169.631L147.603 183.941L147.71 184.203L182.513 169.892L182.407 169.631Z" fill="black"/>
<path opacity="0.1" d="M187.463 168.406L148.012 186.307L148.128 186.565L187.578 168.663L187.463 168.406Z" fill="black"/>
<path opacity="0.1" d="M191.703 168.408L148.321 187.456L148.434 187.715L191.816 168.667L191.703 168.408Z" fill="black"/>
<path opacity="0.1" d="M200.99 166.824L148.977 189.391L149.089 189.65L201.102 167.083L200.99 166.824Z" fill="black"/>
<path opacity="0.45" d="M70.823 146.447L120.379 135.981L150.569 141.78L109.961 154.932L70.823 146.447Z" fill="white"/>
<path d="M208.623 147.106C208.623 147.106 211.182 148.144 209.681 149.745C208.181 151.346 150.569 168.099 150.569 168.099L208.623 147.106Z" fill="#3A3768"/>
<path d="M208.198 119.002C208.198 119.002 201.814 133.051 206.883 144.883L155.919 160.864L151.039 161.902L148.787 152.002L150.293 139.509V132.672L208.198 119.002Z" fill="#D5D6DB"/>
<path d="M47.2726 113.945L117.811 101.027L211.281 115.984L153.224 136.98L47.2726 113.945Z" fill="#FFAA40"/>
<path d="M47.2727 113.942C47.2727 113.942 40.6643 126.498 48.2666 138.095L152.869 160.864C152.869 160.864 146.377 150.854 153.213 136.98L47.2727 113.942Z" fill="#FFAA40"/>
<path opacity="0.1" d="M47.2727 113.942C47.2727 113.942 40.6643 126.498 48.2666 138.095L152.869 160.864C152.869 160.864 146.377 150.854 153.213 136.98L47.2727 113.942Z" fill="black"/>
<path opacity="0.1" d="M50.3896 118.295C50.3896 118.295 46.6194 127.482 50.3896 133.428V118.295Z" fill="black"/>
<path d="M152.881 160.863L211.278 142.054C211.278 142.054 214.544 142.761 212.433 145.165C210.321 147.57 154.007 163.268 154.007 163.268L48.2778 138.094L152.881 160.863Z" fill="#FFAA40"/>
<path opacity="0.1" d="M152.881 160.863L211.278 142.054C211.278 142.054 214.544 142.761 212.433 145.165C210.321 147.57 154.007 163.268 154.007 163.268L48.2778 138.094L152.881 160.863Z" fill="black"/>
<path opacity="0.1" d="M148.094 139.509C148.094 139.509 142.463 146.297 148.094 156.48V139.509Z" fill="black"/>
<path opacity="0.1" d="M175.36 139.396L150.101 147.862L150.19 148.13L175.449 139.665L175.36 139.396Z" fill="black"/>
<path opacity="0.1" d="M180.421 138.554L150.095 150.139L150.195 150.403L180.521 138.819L180.421 138.554Z" fill="black"/>
<path opacity="0.1" d="M185.061 138.511L150.257 152.821L150.364 153.083L185.168 138.773L185.061 138.511Z" fill="black"/>
<path opacity="0.1" d="M190.121 137.283L150.671 155.185L150.787 155.443L190.237 137.541L190.121 137.283Z" fill="black"/>
<path opacity="0.1" d="M194.363 137.288L150.981 156.337L151.093 156.596L194.476 137.548L194.363 137.288Z" fill="black"/>
<path opacity="0.1" d="M203.649 135.706L151.636 158.273L151.748 158.533L203.761 135.966L203.649 135.706Z" fill="black"/>
<path opacity="0.3" d="M73.4783 115.325L123.034 104.86L153.224 110.658L112.616 123.811L73.4783 115.325Z" fill="white"/>
<path d="M211.278 115.984C211.278 115.984 213.841 117.022 212.337 118.626C210.833 120.23 153.224 136.98 153.224 136.98L211.278 115.984Z" fill="#FFAA40"/>
<path d="M87.4046 30.1233C87.4046 30.1233 76.705 29.4756 77.9551 37.0163C77.9551 37.0163 77.7045 38.3485 78.9068 38.9538C78.9068 38.9538 78.9265 38.3881 80.0049 38.5833C80.3898 38.6497 80.7812 38.6687 81.1706 38.6398C81.6956 38.6037 82.1946 38.3972 82.5926 38.0515C82.5926 38.0515 85.6025 36.8013 86.7739 31.8572C86.7739 31.8572 87.6411 30.7795 87.6186 30.5023L85.8053 31.2773C85.8053 31.2773 86.4219 32.5869 85.9376 33.6759C85.9376 33.6759 85.8785 31.3254 85.5293 31.3791C85.4589 31.3791 84.5917 31.8345 84.5917 31.8345C84.5917 31.8345 85.6532 34.1171 84.8507 35.7746C84.8507 35.7746 85.1548 32.9631 84.2594 31.9986L82.9868 32.7453C82.9868 32.7453 84.2285 35.1014 83.3866 37.0248C83.3866 37.0248 83.6034 34.0747 82.7193 32.9263L81.5648 33.8314C81.5648 33.8314 82.7333 36.1536 82.021 37.7489C82.021 37.7489 81.9281 34.3151 81.3171 34.0549C81.3171 34.0549 80.3062 34.9487 80.1542 35.3164C80.1542 35.3164 80.9538 37.0135 80.4555 37.8931C80.4555 37.8931 80.1542 35.6049 79.8923 35.5936C79.8923 35.5936 78.8871 37.1096 78.7829 38.1392C78.8316 37.1793 79.1296 36.249 79.6473 35.4408C79.068 35.5509 78.5335 35.8292 78.11 36.2413C78.11 36.2413 78.2648 35.1693 79.8979 35.0759C79.8979 35.0759 80.7286 33.9248 80.951 33.8569C80.951 33.8569 79.3264 33.7183 78.3437 34.1567C78.3437 34.1567 79.2109 33.1469 81.2467 33.591L82.3729 32.6576C82.3729 32.6576 80.2386 32.3748 79.332 32.6887C79.332 32.6887 80.3766 31.7949 82.6798 32.4455L83.9216 31.7016C83.9216 31.7016 82.0998 31.3084 81.0158 31.4499C81.0158 31.4499 82.1589 30.8304 84.2848 31.5008L85.1689 31.102C85.1689 31.102 83.8371 30.8389 83.4457 30.7965C83.0543 30.754 83.0346 30.6466 83.0346 30.6466C83.8799 30.5071 84.7472 30.605 85.5406 30.9294C85.5406 30.9294 87.4412 30.2421 87.4046 30.1233Z" fill="#FFAA40"/>
<path opacity="0.1" d="M237.931 61.1174C237.931 61.1174 227.232 60.4697 228.482 68.0104C228.482 68.0104 228.231 69.3426 229.433 69.9479C229.433 69.9479 229.453 69.3822 230.532 69.5774C230.917 69.6423 231.308 69.6613 231.697 69.634C232.217 69.5955 232.711 69.3891 233.105 69.0457C233.105 69.0457 236.118 67.7955 237.286 62.8513C237.286 62.8513 238.154 61.7736 238.131 61.4965L236.323 62.2715C236.323 62.2715 236.94 63.581 236.456 64.67C236.456 64.67 236.397 62.3195 236.05 62.3733C235.98 62.3733 235.11 62.8287 235.11 62.8287C235.11 62.8287 236.171 65.1112 235.372 66.7687C235.372 66.7687 235.676 63.9572 234.778 62.9927L233.505 63.7394C233.505 63.7394 234.747 66.0956 233.905 68.0189C233.905 68.0189 234.122 65.0688 233.237 63.9205L232.086 64.8256C232.086 64.8256 233.252 67.1477 232.539 68.743C232.539 68.743 232.446 65.3092 231.835 65.049C231.835 65.049 230.827 65.9428 230.672 66.3105C230.672 66.3105 231.472 68.0076 230.976 68.8873C230.976 68.8873 230.672 66.599 230.413 66.5877C230.413 66.5877 229.408 68.1038 229.304 69.1333C229.353 68.1731 229.652 67.2426 230.171 66.435C229.591 66.5453 229.056 66.8236 228.631 67.2354C228.631 67.2354 228.789 66.1634 230.419 66.0701C230.419 66.0701 231.25 64.9189 231.472 64.8482C231.472 64.8482 229.85 64.7124 228.865 65.1508C228.865 65.1508 229.732 64.1411 231.768 64.5852L232.894 63.6517C232.894 63.6517 230.757 63.3689 229.853 63.6829C229.853 63.6829 230.895 62.7891 233.201 63.4396L234.44 62.6957C234.44 62.6957 232.618 62.3026 231.534 62.444C231.534 62.444 232.677 61.8246 234.803 62.4949L235.69 62.0961C235.69 62.0961 234.355 61.833 233.964 61.7906C233.572 61.7482 233.553 61.6407 233.553 61.6407C234.398 61.4995 235.266 61.5974 236.059 61.9236C236.059 61.9236 237.965 61.2362 237.931 61.1174Z" fill="#FFAA40"/>
<path opacity="0.1" d="M105.425 76.7081C105.425 76.7081 100.762 66.998 94.8268 71.7838C94.8268 71.7838 93.5457 72.2137 93.6076 73.5629C93.6076 73.5629 94.1004 73.3055 94.4524 74.3464C94.5838 74.7143 94.7577 75.0655 94.9704 75.3929C95.2585 75.8366 95.6825 76.1742 96.1784 76.3546C96.1784 76.3546 98.7322 78.3854 103.601 76.9995C103.601 76.9995 104.96 77.2342 105.183 77.0702L103.629 75.8624C103.629 75.8624 102.784 77.0419 101.607 77.1466C101.607 77.1466 103.623 75.9501 103.406 75.6729C103.361 75.6163 102.562 75.0705 102.562 75.0705C102.562 75.0705 101.095 77.1154 99.2644 77.2201C99.2644 77.2201 101.855 76.117 102.255 74.8583L100.988 74.1059C100.988 74.1059 99.5431 76.3461 97.4623 76.5441C97.4623 76.5441 100.132 75.2967 100.698 73.9617L99.3516 73.396C99.3516 73.396 97.9016 75.5513 96.1671 75.7069C96.1671 75.7069 99.1067 73.9504 99.0335 73.2857C99.0335 73.2857 97.7636 72.8388 97.3694 72.8812C97.3694 72.8812 96.2938 74.4058 95.2802 74.4058C95.2802 74.4058 97.1188 73.0226 97.0062 72.7992C97.0062 72.7992 95.1985 72.6578 94.2468 73.082C95.1044 72.6539 96.0587 72.4588 97.0146 72.5163C96.6354 72.0621 96.1324 71.7288 95.5674 71.5575C95.5674 71.5575 96.5754 71.1728 97.4511 72.5559C97.4511 72.5559 98.8589 72.7228 99.025 72.884C99.025 72.884 98.3521 71.3963 97.4933 70.7485C97.4933 70.7485 98.7941 71.0116 99.3882 73.0113L100.754 73.5544C100.754 73.5544 99.9683 71.5405 99.2446 70.9041C99.2446 70.9041 100.529 71.3821 101.089 73.7326L102.339 74.4567C102.339 74.4567 101.796 72.6663 101.142 71.7866C101.142 71.7866 102.238 72.4881 102.691 74.6773L103.471 75.26C103.471 75.26 103.049 73.9617 102.908 73.5996C102.767 73.2376 102.837 73.1641 102.837 73.1641C103.373 73.8356 103.712 74.6435 103.817 75.4976C103.817 75.4976 105.324 76.793 105.425 76.7081Z" fill="#FFAA40"/>
<path opacity="0.1" d="M213.486 47.3995C213.486 47.3995 208.826 37.6894 202.887 42.4752C202.887 42.4752 201.609 42.9051 201.668 44.2543C201.668 44.2543 202.164 43.9997 202.513 45.0378C202.644 45.4072 202.819 45.7595 203.034 46.0871C203.321 46.53 203.744 46.8667 204.239 47.046C204.239 47.046 206.796 49.0768 211.661 47.6937C211.661 47.6937 213.021 47.9256 213.246 47.7616L211.701 46.551C211.701 46.551 210.856 47.7333 209.682 47.838C209.682 47.838 211.695 46.6387 211.478 46.3615C211.433 46.3049 210.633 45.759 210.633 45.759C210.633 45.759 209.169 47.804 207.336 47.9087C207.336 47.9087 209.929 46.8056 210.329 45.5497L209.043 44.803C209.043 44.803 207.601 47.0403 205.517 47.2411C205.517 47.2411 208.187 45.991 208.755 44.6559L207.407 44.0902C207.407 44.0902 205.957 46.2484 204.225 46.4011C204.225 46.4011 207.162 44.6446 207.088 43.9827C207.088 43.9827 205.821 43.533 205.427 43.5783C205.427 43.5783 204.352 45.1 203.335 45.1C203.335 45.1 205.177 43.7169 205.064 43.4934C205.064 43.4934 203.256 43.352 202.302 43.7763C203.159 43.348 204.114 43.1529 205.07 43.2106C204.692 42.756 204.19 42.4226 203.625 42.2517C203.625 42.2517 204.633 41.867 205.509 43.2502C205.509 43.2502 206.917 43.4199 207.083 43.5811C207.083 43.5811 206.41 42.0905 205.548 41.4428C205.548 41.4428 206.849 41.7087 207.443 43.7197L208.812 44.2628C208.812 44.2628 208.026 42.2461 207.302 41.6097C207.302 41.6097 208.586 42.0877 209.144 44.4381L210.397 45.1622C210.397 45.1622 209.851 43.3746 209.197 42.4921C209.197 42.4921 210.296 43.1936 210.746 45.3828L211.526 45.9655C211.526 45.9655 211.106 44.6672 210.963 44.3052C210.819 43.9431 210.892 43.8724 210.892 43.8724C211.427 44.5446 211.765 45.3523 211.869 46.2059C211.869 46.2059 213.398 47.49 213.486 47.3995Z" fill="#FFAA40"/>
<path opacity="0.1" d="M228.378 95.4299C228.378 95.4299 223.718 85.7169 217.771 90.5027C217.771 90.5027 216.493 90.9326 216.552 92.2818C216.552 92.2818 217.047 92.0273 217.397 93.0653C217.527 93.4346 217.701 93.7869 217.915 94.1147C218.202 94.5576 218.625 94.8942 219.12 95.0735C219.12 95.0735 221.676 97.1072 226.545 95.7212C226.545 95.7212 227.902 95.956 228.127 95.7891L226.573 94.5814C226.573 94.5814 225.728 95.7637 224.551 95.8683C224.551 95.8683 226.564 94.669 226.348 94.3919C226.303 94.3353 225.503 93.7894 225.503 93.7894C225.503 93.7894 224.039 95.8344 222.206 95.9419C222.206 95.9419 224.799 94.8359 225.199 93.5801L223.929 92.8277C223.929 92.8277 222.487 95.0679 220.404 95.2659C220.404 95.2659 223.073 94.0157 223.642 92.6806L222.293 92.1149C222.293 92.1149 220.843 94.2702 219.111 94.4258C219.111 94.4258 222.051 92.6693 221.978 92.0046C221.978 92.0046 220.708 91.5549 220.314 91.6002C220.314 91.6002 219.238 93.1219 218.221 93.1219C218.221 93.1219 220.063 91.7387 219.95 91.5153C219.95 91.5153 218.143 91.3739 217.188 91.7981C218.047 91.3701 219.002 91.1751 219.959 91.2325C219.58 90.7772 219.077 90.4437 218.512 90.2736C218.512 90.2736 219.52 89.8861 220.395 91.272C220.395 91.272 221.803 91.4389 221.969 91.6002C221.969 91.6002 221.296 90.1124 220.437 89.4618C220.437 89.4618 221.738 89.7277 222.332 91.7388L223.698 92.2818C223.698 92.2818 222.912 90.2651 222.189 89.6315C222.189 89.6315 223.473 90.1067 224.03 92.46L225.283 93.1813C225.283 93.1813 224.737 91.3937 224.084 90.5112C224.084 90.5112 225.182 91.2127 225.635 93.4047L226.415 93.9704C226.415 93.9704 225.993 92.6721 225.852 92.3101C225.711 91.9481 225.782 91.8773 225.782 91.8773C226.317 92.5487 226.655 93.3569 226.759 94.2108C226.759 94.2108 228.29 95.5148 228.378 95.4299Z" fill="#FFAA40"/>
<path opacity="0.1" d="M56.8629 221.798C60.438 221.798 63.3362 221.472 63.3362 221.071C63.3362 220.669 60.438 220.344 56.8629 220.344C53.2878 220.344 50.3896 220.669 50.3896 221.071C50.3896 221.472 53.2878 221.798 56.8629 221.798Z" fill="#FFAA40"/>
<path opacity="0.1" d="M14.4276 209.443C18.0027 209.443 20.9009 209.117 20.9009 208.716C20.9009 208.314 18.0027 207.989 14.4276 207.989C10.8525 207.989 7.95435 208.314 7.95435 208.716C7.95435 209.117 10.8525 209.443 14.4276 209.443Z" fill="#FFAA40"/>
<path opacity="0.1" d="M89.2096 230.003C92.7847 230.003 95.6829 229.677 95.6829 229.276C95.6829 228.874 92.7847 228.549 89.2096 228.549C85.6345 228.549 82.7363 228.874 82.7363 229.276C82.7363 229.677 85.6345 230.003 89.2096 230.003Z" fill="#FFAA40"/>
<path opacity="0.1" d="M254.969 212.13C258.544 212.13 261.442 211.804 261.442 211.403C261.442 211.001 258.544 210.676 254.969 210.676C251.394 210.676 248.496 211.001 248.496 211.403C248.496 211.804 251.394 212.13 254.969 212.13Z" fill="#FFAA40"/>
<path opacity="0.1" d="M201.102 208.603C204.677 208.603 207.575 208.277 207.575 207.876C207.575 207.474 204.677 207.149 201.102 207.149C197.527 207.149 194.629 207.474 194.629 207.876C194.629 208.277 197.527 208.603 201.102 208.603Z" fill="#FFAA40"/>
<path opacity="0.1" d="M166.255 225.805C170.484 225.805 173.911 225.214 173.911 224.484C173.911 223.755 170.484 223.164 166.255 223.164C162.027 223.164 158.6 223.755 158.6 224.484C158.6 225.214 162.027 225.805 166.255 225.805Z" fill="#FFAA40"/>
<path d="M169.671 211.208C169.671 211.208 159.011 216.74 164.518 223.257C164.518 223.257 165.036 224.671 166.534 224.572C166.534 224.572 166.236 224.023 167.379 223.585C167.786 223.427 168.172 223.221 168.53 222.971C169.015 222.635 169.376 222.149 169.561 221.588C169.561 221.588 171.74 218.658 170.051 213.236C170.051 213.236 170.271 211.703 170.079 211.454L168.784 213.238C168.784 213.238 170.121 214.141 170.276 215.467C170.276 215.467 168.868 213.241 168.587 213.487C168.525 213.538 167.945 214.463 167.945 214.463C167.945 214.463 170.265 216.044 170.437 218.098C170.437 218.098 169.13 215.221 167.72 214.811L166.911 216.259C166.911 216.259 169.446 217.809 169.727 220.14C169.727 220.14 168.255 217.184 166.751 216.587L166.157 218.117C166.157 218.117 168.601 219.679 168.826 221.619C168.826 221.619 166.782 218.375 166.047 218.477C166.047 218.477 165.585 219.914 165.647 220.358C165.647 220.358 167.373 221.517 167.404 222.657C167.404 222.657 165.811 220.635 165.566 220.768C165.566 220.768 165.464 222.801 165.954 223.859C165.954 223.859 165.109 222.349 165.247 220.768C164.754 221.206 164.398 221.781 164.225 222.42C164.225 222.42 163.766 221.302 165.278 220.273C165.278 220.273 165.422 218.692 165.597 218.496C165.597 218.496 163.961 219.3 163.265 220.284C163.265 220.284 163.521 218.816 165.74 218.086L166.303 216.536C166.303 216.536 164.085 217.481 163.4 218.313C163.4 218.313 163.893 216.856 166.478 216.157L167.244 214.743C167.244 214.743 165.273 215.411 164.31 216.157C164.31 216.157 165.056 214.904 167.48 214.327L168.102 213.436C168.102 213.436 166.672 213.948 166.272 214.132C165.872 214.316 165.794 214.225 165.794 214.225C166.524 213.604 167.412 213.199 168.359 213.055C168.359 213.055 169.769 211.304 169.671 211.208Z" fill="#FFAA40"/>
<path d="M201.31 106.715C199.469 101.689 189.333 101.217 184.934 102.498C181.809 103.412 175.22 104.441 171.701 104.959L171.473 104.741C171.929 104.605 171.94 104.271 171.884 103.776C171.851 103.124 171.86 102.47 171.912 101.819C174.069 102.492 175.989 100.9 175.989 100.9C178.523 99.7685 177.842 94.9262 178.326 93.6024C178.689 92.6125 179.081 86.7802 179.255 83.8725H179.292L179.311 82.8967C179.337 82.4752 179.348 82.2292 179.348 82.2292C179.348 82.2292 179.596 75.1184 180.08 73.6787C180.531 72.355 180.897 65.6854 180.953 64.6276C180.953 64.5371 180.953 64.489 180.953 64.489L180.916 63.8724C180.942 63.4226 180.953 62.922 180.95 62.3959C180.95 59.9776 180.7 56.9313 180.669 56.4392C180.669 56.3684 180.669 56.2836 180.669 56.1818C180.688 55.1494 180.559 49.9789 176.18 48.0244C174.567 47.3004 172.627 46.4377 170.749 45.5976C170.265 41.3973 169.158 37.2197 169.254 32.9883C169.254 32.3519 169.31 31.7155 169.372 31.0819C169.372 31.2657 169.352 31.4524 169.35 31.6476C169.35 32.0577 169.35 32.4707 169.35 32.8808C169.516 27.5887 171.506 22.2684 171.321 17.0894C171.304 17.5957 171.267 18.1049 171.219 18.614C171.316 16.8623 171.134 15.1062 170.679 13.4124C170.51 12.8156 170.282 12.199 169.794 11.8002C169.334 11.479 168.806 11.269 168.251 11.1864C166.919 10.8438 165.565 10.5906 164.2 10.4284C163.992 9.79022 163.684 9.18957 163.287 8.64929C160.432 4.71206 156.203 1.01241 151.202 0.163873C148.694 -0.260398 145.808 0.0931609 144.101 1.8949C143.923 2.05318 143.756 2.22326 143.6 2.40402C142.682 3.5043 142.288 4.94965 141.348 6.0471C141.286 6.12064 141.215 6.18852 141.148 6.25923C139.306 7.91389 136.437 8.25896 134.39 9.74391C134.029 10.0105 133.691 10.3066 133.379 10.6292C132.554 11.4503 131.815 12.3535 131.172 13.3248C130.251 14.6258 129.305 15.9807 129.012 17.5335C128.424 20.6448 130.532 23.5949 130.924 26.7261C131.797 33.7322 124.079 39.9492 125.54 46.8619C125.93 48.5602 126.791 50.1127 128.024 51.3394C125.014 54.0774 122.451 56.7333 122.451 56.7333V56.8917H121.976L122.023 57.4574H121.976L122.237 60.5263L121.976 64.9953C121.976 64.9953 121.976 65.0434 121.976 65.1339V65.1565V65.2781C121.976 65.2781 121.976 65.3262 121.976 65.4167H121.992C122.08 67.0544 122.426 72.9433 122.837 74.185C123.321 75.6247 123.566 82.7355 123.566 82.7355C123.566 82.7355 124.101 92.785 124.591 94.1144C125.081 95.4438 124.386 100.272 126.928 101.412C127.672 101.985 128.553 102.352 129.482 102.475C129.353 103.533 129.434 104.3 129.854 104.54C130.033 104.646 130.237 104.705 130.445 104.71C130.273 104.967 130.119 105.236 129.986 105.516C128.977 105.41 127.985 105.175 127.035 104.817C124.304 103.686 115.24 101.14 112.608 102.931C109.975 104.721 103.64 106.345 106.565 113.552C109.491 120.759 110.854 120.94 110.854 120.94C111.754 121.596 112.544 122.394 113.193 123.301C114.072 124.628 122.257 127.663 124.304 127.663C125.174 127.649 126.044 127.693 126.909 127.793C126.909 127.793 124.687 129.75 124.983 130.887C125.278 132.024 124.307 141.126 124.307 141.126C124.307 141.126 126.56 143.406 127.522 140.416L127.556 140.462C127.736 140.708 128.711 141.819 130.544 140.416C131.294 139.845 132.091 139.338 132.926 138.9L141.801 137.639C142.726 137.581 143.654 137.574 144.58 137.619C145.988 137.735 147.37 136.898 148.24 136.25C150.079 136.952 152.146 137.718 153.128 137.998C155.122 138.564 164.284 141.033 166.427 140.261C166.872 140.083 167.268 139.8 167.581 139.435L169.626 139.5L168.668 139.692C168.668 139.692 170.532 139.724 173.066 139.757L172.959 139.82L176.138 139.791C180.79 139.834 186.016 139.848 186.703 139.692C187.778 139.452 193.367 139.622 195.015 139.692H195.474C195.474 139.692 201.615 138.462 199.08 132.203C197.132 127.394 191.143 125.997 188.485 125.612C189.234 125.462 189.879 125.346 190.307 125.278C192.162 124.996 195.766 123.299 196.059 122.719C196.352 122.139 199.373 120.456 200.153 119.497C200.933 118.538 203.16 111.741 201.31 106.715ZM150.445 120.781L150.144 120.88L149.941 120.948L149.552 121.333C149.243 121.123 148.91 120.903 148.564 120.677C149.175 120.713 149.803 120.75 150.445 120.781Z" fill="url(#paint0_linear)"/>
<path d="M168.398 90.9582C168.398 90.9582 172.706 102.272 175.156 101.141C177.605 100.009 176.941 95.201 177.408 93.8829C177.876 92.5648 178.394 82.569 178.394 82.569C178.394 82.569 178.63 75.4978 179.098 74.0666C179.531 72.7514 179.883 66.1186 179.942 65.0749C179.942 64.9844 179.942 64.9363 179.942 64.9363L179.478 56.7337L176.848 56.0747L170.749 58.3375L169.904 63.1827L169.575 65.0749L169.434 65.881L168.398 90.9582Z" fill="#BE6F72"/>
<path opacity="0.1" d="M169.817 89.063C169.817 89.063 173.928 92.443 175.167 92.74C176.406 93.037 177.166 95.6731 177.166 95.6731" fill="black"/>
<path d="M134.708 91.4529C134.708 91.4529 130.4 102.767 127.95 101.635C125.501 100.504 126.165 95.6956 125.698 94.3775C125.231 93.0594 124.712 83.0636 124.712 83.0636C124.712 83.0636 124.476 75.9925 124.009 74.5612C123.575 73.246 123.223 66.6132 123.164 65.5695C123.164 65.479 123.164 65.4309 123.164 65.4309L123.631 57.2284L126.261 56.5693L132.36 58.8321L133.205 63.6773L133.534 65.5695L133.675 66.3756L134.708 91.4529Z" fill="#BE6F72"/>
<path d="M162.761 30.9067H153.145V45.9627H162.761V30.9067Z" fill="#3E373A"/>
<path opacity="0.1" d="M162.761 30.9067H153.145V45.9627H162.761V30.9067Z" fill="black"/>
<path d="M133.019 102.722C133.019 102.722 129.733 106.351 130.952 107.01C132.171 107.669 140.058 120.021 140.058 120.021C140.058 120.021 165.962 123.225 170.848 118.417C175.733 113.609 175.634 105.019 175.634 105.019C175.634 105.019 171.709 105.867 171.281 105.406C170.853 104.945 168.502 102.722 168.502 102.722C168.502 102.722 135.271 100.697 133.019 102.722Z" fill="#4B4B5B"/>
<path opacity="0.02" d="M133.019 102.722C133.019 102.722 129.733 106.351 130.952 107.01C132.171 107.669 140.058 120.021 140.058 120.021C140.058 120.021 165.962 123.225 170.848 118.417C175.733 113.609 175.634 105.019 175.634 105.019C175.634 105.019 171.709 105.867 171.281 105.406C170.853 104.945 168.502 102.722 168.502 102.722C168.502 102.722 135.271 100.697 133.019 102.722Z" fill="black"/>
<path d="M179.652 56.8521L171.205 63.6404L168.651 63.8271L167.714 63.895L151.966 65.0547L135.635 63.8554L133.205 63.6772L130.107 63.4509L123.631 57.2283C123.631 57.2283 128.215 52.2954 132.23 48.9663C133.813 47.6511 135.308 46.5876 136.398 46.169L136.584 46.1039C137.269 45.8354 137.881 45.4069 138.369 44.8537C141.539 41.5699 144.47 33.4663 144.47 33.4663C144.47 33.4663 158.456 26.2084 156.766 35.7291C155.077 45.2497 163.054 42.8964 163.054 42.8964L165.684 44.1013L166.723 44.5794L169.372 45.7984L175.35 48.5534C180.041 50.7228 179.652 56.8521 179.652 56.8521Z" fill="#BE6F72"/>
<path opacity="0.1" d="M151.31 41.2193C158.256 41.2193 163.887 35.5625 163.887 28.5845C163.887 21.6065 158.256 15.9497 151.31 15.9497C144.363 15.9497 138.732 21.6065 138.732 28.5845C138.732 35.5625 144.363 41.2193 151.31 41.2193Z" fill="black"/>
<path opacity="0.1" d="M179.672 65.8523H123.164C123.164 65.7618 123.164 65.7137 123.164 65.7137L123.631 57.5111C123.631 57.5111 128.215 52.5783 132.23 49.2491L167.708 47.8349L169.358 46.0869L175.336 48.8418C180.029 51.0085 179.652 57.1377 179.652 57.1377C179.652 57.1377 180.294 64.24 179.672 65.8523Z" fill="black"/>
<path d="M179.672 65.5696H123.164C123.164 65.479 123.164 65.431 123.164 65.431L123.631 57.2284C123.631 57.2284 128.215 52.2955 132.23 48.9664L167.708 47.5522L169.358 45.8042L175.336 48.5591C180.029 50.7257 179.652 56.855 179.652 56.855C179.652 56.855 180.294 63.9573 179.672 65.5696Z" fill="#E7C7CA"/>
<path opacity="0.1" d="M142.252 42.5685C142.252 42.5685 151.166 53.9785 163.04 42.3337C174.914 30.6889 164.355 68.3076 164.355 68.3076L138.732 71.3623L142.252 42.5685Z" fill="black"/>
<path d="M142.252 43.1344C142.252 43.1344 151.166 54.5444 163.04 42.8996C174.914 31.2548 164.355 68.8735 164.355 68.8735L138.732 71.9282L142.252 43.1344Z" fill="#E7C7CA"/>
<path opacity="0.1" d="M166.708 45.1366L167.652 59.5873L168.663 64.3957L169.434 68.0727C169.434 68.0727 171.405 96.3574 170.842 97.7716C170.279 99.1859 171.123 100.317 171.242 101.07C171.36 101.822 171.123 103.711 171.216 104.56C171.309 105.409 171.216 105.785 169.06 105.482C166.903 105.179 163.896 104.653 163.896 104.653C163.896 104.653 156.293 105.219 153.666 104.277C151.039 103.335 146.064 103.332 146.064 103.332C146.064 103.332 138.554 103.522 136.116 103.239C133.678 102.956 132.36 106.257 130.766 105.312C129.173 104.368 132.641 95.226 133.768 92.5842C134.894 89.9424 132.267 83.2503 132.267 83.2503L135.646 64.4211L136.398 60.153V46.7347L136.583 46.6696C137.269 46.4011 137.881 45.9726 138.369 45.4195L139.213 58.9226L165.681 59.8673V44.6699" fill="black"/>
<path d="M166.708 44.5712L167.652 59.0218L168.663 63.8302L169.434 67.5073C169.434 67.5073 171.405 95.792 170.842 97.2062C170.279 98.6204 171.123 99.7518 171.242 100.504C171.36 101.257 171.123 103.146 171.216 103.995C171.309 104.843 171.216 105.219 169.06 104.917C166.903 104.614 163.896 104.088 163.896 104.088C163.896 104.088 156.293 104.654 153.666 103.712C151.039 102.77 146.064 102.767 146.064 102.767C146.064 102.767 138.554 102.956 136.116 102.674C133.678 102.391 132.36 105.692 130.766 104.747C129.173 103.802 132.641 94.6606 133.768 92.0188C134.894 89.377 132.267 82.6848 132.267 82.6848L135.646 63.8557L136.398 59.5875V46.1693L136.583 46.1042C137.269 45.8357 137.881 45.4072 138.369 44.854L139.213 58.3572L165.681 59.3019V44.1045" fill="#E7C7CA"/>
<path opacity="0.1" d="M169.752 14.4139C169.592 13.8227 169.369 13.2089 168.908 12.8129C168.467 12.4949 167.957 12.2856 167.421 12.202C166.137 11.8627 164.831 11.6114 163.513 11.4496C163.324 10.8216 163.039 10.227 162.668 9.68748C159.909 5.77287 155.826 2.08172 151.022 1.24732C148.508 0.808908 145.594 1.20206 143.983 3.19331C143.099 4.28793 142.719 5.73893 141.826 6.81375C140.106 8.90116 137 9.15856 134.832 10.7736C133.675 11.6222 132.836 12.8525 132.016 14.0462C131.129 15.3388 130.217 16.6851 129.936 18.2295C129.372 21.3153 131.403 24.2569 131.777 27.3711C132.622 34.3376 125.188 40.5178 126.593 47.391C127.413 51.3989 131.098 54.2218 134.911 55.653C136.254 56.1593 137.788 56.6627 138.416 57.9582C138.698 58.5239 138.746 59.1772 139.011 59.7486C139.9 61.655 142.826 61.7285 144.397 60.3397C145.968 58.951 146.464 56.7052 146.649 54.6093C147.404 45.4563 143.755 36.4137 144.18 27.2381C144.307 24.4634 145.084 21.3153 147.559 20.0595C150.89 18.3624 154.897 21.1909 158.563 20.6506C160.297 24.8909 160.666 29.5707 159.616 34.0321C159.033 36.4731 158.025 38.8405 157.952 41.3579C157.842 45.1904 159.9 48.6921 161.68 52.0806C162.061 52.7142 162.317 53.4165 162.431 54.1482C162.459 54.8906 162.322 55.6299 162.029 56.312C161.024 59.0302 159.289 61.5532 159.092 64.4467C159.034 64.7844 159.11 65.1315 159.303 65.414C159.502 65.6026 159.758 65.7182 160.03 65.7421C163.071 66.2654 165.7 63.5585 167.184 60.8404C168.839 57.8382 169.803 54.5019 170.006 51.0765C170.313 45.3177 168.257 39.6523 168.384 33.8879C168.53 27.3343 171.478 20.7355 169.752 14.4139Z" fill="black"/>
<path d="M170.034 14.1311C169.873 13.54 169.651 12.9262 169.189 12.5302C168.748 12.2122 168.239 12.0029 167.702 11.9193C166.418 11.58 165.112 11.3287 163.794 11.1669C163.606 10.5388 163.321 9.94427 162.949 9.40477C160.19 5.49016 156.107 1.79901 151.304 0.964606C148.789 0.526193 145.875 0.91935 144.265 2.91059C143.38 4.00521 143 5.45622 142.108 6.53104C140.387 8.61845 137.282 8.87584 135.114 10.4909C133.956 11.3394 133.117 12.5698 132.298 13.7634C131.411 15.0561 130.499 16.4024 130.217 17.9468C129.654 21.0326 131.684 23.9742 132.058 27.0884C132.903 34.0549 125.47 40.2351 126.875 47.1083C127.694 51.1162 131.38 53.9391 135.192 55.3703C136.535 55.8766 138.07 56.38 138.698 57.6755C138.979 58.2412 139.027 58.8945 139.292 59.4659C140.182 61.3723 143.107 61.4458 144.678 60.057C146.25 58.6683 146.745 56.4225 146.931 54.3266C147.686 45.1736 144.036 36.131 144.462 26.9554C144.588 24.1807 145.365 21.0326 147.84 19.7768C151.171 18.0797 155.178 20.9082 158.844 20.3679C160.579 24.6082 160.947 29.288 159.897 33.7494C159.314 36.1904 158.306 38.5578 158.233 41.0752C158.123 44.9077 160.182 48.4094 161.961 51.7979C162.343 52.4315 162.598 53.1338 162.713 53.8655C162.741 54.6079 162.603 55.3472 162.31 56.0293C161.305 58.7475 159.571 61.2705 159.373 64.164C159.316 64.5018 159.392 64.8488 159.585 65.1313C159.783 65.3199 160.039 65.4355 160.311 65.4594C163.352 65.9827 165.982 63.2758 167.466 60.5577C169.12 57.5555 170.084 54.2192 170.287 50.7938C170.594 45.035 168.539 39.3696 168.665 33.6052C168.812 27.0516 171.76 20.4528 170.034 14.1311Z" fill="#3E373A"/>
<path d="M163.814 139.367L174.984 139.727L173.382 131.405L164.825 132.223L163.814 139.367Z" fill="#C3C7D9"/>
<path d="M198.425 119.644C197.673 120.586 194.764 122.283 194.483 122.849C194.201 123.415 190.729 125.112 188.944 125.395C187.159 125.677 181.53 126.905 180.497 127.564C179.757 128.039 173.813 129.544 169.907 130.378C168.849 130.63 167.779 130.823 166.7 130.958C165.011 131.052 146.523 124.736 146.523 124.736L150.088 121.059L150.285 120.991C151.293 120.648 155.95 119.067 158.535 118.315C161.446 117.466 164.825 113.979 164.825 113.979C164.825 113.979 169.797 112.282 170.456 112.092C171.115 111.903 168.767 105.493 168.767 105.493C168.767 105.493 179.559 103.989 183.783 102.713C188.006 101.437 197.768 101.91 199.551 106.908C201.333 111.906 199.188 118.702 198.425 119.644Z" fill="#4B4B5B"/>
<path d="M149.243 135.577C149.243 135.577 147.086 137.84 144.926 137.653C142.767 137.466 135.215 138.219 135.215 138.219C133.847 138.767 132.565 139.513 131.411 140.433C129.646 141.831 128.708 140.716 128.534 140.479L128.503 140.433C127.562 143.406 125.405 141.141 125.405 141.141C125.405 141.141 126.343 132.089 126.056 130.958C125.768 129.827 127.911 127.884 127.911 127.884L130.445 127.236L136.865 125.584L146.064 128.789L149.243 135.577Z" fill="#E7C7CA"/>
<path opacity="0.1" d="M130.434 127.236L128.533 140.479L128.503 140.433C127.562 143.406 125.405 141.141 125.405 141.141C125.405 141.141 126.343 132.09 126.056 130.958C125.768 129.827 127.911 127.884 127.911 127.884L130.434 127.236Z" fill="black"/>
<path opacity="0.1" d="M143.719 89.5664C143.719 89.5664 148.691 91.2635 153.01 89.5664H143.719Z" fill="black"/>
<path opacity="0.1" d="M160.694 92.7739C160.694 92.7739 162.758 93.8092 164.355 92.7739H160.694Z" fill="black"/>
<path opacity="0.1" d="M160.694 95.2291C160.694 95.2291 164.166 95.6958 164.825 94.7539L160.694 95.2291Z" fill="black"/>
<path opacity="0.1" d="M159.568 100.504C159.568 100.504 166.089 99.6558 167.708 98.5244L159.568 100.504Z" fill="black"/>
<path opacity="0.1" d="M139.669 98.5244C139.669 98.5244 143.33 100.598 146.053 100.504L139.669 98.5244Z" fill="black"/>
<path opacity="0.1" d="M169.904 130.378C168.847 130.63 167.776 130.823 166.697 130.958C165.008 131.052 146.52 124.736 146.52 124.736L150.085 121.059L150.282 120.991C150.845 121.39 151.307 121.732 151.636 121.992C153.188 123.22 154.686 121.616 155.249 121.616C155.812 121.616 160.691 125.669 160.691 125.669C160.691 125.669 165.196 126.707 165.948 127.649C166.7 128.591 169.327 128.404 169.795 129.063C169.935 129.267 169.952 129.767 169.904 130.378Z" fill="black"/>
<path d="M135.215 105.878C135.215 105.878 130.659 106.141 128.032 105.03C125.405 103.918 116.677 101.353 114.142 103.154C111.608 104.956 105.507 106.548 108.322 113.716C111.138 120.883 112.453 121.07 112.453 121.07C113.324 121.726 114.085 122.519 114.706 123.417C115.55 124.738 123.434 127.753 125.405 127.753C127.376 127.753 130.848 127.753 135.727 131.148C140.607 134.542 145.019 134.921 145.019 134.921C145.019 134.921 151.214 137.466 153.142 138.032C155.071 138.598 163.884 141.047 165.951 140.295C168.018 139.543 169.33 134.825 169.33 134.825C169.33 134.825 170.268 130.582 169.797 129.923C169.327 129.264 166.7 129.451 165.951 128.509C165.202 127.567 160.694 126.529 160.694 126.529C160.694 126.529 155.826 122.473 155.263 122.473C154.7 122.473 153.202 124.074 151.65 122.849C148.56 120.549 145.313 118.47 141.933 116.626C138.369 114.74 135.215 105.878 135.215 105.878Z" fill="#4B4B5B"/>
<path opacity="0.1" d="M126.055 108.613C126.867 108.447 127.705 108.471 128.506 108.683C129.306 108.896 130.047 109.291 130.67 109.838C132.923 111.725 140.503 115.512 140.503 115.512" fill="black"/>
<path opacity="0.1" d="M182.375 108.495C182.375 108.495 172.332 110.022 170.456 112.095L182.375 108.495Z" fill="black"/>
<path d="M193.919 139.726H193.477C191.889 139.67 186.508 139.5 185.472 139.726C184.253 140.009 168.108 139.726 168.108 139.726L171.264 139.067C171.264 139.067 170.093 134.943 170.836 134.601C170.836 134.601 166.613 131.807 169.797 129.92C172.982 128.033 176.414 128.828 176.414 128.828L184.408 126.107L185.943 125.584C185.943 125.584 194.953 126.056 197.391 132.279C199.829 138.502 193.919 139.726 193.919 139.726Z" fill="#E7C7CA"/>
<path opacity="0.1" d="M193.919 139.726H193.477C196.099 137.554 202.028 130.941 184.408 126.121L185.943 125.598C185.943 125.598 194.953 126.071 197.391 132.293C199.829 138.516 193.919 139.726 193.919 139.726Z" fill="black"/>
<path d="M177.355 132.395C177.627 132.395 177.848 132.174 177.848 131.9C177.848 131.627 177.627 131.405 177.355 131.405C177.083 131.405 176.862 131.627 176.862 131.9C176.862 132.174 177.083 132.395 177.355 132.395Z" fill="#4B4B5B"/>
<path d="M174.491 133.213C174.763 133.213 174.984 132.991 174.984 132.718C174.984 132.444 174.763 132.223 174.491 132.223C174.219 132.223 173.998 132.444 173.998 132.718C173.998 132.991 174.219 133.213 174.491 133.213Z" fill="#4B4B5B"/>
<g opacity="0.1">
<path opacity="0.1" d="M160.539 28.1176C160.649 25.0065 160.098 21.9077 158.923 19.0269C155.263 19.5756 151.253 16.7387 147.919 18.4357C145.453 19.6916 144.679 22.8397 144.541 25.6144C144.507 26.347 144.501 27.0796 144.515 27.8121C144.515 27.5519 144.515 27.2889 144.541 27.0286C144.67 24.2539 145.444 21.1058 147.919 19.85C151.253 18.1529 155.257 20.9814 158.923 20.4411C159.918 22.8813 160.465 25.4819 160.539 28.1176Z" fill="black"/>
<path opacity="0.1" d="M132.174 27.6C132.222 26.9837 132.21 26.3641 132.137 25.7502C131.839 23.2611 130.484 20.8824 130.24 18.4556C129.924 21.383 131.78 24.1945 132.137 27.1644C132.174 27.3172 132.174 27.4529 132.174 27.6Z" fill="black"/>
<path opacity="0.1" d="M147.01 52.9826C146.835 55.0813 146.343 57.3243 144.757 58.7159C143.172 60.1075 140.252 60.0311 139.371 58.1247C139.089 57.5591 139.047 56.9 138.774 56.3343C138.149 55.0389 136.612 54.5354 135.269 54.0291C131.453 52.5951 127.773 49.7864 126.954 45.7672C126.881 45.4031 126.831 45.0346 126.805 44.6641C126.735 45.506 126.786 46.3536 126.954 47.1814C127.773 51.1893 131.459 54.0093 135.269 55.4434C136.612 55.9497 138.149 56.4531 138.774 57.7486C139.056 58.3143 139.103 58.9676 139.371 59.539C140.258 61.4454 143.183 61.5189 144.757 60.1301C146.331 58.7414 146.821 56.4956 147.01 54.3968C147.096 53.2922 147.125 52.1838 147.097 51.0762C147.097 51.7183 147.061 52.3518 147.01 52.9826Z" fill="black"/>
<path opacity="0.1" d="M168.758 32.2642C168.758 32.6743 168.758 33.0816 168.758 33.4889C168.916 28.228 170.836 22.9387 170.648 17.7881C170.501 22.5512 168.865 27.4219 168.758 32.2642Z" fill="black"/>
<path opacity="0.1" d="M162.716 53.5455C162.785 53.2099 162.807 52.8661 162.781 52.5244C162.667 51.7924 162.412 51.0899 162.029 50.4568C160.401 47.3455 158.546 44.1606 158.326 40.707C158.326 40.8541 158.307 40.9899 158.304 41.1483C158.191 44.978 160.249 48.4825 162.029 51.871C162.331 52.3958 162.562 52.959 162.716 53.5455Z" fill="black"/>
<path opacity="0.1" d="M170.377 49.4529C170.167 52.8797 169.196 56.2158 167.536 59.2168C166.05 61.9349 163.423 64.6418 160.379 64.1185C160.106 64.0949 159.85 63.9781 159.652 63.7876C159.595 63.7228 159.55 63.648 159.52 63.567C159.486 63.7876 159.458 64.011 159.441 64.2373C159.383 64.5742 159.459 64.9206 159.652 65.2018C159.85 65.3923 160.106 65.5091 160.379 65.5327C163.423 66.056 166.05 63.3492 167.536 60.631C169.196 57.63 170.167 54.2939 170.377 50.8671C170.411 50.2053 170.414 49.5462 170.394 48.8872C170.389 49.0767 170.389 49.2634 170.377 49.4529Z" fill="black"/>
</g>
<path opacity="0.1" d="M170.836 134.601C170.836 134.601 177.963 137.605 182.662 130.958" stroke="black" stroke-miterlimit="10"/>
<path opacity="0.1" d="M172.239 139.851C172.239 139.851 178.059 136.05 185.472 139.727" stroke="black" stroke-miterlimit="10"/>
<path opacity="0.1" d="M133.281 138.988C133.281 138.988 135.725 133.45 142.252 137.673" stroke="black" stroke-miterlimit="10"/>
<path opacity="0.1" d="M125.357 57.0871L130.341 52.5615C130.341 52.5615 149.665 51.2887 150.465 57.8875C150.465 57.8875 157.316 50.064 171.723 51.8063L177.819 56.6826L160.97 64.1102L144.597 69.8152L132.537 64.393L125.357 57.0871Z" fill="black"/>
<path d="M125.357 57.3698L130.341 52.8443C130.341 52.8443 149.665 51.5714 150.465 58.1703C150.465 58.1703 157.316 50.3467 171.723 52.0891L177.819 56.9653L160.97 64.3929L144.597 70.0979L132.537 64.6757L125.357 57.3698Z" fill="#D5D6DB"/>
<path opacity="0.1" d="M123.153 57.9355L125.357 84.4298L148.727 85.6093L147.714 59.2282L147.694 58.7841L123.153 57.9355Z" fill="black"/>
<path d="M123.153 57.3701L125.357 83.8644L148.727 85.0439L147.714 58.6627L147.694 58.2187L123.153 57.3701Z" fill="#FFAA40"/>
<path opacity="0.1" d="M178.889 57.3701L154.781 61.0019V87.615L178.34 84.1953L178.889 57.3701Z" fill="black"/>
<path d="M178.889 56.8042L154.781 60.436V87.0491L178.34 83.6294L178.889 56.8042Z" fill="#FFAA40"/>
<path opacity="0.3" d="M173.204 63.2983L160.182 64.7522L160.466 69.2098L173.196 67.8126L173.204 63.2983Z" fill="white"/>
<path d="M126.624 98.0518L127.951 101.636C127.951 101.636 129.922 103.333 132.078 102.484C134.235 101.636 136.116 101.214 137.054 100.388C137.991 99.5622 139.306 95.4129 139.306 95.4129C139.306 95.4129 140.621 90.8873 141.933 89.7559C143.246 88.6245 146.72 73.0368 141.933 74.5614C137.147 76.0859 133.486 90.2283 133.486 90.2283C133.486 90.2283 132.642 91.2635 131.422 91.3597C130.203 91.4559 127.762 91.1702 127.292 92.2082C126.822 93.2463 125.217 95.9786 126.624 98.0518Z" fill="#BE6F72"/>
<path opacity="0.1" d="M154.781 60.9986C153.547 61.278 152.265 61.2634 151.037 60.956C149.81 60.6485 148.67 60.0568 147.711 59.228L148.728 85.6064C148.728 85.6064 151.121 88.2085 154.781 87.6146V60.9986Z" fill="black"/>
<path d="M154.781 60.4332C153.547 60.7126 152.265 60.698 151.037 60.3906C149.81 60.0831 148.67 59.4913 147.711 58.6626L148.728 85.0409C148.728 85.0409 151.121 87.6431 154.781 87.0491V60.4332Z" fill="#FFAA40"/>
<path opacity="0.1" d="M154.781 60.4332C153.547 60.7126 152.265 60.698 151.037 60.3906C149.81 60.0831 148.67 59.4913 147.711 58.6626L148.728 85.0409C148.728 85.0409 151.121 87.6431 154.781 87.0491V60.4332Z" fill="black"/>
<path opacity="0.1" d="M155.344 57.4605C155.344 57.4605 165.152 54.4482 167.708 54.8725L155.344 57.4605Z" fill="black"/>
<path opacity="0.1" d="M144.375 56.1451C144.375 56.1451 134.869 53.8823 133.281 54.5244L144.375 56.1451Z" fill="black"/>
<path opacity="0.1" d="M161.528 57.8366C161.528 57.8366 168.086 55.4211 170.456 56.5694L161.528 57.8366Z" fill="black"/>
<path opacity="0.1" d="M158.225 118.431C159.241 117.664 160.323 116.99 161.457 116.414C163.147 115.597 166.244 113.476 166.244 113.476" fill="black"/>
<path opacity="0.1" d="M133.281 89.5664C133.281 89.5664 129.167 92.9464 127.931 93.2434C126.695 93.5404 125.932 96.1766 125.932 96.1766" fill="black"/>
<path d="M176.47 97.5482L175.158 101.14C175.158 101.14 173.187 102.837 171.028 101.989C168.868 101.14 166.993 100.719 166.052 99.893C165.112 99.0671 163.8 94.9178 163.8 94.9178C163.8 94.9178 162.488 90.3922 161.173 89.2608C159.858 88.1294 156.386 72.5417 161.173 74.0663C165.959 75.5908 169.62 89.7332 169.62 89.7332C169.62 89.7332 170.465 90.7684 171.684 90.8646C172.903 90.9607 175.344 90.6751 175.814 91.7131C176.285 92.7512 177.878 95.4835 176.47 97.5482Z" fill="#BE6F72"/>
<path opacity="0.1" d="M174.17 90.9409C174.17 90.9409 176.859 92.6776 176.848 94.7537L174.17 90.9409Z" fill="black"/>
<path d="M151.355 40.5996C158.301 40.5996 163.932 34.9429 163.932 27.9649C163.932 20.9869 158.301 15.3301 151.355 15.3301C144.408 15.3301 138.777 20.9869 138.777 27.9649C138.777 34.9429 144.408 40.5996 151.355 40.5996Z" fill="#BE6F72"/>
<path d="M143.457 24.5736C144.983 24.3332 146.32 23.4422 147.779 22.9302C151.042 21.779 154.652 22.5682 157.955 23.6062C159.222 24.005 160.508 24.4548 161.837 24.4548C163.166 24.4548 164.577 23.9089 165.256 22.7577C165.881 21.6998 165.76 20.3252 165.233 19.2136C164.707 18.102 163.825 17.2082 162.935 16.3653C160.007 13.5878 156.375 10.9913 152.357 11.2741C150.741 11.3901 149.195 11.9699 147.708 12.612C145.836 13.4223 144.014 14.3442 142.251 15.3726C140.897 16.1617 138.388 17.2167 137.608 18.6592C135.834 21.9092 140.697 25.0092 143.457 24.5736Z" fill="#3E373A"/>
<path opacity="0.1" d="M165.256 21.5702C164.577 22.7214 163.166 23.2673 161.837 23.2673C160.508 23.2673 159.221 22.8346 157.952 22.4357C154.649 21.3977 151.042 20.6057 147.776 21.7597C146.32 22.2717 144.98 23.174 143.454 23.4002C141.229 23.751 137.648 21.805 137.259 19.3301C136.823 22.1897 140.976 24.6391 143.454 24.2488C144.98 24.0084 146.32 23.1174 147.776 22.6083C151.042 21.4543 154.649 22.2462 157.952 23.2843C159.221 23.6831 160.505 24.1328 161.837 24.1158C163.169 24.0989 164.577 23.5728 165.256 22.4188C165.607 21.791 165.746 21.0651 165.65 20.3512C165.606 20.781 165.471 21.1965 165.256 21.5702Z" fill="black"/>
<path d="M267.327 174.859C267.327 174.859 268.997 177.051 266.556 180.363C264.115 183.675 262.104 186.47 262.915 188.535C262.915 188.535 266.598 182.385 269.594 182.298C272.59 182.21 270.619 178.556 267.327 174.859Z" fill="#FFAA40"/>
<path opacity="0.1" d="M267.327 174.859C267.472 175.071 267.587 175.302 267.668 175.546C270.59 178.997 272.15 182.219 269.337 182.298C266.719 182.374 263.579 187.078 262.828 188.263C262.852 188.359 262.881 188.453 262.915 188.546C262.915 188.546 266.598 182.397 269.594 182.309C272.59 182.221 270.619 178.556 267.327 174.859Z" fill="black"/>
<path d="M270.424 177.654C270.424 178.426 270.337 179.051 270.233 179.051C270.129 179.051 270.039 178.426 270.039 177.654C270.039 176.881 270.146 177.246 270.253 177.246C270.36 177.246 270.424 176.881 270.424 177.654Z" fill="#FFD037"/>
<path d="M271.492 178.575C270.819 178.943 270.23 179.167 270.18 179.073C270.129 178.98 270.633 178.604 271.306 178.225C271.979 177.846 271.714 178.123 271.765 178.225C271.816 178.327 272.168 178.205 271.492 178.575Z" fill="#FFD037"/>
<path d="M258.503 174.859C258.503 174.859 256.833 177.051 259.274 180.363C261.715 183.675 263.726 186.47 262.912 188.535C262.912 188.535 259.232 182.385 256.233 182.298C253.235 182.21 255.22 178.556 258.503 174.859Z" fill="#FFAA40"/>
<path opacity="0.1" d="M258.503 174.859C258.357 175.071 258.243 175.302 258.162 175.546C255.239 178.997 253.679 182.219 256.492 182.298C259.108 182.374 262.25 187.078 263.002 188.263C262.979 188.359 262.948 188.454 262.912 188.546C262.912 188.546 259.232 182.397 256.233 182.309C253.235 182.221 255.22 178.556 258.503 174.859Z" fill="black"/>
<path d="M255.4 177.654C255.4 178.426 255.485 179.051 255.592 179.051C255.699 179.051 255.786 178.426 255.786 177.654C255.786 176.881 255.676 177.246 255.572 177.246C255.468 177.246 255.4 176.881 255.4 177.654Z" fill="#FFD037"/>
<path d="M254.336 178.575C255.009 178.943 255.597 179.167 255.648 179.073C255.699 178.98 255.195 178.604 254.522 178.225C253.849 177.846 254.113 178.123 254.063 178.225C254.012 178.327 253.66 178.205 254.336 178.575Z" fill="#FFD037"/>
<path opacity="0.1" d="M262.915 205.313C272.556 205.313 280.372 204.109 280.372 202.623C280.372 201.137 272.556 199.933 262.915 199.933C253.274 199.933 245.458 201.137 245.458 202.623C245.458 204.109 253.274 205.313 262.915 205.313Z" fill="#FFAA40"/>
<path d="M271.9 185.579L271.815 186.264L271.697 187.231L271.649 187.635L271.531 188.603L271.48 189.007L271.365 189.972L270.027 200.974C269.909 201.956 268.313 202.722 266.384 202.722H259.443C257.514 202.722 255.921 201.956 255.8 200.974L254.462 189.972L254.344 189.007L254.296 188.603L254.178 187.635L254.127 187.231L254.012 186.264L253.927 185.579C253.862 185.013 254.724 184.555 255.817 184.555H270.013C271.103 184.555 271.967 185.022 271.9 185.579Z" fill="#65617D"/>
<path d="M271.815 186.264L271.7 187.231H254.13L254.012 186.264H271.815Z" fill="#9D9CB5"/>
<path d="M271.649 187.635L271.534 188.603H254.296L254.178 187.635H271.649Z" fill="#9D9CB5"/>
<path d="M271.483 189.007L271.365 189.974H254.462L254.347 189.007H271.483Z" fill="#9D9CB5"/>
</g>
<defs>
<linearGradient id="paint0_linear" x1="153.917" y1="141.966" x2="153.917" y2="-0.000179267" gradientUnits="userSpaceOnUse">
<stop stop-color="#808080" stop-opacity="0.25"/>
<stop offset="0.54" stop-color="#808080" stop-opacity="0.12"/>
<stop offset="1" stop-color="#808080" stop-opacity="0.1"/>
</linearGradient>
<clipPath id="clip0">
<rect width="288" height="230" fill="white"/>
</clipPath>
</defs>
</svg>
