<svg width="89" height="97" viewBox="0 0 89 97" fill="none" xmlns="http://www.w3.org/2000/svg">
<path opacity="0.3" d="M45.8875 96.2063C69.3325 96.2063 88.3384 77.2497 88.3384 53.8656C88.3384 30.4815 69.3325 11.5249 45.8875 11.5249C22.4425 11.5249 3.43652 30.4815 3.43652 53.8656C3.43652 77.2497 22.4425 96.2063 45.8875 96.2063Z" fill="#FFAA40"/>
<path d="M28.4534 0L0.188477 34.2054L42.0206 83.4466L69.9085 50.7447L28.4534 0Z" fill="#FFAA40"/>
<path opacity="0.1" d="M28.4534 0L0.188477 34.2054L42.0206 83.4466L69.9085 50.7447L28.4534 0Z" fill="black"/>
<path d="M1.31934 34.5815C1.94454 33.4591 2.71983 32.4266 3.62388 31.5124L29.5842 5.26236C29.5842 5.26236 38.629 3.75881 40.5133 8.26944L7.34918 35.3333L1.31934 34.5815Z" fill="#F2F2F2"/>
<path d="M0 34.0176L38.4403 92.6559C38.4403 92.6559 42.2089 95.2871 45.9776 93.7836L85.36 67.2836L43.528 4.13464L5.84142 33.4538L0 34.0176Z" fill="#FFAA40"/>
<path d="M38.8284 13.2858L14.707 30.5739L15.0634 31.0686L39.1848 13.7805L38.8284 13.2858Z" fill="#3F3D56"/>
<path d="M14.3874 37.0446L13.8779 37.3807L45.5347 85.1183L46.0441 84.7823L14.3874 37.0446Z" fill="#3F3D56"/>
<path d="M75.0008 67.4103L49.3799 86.2122L49.7419 86.703L75.3628 67.9011L75.0008 67.4103Z" fill="#3F3D56"/>
<path d="M43.4015 14.1097L42.9004 14.4576L75.6876 61.4433L76.1888 61.0954L43.4015 14.1097Z" fill="#3F3D56"/>
<path d="M33.2744 4.8897L3.45312 32.1877L3.7078 32.4645L33.5291 5.16648L33.2744 4.8897Z" fill="#3F3D56"/>
<path d="M35.7589 5.12373L4.5918 32.567L4.84132 32.8489L36.0084 5.40564L35.7589 5.12373Z" fill="#3F3D56"/>
<path d="M37.7078 5.67062L5.35352 32.5693L5.59494 32.8582L37.9492 5.95951L37.7078 5.67062Z" fill="#3F3D56"/>
</svg>
