<svg width="349" height="278" viewBox="0 0 349 278" fill="none" xmlns="http://www.w3.org/2000/svg">
<g clip-path="url(#clip0)">
<path opacity="0.1" d="M204.676 46.9806C182.593 46.2114 161.558 39.0696 141.475 31.2543C121.391 23.439 101.499 14.7793 79.9447 10.6392C66.0815 7.97597 50.2256 7.5999 39.0579 15.046C28.3065 22.2254 24.833 34.5842 22.9666 46.0644C21.5608 54.7002 20.7351 63.7873 24.5873 71.8726C27.259 77.4862 32.0052 82.2041 35.2842 87.5989C46.7044 106.306 38.6348 129.376 26.2592 147.643C20.4587 156.213 13.7199 164.395 9.24326 173.509C4.76663 182.623 2.69209 193.081 6.60914 202.387C10.4955 211.618 19.7524 218.538 29.7771 223.409C50.1437 233.307 74.134 236.137 97.5442 237.741C149.35 241.293 201.428 239.754 253.37 238.216C272.594 237.645 291.899 237.067 310.809 234.089C321.311 232.435 332.151 229.813 339.777 223.474C349.454 215.43 351.852 201.806 345.37 191.721C334.488 174.801 304.425 170.6 296.809 152.439C292.626 142.446 296.925 131.315 303.005 122.043C316.053 102.159 337.921 84.7135 339.074 61.9856C339.866 46.3721 329.35 30.7415 313.095 23.3536C296.058 15.5827 272.426 16.5673 259.863 29.3843C246.918 42.5909 224.173 47.6575 204.676 46.9806Z" fill="#FFAA40"/>
<path d="M148.578 236.065L31.79 235.495L20.1855 208.223L61.2191 205.239L54.0674 175.338L135.227 164.798L57.5102 137.728L64.3752 136.094L189.342 156.521L182.46 203.184L172.623 228.828L148.578 236.065Z" fill="#FFAA40"/>
<path d="M33.5811 224.072C33.5811 224.072 40.7464 222.924 45.0456 227.997C45.0456 227.997 41.8928 230.486 35.1097 227.04L33.5811 224.072Z" fill="#FFAA40"/>
<path d="M32.8305 223.96C32.8305 223.96 28.2583 229.597 30.5102 235.874C30.5102 235.874 34.2362 234.38 34.6423 226.77L32.8305 223.96Z" fill="#FFAA40"/>
<path d="M28.7227 214.691C28.7227 214.691 31.5888 209.423 43.0533 216.797C43.0533 216.797 41.5247 220.339 36.4612 220.052C31.3977 219.765 30.0602 217.467 28.7227 214.691Z" fill="#FFAA40"/>
<path d="M27.9819 214.312C27.9819 214.312 22.0346 213.628 21.458 227.269C21.458 227.269 25.2283 228.052 27.9068 223.737C30.5853 219.423 29.4866 217.002 27.9819 214.312Z" fill="#FFAA40"/>
<path d="M24.5195 203.43C24.5195 203.43 27.8634 194.145 39.9967 200.75C39.9967 200.75 37.2261 209.269 25.7615 206.589L24.5195 203.43Z" fill="#FFAA40"/>
<path d="M20.793 189.55C20.793 189.55 27.0985 180.169 38.2764 188.866C38.2764 188.866 34.3594 197.673 21.7483 192.887L20.793 189.55Z" fill="#FFAA40"/>
<path d="M19.4561 176.34C19.4561 176.34 26.8125 167.721 37.8812 176.34C37.8812 176.34 30.907 183.902 19.4561 178.541V176.34Z" fill="#FFAA40"/>
<path d="M18.3096 163.509C18.3096 163.509 25.7615 154.511 36.3662 163.03C36.3662 163.03 27.9589 170.976 18.3096 165.615V163.509Z" fill="#FFAA40"/>
<path d="M18.9775 152.118C18.9775 152.118 26.8253 140.535 36.7476 148.385C36.7476 148.385 28.3403 158.34 18.9775 154.319V152.118Z" fill="#FFAA40"/>
<path d="M20.793 138.812C20.793 138.812 29.1048 127.325 38.7541 136.132C38.7541 136.132 28.9137 146.087 20.793 140.918V138.812Z" fill="#FFAA40"/>
<path d="M23.5637 126.918C23.5637 126.918 33.4041 116.122 41.9889 120.422C41.9889 120.422 31.7356 131.889 23.1338 129.783L23.5637 126.918Z" fill="#FFAA40"/>
<path d="M27.0035 115.643C27.0035 115.643 38.3589 102.419 44.9646 106.836C44.9646 106.836 36.5982 117.093 26.1982 118.118L27.0035 115.643Z" fill="#FFAA40"/>
<path d="M31.9679 102.566C31.9679 102.566 41.9073 91.7698 49.1682 94.4501C49.1682 94.4501 40.6653 105.65 30.6338 105.937L31.9679 102.566Z" fill="#FFAA40"/>
<path d="M36.4611 90.3339C36.4611 90.3339 47.448 79.9956 52.2249 81.8144C52.2249 81.8144 44.2952 93.3014 35.9834 92.6314L36.4611 90.3339Z" fill="#FFAA40"/>
<path d="M40.8564 79.0383C40.8564 79.0383 50.3147 66.6864 55.4772 67.6436C55.4772 67.6436 49.7415 78.6555 40.8564 80.293V79.0383Z" fill="#FFAA40"/>
<path d="M45.6259 63.8078C45.6259 63.8078 53.9854 54.3412 58.503 54.3617C58.503 54.3617 51.9041 67.0111 45.2812 66.8949L45.6259 63.8078Z" fill="#FFAA40"/>
<path d="M48.4509 53.6677L56.5272 33.9483C56.5272 33.9483 56.9299 51.7737 47.4238 57.3258L48.4509 53.6677Z" fill="#FFAA40"/>
<path d="M51.7304 31.921C51.7304 31.921 53.0679 15.4528 52.2081 14.1126C52.2081 14.1126 57.9813 27.8048 51.6758 39.1961L51.7304 31.921Z" fill="#FFAA40"/>
<path d="M24.2051 203.211C24.2051 203.211 15.8319 198.011 10.4102 210.732C10.4102 210.732 17.8621 215.69 25.1912 206.456L24.2051 203.211Z" fill="#FFAA40"/>
<path d="M20.5234 189.02C20.5234 189.02 10.2531 184.326 5.27148 197.608C5.27148 197.608 13.2045 203.078 21.4583 192.377L20.5234 189.02Z" fill="#FFAA40"/>
<path d="M18.9779 177.129C18.9779 177.129 11.6215 168.511 0.552734 177.129C0.552734 177.129 7.527 184.692 18.9779 179.331V177.129Z" fill="#FFAA40"/>
<path d="M18.0567 163.509C18.0567 163.509 10.6047 154.511 0 163.03C0 163.03 8.40734 170.976 18.0567 165.615V163.509Z" fill="#FFAA40"/>
<path d="M18.9781 152.446C18.9781 152.446 13.7509 139.472 2.38867 145.051C2.38867 145.051 8.53039 156.555 18.5141 154.6L18.9781 152.446Z" fill="#FFAA40"/>
<path d="M21.4516 138.747C21.4516 138.747 16.255 125.547 4.73242 131.667C4.73242 131.667 11.7886 143.766 20.9397 140.785L21.4516 138.747Z" fill="#FFAA40"/>
<path d="M24.6723 126.983C24.6723 126.983 22.6251 112.511 13.0713 111.216C13.0713 111.216 15.0981 126.477 23.386 129.592L24.6723 126.983Z" fill="#FFAA40"/>
<path d="M27.2452 115.67C27.2452 115.67 26.4468 98.2347 18.5479 97.6262C18.5479 97.6262 18.814 110.86 26.3547 118.139L27.2452 115.67Z" fill="#FFAA40"/>
<path d="M32.7866 102.077C32.7866 102.077 30.4323 87.5784 22.8916 85.8075C22.8916 85.8075 23.8265 99.8484 32.0394 105.636L32.7866 102.077Z" fill="#FFAA40"/>
<path d="M37.3553 90.4536C37.3553 90.4536 37.2769 75.3495 32.6706 73.1307C32.6706 73.1307 29.8147 86.8058 36.0212 92.3818L37.3553 90.4536Z" fill="#FFAA40"/>
<path d="M41.208 78.8674C41.208 78.8674 40.5631 63.3155 35.793 61.124C35.793 61.124 34.162 73.4316 40.4948 79.8862L41.208 78.8674Z" fill="#FFAA40"/>
<path d="M46.2919 65.0488C46.2919 65.0488 46.2646 52.3994 42.8593 49.4319C42.8593 49.4319 39.4746 63.2881 44.5142 67.5924L46.2919 65.0488Z" fill="#FFAA40"/>
<path d="M48.0517 53.0455L44.7386 31.9928C44.7386 31.9928 40.238 49.2438 48.2086 56.8472L48.0517 53.0455Z" fill="#FFAA40"/>
<path d="M48.6967 32.1193C48.6967 32.1193 40.1939 17.9656 40.3679 16.393C40.3679 16.393 41.2721 31.227 51.9689 38.6149L48.6967 32.1193Z" fill="#FFAA40"/>
<path d="M49.6937 27.9381C49.6937 27.9381 41.6685 7.8358 38.0381 6.20847C38.0381 6.20847 49.5026 12.0477 50.3625 27.3638L49.6937 27.9381Z" fill="#FFAA40"/>
<path d="M45.2408 67.0146L44.6914 66.847C51.4644 44.7174 53.1533 30.6082 49.4512 27.0698L49.8436 26.6527C53.7709 30.386 52.1775 44.3413 45.2408 67.0146Z" fill="#444053"/>
<path d="M26.5904 118.829L25.7783 118.539C26.4983 116.511 27.2728 114.453 28.0849 112.426C35.1547 94.7715 41.1736 78.3478 45.0326 65.7394L45.7389 65.3975C41.873 78.0298 35.9599 95.0826 28.8833 112.761C28.0746 114.751 27.3035 116.799 26.5904 118.829Z" fill="#444053"/>
<path d="M43.6778 240.633C43.5686 240.513 32.592 228.127 24.9387 206.982C20.4544 194.603 17.9587 181.588 17.5448 168.425C17.0193 151.971 20.4655 133.598 26.3684 116.908L27.0098 117.66C13.7574 155.119 19.0222 187.218 26.0067 206.548C33.5781 227.501 44.4319 239.751 44.5376 239.874L43.6778 240.633Z" fill="#444053"/>
<path d="M215.209 214.336C215.209 214.336 207.474 223.796 213.616 238.096L151.858 264.933L145.931 266.178L143.201 254.212L145.027 239.112V230.859L215.209 214.336Z" fill="#D5D6DB"/>
<path d="M20.1855 208.223L105.665 192.61L218.928 210.688L148.578 236.065L20.1855 208.223Z" fill="#FFAA40"/>
<path d="M20.1855 208.223L105.665 192.61L218.928 210.688L148.578 236.065L20.1855 208.223Z" fill="#FFAA40"/>
<path d="M20.1857 208.22C20.1857 208.22 12.1912 223.396 21.4038 237.412L148.162 264.934C148.162 264.934 140.294 252.845 148.568 236.065L20.1857 208.22Z" fill="#FFAA40"/>
<path opacity="0.1" d="M20.1857 208.22C20.1857 208.22 12.1912 223.396 21.4038 237.412L148.162 264.934C148.162 264.934 140.294 252.845 148.568 236.065L20.1857 208.22Z" fill="black"/>
<path opacity="0.1" d="M23.9632 213.481C23.9632 213.481 19.3944 224.585 23.9632 231.771V213.481Z" fill="black"/>
<path d="M148.163 264.933L218.929 234.677C218.929 234.677 222.887 235.532 220.328 238.438C217.769 241.344 149.527 267.839 149.527 267.839L21.4043 237.412L148.163 264.933Z" fill="#FFAA40"/>
<path opacity="0.1" d="M148.163 264.933L218.929 234.677C218.929 234.677 222.887 235.532 220.328 238.438C217.769 241.344 149.527 267.839 149.527 267.839L21.4043 237.412L148.163 264.933Z" fill="black"/>
<path opacity="0.1" d="M142.362 239.122C142.362 239.122 135.538 247.327 142.362 259.634V239.122Z" fill="black"/>
<path opacity="0.1" d="M175.4 238.983L144.791 249.215L144.899 249.539L175.508 239.307L175.4 238.983Z" fill="black"/>
<path opacity="0.1" d="M181.531 237.965L144.781 251.967L144.903 252.286L181.652 238.284L181.531 237.965Z" fill="black"/>
<path opacity="0.1" d="M187.162 237.916L144.986 255.213L145.116 255.529L187.291 238.232L187.162 237.916Z" fill="black"/>
<path opacity="0.1" d="M193.284 236.435L145.479 258.072L145.619 258.384L193.425 236.746L193.284 236.435Z" fill="black"/>
<path opacity="0.1" d="M198.428 236.442L145.856 259.466L145.993 259.779L198.564 236.755L198.428 236.442Z" fill="black"/>
<path opacity="0.1" d="M209.679 234.527L146.649 261.804L146.785 262.118L209.815 234.841L209.679 234.527Z" fill="black"/>
<path opacity="0.3" d="M51.9424 209.891L111.995 197.242L148.579 204.251L99.3701 220.148L51.9424 209.891Z" fill="white"/>
<path d="M218.929 210.688C218.929 210.688 222.034 211.943 220.212 213.881C218.39 215.82 148.568 236.065 148.568 236.065L218.929 210.688Z" fill="#FFAA40"/>
<path d="M249.088 181.454C249.088 181.454 241.356 190.91 247.498 205.215L185.739 232.052L179.813 233.303L177.083 221.337L178.936 206.24V197.977L249.088 181.454Z" fill="#D5D6DB"/>
<path d="M54.0674 175.338L139.543 159.728L252.81 177.806L182.46 203.184L54.0674 175.338Z" fill="#3A3768"/>
<path d="M54.0543 175.338C54.0543 175.338 46.0564 190.514 55.269 204.531L182.027 232.052C182.027 232.052 174.163 219.953 182.447 203.18L54.0543 175.338Z" fill="#3A3768"/>
<path opacity="0.1" d="M54.0543 175.338C54.0543 175.338 46.0564 190.514 55.269 204.531L182.027 232.052C182.027 232.052 174.163 219.953 182.447 203.18L142.362 194.487L54.0543 175.338Z" fill="black"/>
<path opacity="0.1" d="M57.8415 180.599C57.8415 180.599 53.2762 191.7 57.8415 198.89V180.599Z" fill="black"/>
<path d="M182.041 232.052L252.81 201.796C252.81 201.796 256.765 202.65 254.206 205.556C251.647 208.462 183.405 234.958 183.405 234.958L55.2822 204.531L182.041 232.052Z" fill="#3A3768"/>
<path opacity="0.1" d="M182.041 232.052L252.81 201.796C252.81 201.796 256.765 202.65 254.206 205.556C251.647 208.462 183.405 234.958 183.405 234.958L55.2822 204.531L182.041 232.052Z" fill="black"/>
<path opacity="0.1" d="M176.24 206.24C176.24 206.24 169.416 214.445 176.24 226.753V206.24Z" fill="black"/>
<path opacity="0.1" d="M209.281 206.105L178.672 216.337L178.78 216.661L209.389 206.429L209.281 206.105Z" fill="black"/>
<path opacity="0.1" d="M215.416 205.085L178.666 219.087L178.787 219.407L215.537 205.405L215.416 205.085Z" fill="black"/>
<path opacity="0.1" d="M221.042 205.031L178.866 222.328L178.995 222.645L221.171 205.348L221.042 205.031Z" fill="black"/>
<path opacity="0.1" d="M227.168 203.551L179.362 225.189L179.503 225.5L227.309 203.863L227.168 203.551Z" fill="black"/>
<path opacity="0.1" d="M232.308 203.554L179.736 226.578L179.873 226.891L232.444 203.867L232.308 203.554Z" fill="black"/>
<path opacity="0.1" d="M243.561 201.639L180.531 228.916L180.667 229.23L243.696 201.953L243.561 201.639Z" fill="black"/>
<path opacity="0.45" d="M85.8232 177.01L145.876 164.36L182.46 171.369L133.251 187.266L85.8232 177.01Z" fill="white"/>
<path d="M252.81 177.806C252.81 177.806 255.912 179.061 254.093 180.996C252.274 182.931 182.46 203.18 182.46 203.18L252.81 177.806Z" fill="#3A3768"/>
<path d="M252.295 143.838C252.295 143.838 244.56 160.819 250.702 175.119L188.944 194.435L183.03 195.69L180.301 183.724L182.126 168.624V160.36L252.295 143.838Z" fill="#D5D6DB"/>
<path d="M57.2852 137.725L142.764 122.111L256.031 140.19L185.678 165.567L57.2852 137.725Z" fill="#FFAA40"/>
<path d="M57.2851 137.721C57.2851 137.721 49.2769 152.897 58.4895 166.914L185.248 194.435C185.248 194.435 177.38 182.336 185.664 165.567L57.2851 137.721Z" fill="#FFAA40"/>
<path opacity="0.1" d="M57.2851 137.721C57.2851 137.721 49.2769 152.897 58.4895 166.914L185.248 194.435C185.248 194.435 177.38 182.336 185.664 165.567L57.2851 137.721Z" fill="black"/>
<path opacity="0.1" d="M61.0628 142.983C61.0628 142.983 56.494 154.087 61.0628 161.273V142.983Z" fill="black"/>
<path d="M185.261 194.435L256.028 171.7C256.028 171.7 259.986 172.555 257.427 175.461C254.867 178.367 186.626 197.341 186.626 197.341L58.5029 166.914L185.261 194.435Z" fill="#FFAA40"/>
<path opacity="0.1" d="M185.261 194.435L256.028 171.7C256.028 171.7 259.986 172.555 257.427 175.461C254.867 178.367 186.626 197.341 186.626 197.341L58.5029 166.914L185.261 194.435Z" fill="black"/>
<path opacity="0.1" d="M179.461 168.624C179.461 168.624 172.636 176.829 179.461 189.136V168.624Z" fill="black"/>
<path opacity="0.1" d="M212.503 168.488L181.894 178.72L182.002 179.044L212.611 168.812L212.503 168.488Z" fill="black"/>
<path opacity="0.1" d="M218.636 167.47L181.886 181.472L182.007 181.791L218.757 167.789L218.636 167.47Z" fill="black"/>
<path opacity="0.1" d="M224.258 167.418L182.083 184.714L182.212 185.031L224.388 167.734L224.258 167.418Z" fill="black"/>
<path opacity="0.1" d="M230.39 165.934L182.584 187.572L182.724 187.883L230.53 166.246L230.39 165.934Z" fill="black"/>
<path opacity="0.1" d="M235.53 165.94L182.959 188.964L183.096 189.277L235.667 166.253L235.53 165.94Z" fill="black"/>
<path opacity="0.1" d="M246.783 164.028L183.753 191.304L183.888 191.618L246.918 164.342L246.783 164.028Z" fill="black"/>
<path opacity="0.3" d="M89.041 139.393L149.093 126.744L185.678 133.752L136.469 149.649L89.041 139.393Z" fill="white"/>
<path d="M256.028 140.19C256.028 140.19 259.133 141.444 257.311 143.383C255.489 145.321 185.678 165.567 185.678 165.567L256.028 140.19Z" fill="#FFAA40"/>
<path d="M105.918 36.4098C105.918 36.4098 92.9519 35.6269 94.4669 44.7413C94.4669 44.7413 94.1632 46.3516 95.6202 47.0832C95.6202 47.0832 95.644 46.3994 96.9509 46.6353C97.4172 46.7156 97.8916 46.7385 98.3634 46.7037C98.9996 46.6601 99.6043 46.4105 100.087 45.9926C100.087 45.9926 103.734 44.4815 105.153 38.5055C105.153 38.5055 106.204 37.203 106.177 36.8679L103.98 37.8047C103.98 37.8047 104.727 39.3875 104.14 40.7038C104.14 40.7038 104.068 37.8628 103.645 37.9277C103.56 37.9277 102.509 38.4782 102.509 38.4782C102.509 38.4782 103.795 41.2371 102.823 43.2405C102.823 43.2405 103.192 39.8422 102.106 38.6764L100.564 39.579C100.564 39.579 102.069 42.4268 101.049 44.7516C101.049 44.7516 101.311 41.1858 100.24 39.7978L98.8411 40.8918C98.8411 40.8918 100.257 43.6986 99.3939 45.6268C99.3939 45.6268 99.2813 41.4764 98.5409 41.1619C98.5409 41.1619 97.3159 42.2422 97.1317 42.6866C97.1317 42.6866 98.1007 44.7379 97.4968 45.8011C97.4968 45.8011 97.1317 43.0354 96.8144 43.0217C96.8144 43.0217 95.5963 44.8541 95.47 46.0986C95.529 44.9384 95.8902 43.814 96.5175 42.8371C95.8155 42.9702 95.1678 43.3065 94.6545 43.8046C94.6545 43.8046 94.8422 42.5089 96.8212 42.3961C96.8212 42.3961 97.8278 41.0046 98.0973 40.9226C98.0973 40.9226 96.1286 40.755 94.9377 41.285C94.9377 41.285 95.9887 40.0645 98.4556 40.6012L99.8204 39.473C99.8204 39.473 97.2341 39.1311 96.1354 39.5106C96.1354 39.5106 97.4013 38.4303 100.192 39.2166L101.697 38.3175C101.697 38.3175 99.4894 37.8423 98.1758 38.0132C98.1758 38.0132 99.5611 37.2645 102.137 38.0747L103.209 37.5927C103.209 37.5927 101.595 37.2748 101.12 37.2235C100.646 37.1722 100.622 37.0423 100.622 37.0423C101.647 36.8737 102.698 36.992 103.659 37.3842C103.659 37.3842 105.962 36.5534 105.918 36.4098Z" fill="#FFAA40"/>
<path opacity="0.1" d="M288.327 73.8726C288.327 73.8726 275.361 73.0897 276.876 82.2041C276.876 82.2041 276.572 83.8144 278.029 84.546C278.029 84.546 278.053 83.8622 279.36 84.0981C279.827 84.1765 280.301 84.1995 280.773 84.1665C281.403 84.12 282.001 83.8705 282.479 83.4554C282.479 83.4554 286.13 81.9443 287.546 75.9683C287.546 75.9683 288.597 74.6658 288.569 74.3307L286.379 75.2675C286.379 75.2675 287.126 76.8503 286.539 78.1666C286.539 78.1666 286.467 75.3256 286.048 75.3905C285.962 75.3905 284.908 75.9409 284.908 75.9409C284.908 75.9409 286.194 78.6999 285.225 80.7033C285.225 80.7033 285.594 77.305 284.505 76.1392L282.963 77.0418C282.963 77.0418 284.468 79.8896 283.448 82.2144C283.448 82.2144 283.71 78.6486 282.639 77.2606L281.244 78.3546C281.244 78.3546 282.656 81.1614 281.793 83.0896C281.793 83.0896 281.68 78.9392 280.94 78.6247C280.94 78.6247 279.718 79.705 279.531 80.1494C279.531 80.1494 280.5 82.2007 279.899 83.2639C279.899 83.2639 279.531 80.4982 279.217 80.4845C279.217 80.4845 277.999 82.3169 277.872 83.5614C277.931 82.4007 278.294 81.276 278.923 80.2999C278.22 80.4333 277.572 80.7696 277.057 81.2674C277.057 81.2674 277.248 79.9717 279.224 79.8589C279.224 79.8589 280.23 78.4674 280.5 78.3819C280.5 78.3819 278.534 78.2179 277.34 78.7478C277.34 78.7478 278.391 77.5273 280.858 78.064L282.223 76.9358C282.223 76.9358 279.633 76.5939 278.538 76.9734C278.538 76.9734 279.8 75.8931 282.595 76.6794L284.096 75.7803C284.096 75.7803 281.888 75.3051 280.575 75.476C280.575 75.476 281.96 74.7273 284.536 75.5375L285.611 75.0555C285.611 75.0555 283.994 74.7375 283.519 74.6863C283.045 74.635 283.021 74.5051 283.021 74.5051C284.045 74.3343 285.097 74.4527 286.058 74.847C286.058 74.847 288.368 74.0162 288.327 73.8726Z" fill="#FFAA40"/>
<path opacity="0.1" d="M127.755 92.7168C127.755 92.7168 122.104 80.9802 114.912 86.7648C114.912 86.7648 113.359 87.2844 113.434 88.9152C113.434 88.9152 114.031 88.604 114.458 89.8622C114.617 90.3069 114.828 90.7314 115.086 91.1271C115.435 91.6634 115.949 92.0714 116.549 92.2895C116.549 92.2895 119.644 94.7441 125.544 93.069C125.544 93.069 127.192 93.3527 127.461 93.1544L125.578 91.6946C125.578 91.6946 124.554 93.1202 123.128 93.2467C123.128 93.2467 125.571 91.8006 125.308 91.4656C125.254 91.3972 124.285 90.7374 124.285 90.7374C124.285 90.7374 122.507 93.2091 120.289 93.3356C120.289 93.3356 123.428 92.0023 123.913 90.4809L122.377 89.5716C122.377 89.5716 120.627 92.2792 118.105 92.5185C118.105 92.5185 121.34 91.0109 122.026 89.3972L120.395 88.7135C120.395 88.7135 118.638 91.3185 116.536 91.5066C116.536 91.5066 120.098 89.3835 120.009 88.5801C120.009 88.5801 118.47 88.04 117.993 88.0912C117.993 88.0912 116.689 89.934 115.461 89.934C115.461 89.934 117.689 88.2622 117.553 87.9921C117.553 87.9921 115.362 87.8212 114.209 88.334C115.248 87.8164 116.404 87.5807 117.563 87.6502C117.103 87.1011 116.494 86.6983 115.809 86.4913C115.809 86.4913 117.031 86.0263 118.092 87.6981C118.092 87.6981 119.798 87.8998 119.999 88.0947C119.999 88.0947 119.184 86.2964 118.143 85.5135C118.143 85.5135 119.719 85.8314 120.439 88.2485L122.094 88.9049C122.094 88.9049 121.142 86.4707 120.265 85.7015C120.265 85.7015 121.821 86.2793 122.5 89.1203L124.015 89.9955C124.015 89.9955 123.357 87.8314 122.565 86.7682C122.565 86.7682 123.892 87.616 124.442 90.2622L125.387 90.9664C125.387 90.9664 124.875 89.3972 124.704 88.9596C124.534 88.522 124.619 88.4331 124.619 88.4331C125.268 89.2448 125.679 90.2213 125.806 91.2536C125.806 91.2536 127.632 92.8194 127.755 92.7168Z" fill="#FFAA40"/>
<path opacity="0.1" d="M258.703 57.2916C258.703 57.2916 253.056 45.555 245.86 51.3395C245.86 51.3395 244.311 51.8592 244.382 53.4899C244.382 53.4899 244.983 53.1823 245.406 54.4369C245.565 54.8835 245.777 55.3093 246.037 55.7053C246.385 56.2406 246.898 56.6476 247.498 56.8643C247.498 56.8643 250.596 59.3189 256.492 57.6472C256.492 57.6472 258.14 57.9275 258.413 57.7292L256.54 56.266C256.54 56.266 255.516 57.695 254.093 57.8215C254.093 57.8215 256.533 56.372 256.27 56.0369C256.215 55.9685 255.246 55.3087 255.246 55.3087C255.246 55.3087 253.472 57.7805 251.251 57.907C251.251 57.907 254.393 56.5737 254.878 55.0557L253.319 54.1532C253.319 54.1532 251.572 56.8574 249.047 57.1002C249.047 57.1002 252.281 55.5891 252.97 53.9754L251.336 53.2917C251.336 53.2917 249.579 55.9002 247.48 56.0848C247.48 56.0848 251.039 53.9617 250.951 53.1617C250.951 53.1617 249.415 52.6182 248.937 52.6729C248.937 52.6729 247.634 54.5121 246.402 54.5121C246.402 54.5121 248.634 52.8404 248.497 52.5703C248.497 52.5703 246.307 52.3994 245.15 52.9122C246.189 52.3945 247.346 52.1587 248.504 52.2284C248.046 51.679 247.438 51.276 246.754 51.0695C246.754 51.0695 247.975 50.6045 249.036 52.2763C249.036 52.2763 250.742 52.4814 250.944 52.6763C250.944 52.6763 250.128 50.8746 249.084 50.0917C249.084 50.0917 250.661 50.4131 251.38 52.8438L253.039 53.5002C253.039 53.5002 252.087 51.0626 251.21 50.2934C251.21 50.2934 252.766 50.8712 253.441 53.7122L254.96 54.5874C254.96 54.5874 254.298 52.4267 253.506 51.3601C253.506 51.3601 254.837 52.2079 255.383 54.854L256.328 55.5583C256.328 55.5583 255.82 53.9891 255.646 53.5515C255.472 53.1139 255.56 53.0284 255.56 53.0284C256.208 53.8409 256.617 54.8172 256.744 55.8489C256.744 55.8489 258.597 57.401 258.703 57.2916Z" fill="#FFAA40"/>
<path opacity="0.1" d="M276.749 115.346C276.749 115.346 271.102 103.606 263.896 109.39C263.896 109.39 262.347 109.91 262.418 111.541C262.418 111.541 263.019 111.233 263.442 112.488C263.6 112.934 263.811 113.36 264.07 113.756C264.418 114.291 264.93 114.698 265.53 114.915C265.53 114.915 268.628 117.373 274.528 115.698C274.528 115.698 276.173 115.981 276.445 115.78L274.562 114.32C274.562 114.32 273.538 115.749 272.112 115.876C272.112 115.876 274.552 114.426 274.289 114.091C274.234 114.023 273.265 113.363 273.265 113.363C273.265 113.363 271.491 115.834 269.27 115.964C269.27 115.964 272.412 114.628 272.897 113.11L271.358 112.2C271.358 112.2 269.611 114.908 267.086 115.147C267.086 115.147 270.321 113.636 271.01 112.023L269.376 111.339C269.376 111.339 267.618 113.944 265.52 114.132C265.52 114.132 269.082 112.009 268.994 111.205C268.994 111.205 267.455 110.662 266.977 110.717C266.977 110.717 265.674 112.556 264.442 112.556C264.442 112.556 266.673 110.884 266.537 110.614C266.537 110.614 264.346 110.443 263.19 110.956C264.23 110.439 265.388 110.203 266.547 110.272C266.089 109.722 265.479 109.319 264.793 109.113C264.793 109.113 266.015 108.645 267.076 110.32C267.076 110.32 268.782 110.522 268.983 110.717C268.983 110.717 268.168 108.918 267.127 108.132C267.127 108.132 268.703 108.453 269.423 110.884L271.078 111.541C271.078 111.541 270.126 109.103 269.249 108.337C269.249 108.337 270.805 108.911 271.481 111.756L272.999 112.628C272.999 112.628 272.337 110.467 271.546 109.4C271.546 109.4 272.876 110.248 273.426 112.898L274.371 113.582C274.371 113.582 273.859 112.012 273.689 111.575C273.518 111.137 273.603 111.052 273.603 111.052C274.252 111.863 274.662 112.84 274.787 113.872C274.787 113.872 276.643 115.448 276.749 115.346Z" fill="#FFAA40"/>
<path opacity="0.1" d="M68.9068 268.086C73.2391 268.086 76.7512 267.692 76.7512 267.207C76.7512 266.722 73.2391 266.328 68.9068 266.328C64.5745 266.328 61.0625 266.722 61.0625 267.207C61.0625 267.692 64.5745 268.086 68.9068 268.086Z" fill="#FFAA40"/>
<path opacity="0.1" d="M17.484 253.152C21.8163 253.152 25.3283 252.759 25.3283 252.274C25.3283 251.789 21.8163 251.395 17.484 251.395C13.1517 251.395 9.63965 251.789 9.63965 252.274C9.63965 252.759 13.1517 253.152 17.484 253.152Z" fill="#FFAA40"/>
<path opacity="0.1" d="M108.105 278.003C112.437 278.003 115.949 277.61 115.949 277.125C115.949 276.64 112.437 276.246 108.105 276.246C103.773 276.246 100.261 276.64 100.261 277.125C100.261 277.61 103.773 278.003 108.105 278.003Z" fill="#FFAA40"/>
<path opacity="0.1" d="M308.973 256.4C313.306 256.4 316.818 256.007 316.818 255.522C316.818 255.036 313.306 254.643 308.973 254.643C304.641 254.643 301.129 255.036 301.129 255.522C301.129 256.007 304.641 256.4 308.973 256.4Z" fill="#FFAA40"/>
<path opacity="0.1" d="M243.697 252.137C248.029 252.137 251.541 251.744 251.541 251.258C251.541 250.773 248.029 250.38 243.697 250.38C239.365 250.38 235.853 250.773 235.853 251.258C235.853 251.744 239.365 252.137 243.697 252.137Z" fill="#FFAA40"/>
<path opacity="0.1" d="M201.469 272.93C206.593 272.93 210.746 272.215 210.746 271.333C210.746 270.452 206.593 269.737 201.469 269.737C196.345 269.737 192.191 270.452 192.191 271.333C192.191 272.215 196.345 272.93 201.469 272.93Z" fill="#FFAA40"/>
<path d="M205.608 255.286C205.608 255.286 192.69 261.973 199.364 269.85C199.364 269.85 199.992 271.559 201.807 271.439C201.807 271.439 201.445 270.776 202.83 270.246C203.323 270.055 203.792 269.806 204.226 269.504C204.813 269.098 205.251 268.511 205.475 267.833C205.475 267.833 208.116 264.291 206.068 257.737C206.068 257.737 206.335 255.884 206.103 255.583L204.533 257.74C204.533 257.74 206.154 258.831 206.341 260.434C206.341 260.434 204.635 257.744 204.294 258.041C204.219 258.103 203.516 259.221 203.516 259.221C203.516 259.221 206.328 261.132 206.536 263.614C206.536 263.614 204.953 260.137 203.243 259.641L202.264 261.392C202.264 261.392 205.335 263.265 205.676 266.082C205.676 266.082 203.892 262.51 202.069 261.788L201.35 263.638C201.35 263.638 204.311 265.525 204.584 267.87C204.584 267.87 202.107 263.949 201.216 264.072C201.216 264.072 200.657 265.809 200.732 266.345C200.732 266.345 202.824 267.747 202.861 269.125C202.861 269.125 200.93 266.681 200.633 266.841C200.633 266.841 200.51 269.299 201.104 270.578C201.104 270.578 200.08 268.752 200.247 266.841C199.649 267.371 199.219 268.065 199.009 268.838C199.009 268.838 198.453 267.487 200.285 266.243C200.285 266.243 200.459 264.332 200.671 264.096C200.671 264.096 198.688 265.067 197.845 266.257C197.845 266.257 198.156 264.482 200.845 263.6L201.527 261.727C201.527 261.727 198.838 262.869 198.009 263.874C198.009 263.874 198.606 262.113 201.739 261.269L202.667 259.559C202.667 259.559 200.278 260.366 199.111 261.269C199.111 261.269 200.015 259.754 202.953 259.057L203.707 257.98C203.707 257.98 201.974 258.599 201.489 258.821C201.005 259.043 200.909 258.934 200.909 258.934C201.795 258.183 202.871 257.693 204.018 257.518C204.018 257.518 205.727 255.402 205.608 255.286Z" fill="#FFAA40"/>
<path d="M243.949 128.986C241.717 122.911 229.434 122.34 224.104 123.889C220.317 124.993 212.332 126.238 208.067 126.863L207.791 126.6C208.344 126.436 208.357 126.033 208.289 125.434C208.249 124.646 208.261 123.856 208.323 123.069C210.937 123.882 213.264 121.957 213.264 121.957C216.335 120.59 215.509 114.737 216.096 113.137C216.536 111.94 217.01 104.891 217.222 101.377H217.266L217.29 100.197C217.321 99.6877 217.335 99.3902 217.335 99.3902C217.335 99.3902 217.635 90.7955 218.222 89.0553C218.768 87.4553 219.211 79.3939 219.279 78.1153C219.279 78.0059 219.279 77.9478 219.279 77.9478L219.235 77.2025C219.266 76.6589 219.279 76.0538 219.276 75.4179C219.276 72.4948 218.972 68.8128 218.935 68.218C218.935 68.1325 218.935 68.0299 218.935 67.9069C218.959 66.659 218.802 60.4095 213.496 58.0471C211.541 57.1719 209.19 56.1292 206.914 55.1139C206.327 50.037 204.986 44.9875 205.102 39.873C205.102 39.1038 205.17 38.3346 205.246 37.5688C205.246 37.791 205.222 38.0166 205.218 38.2525C205.218 38.7482 205.218 39.2474 205.218 39.7431C205.42 33.3466 207.832 26.9159 207.607 20.6562C207.586 21.2681 207.542 21.8835 207.484 22.4989C207.602 20.3816 207.381 18.259 206.829 16.2118C206.624 15.4904 206.348 14.7451 205.757 14.2631C205.199 13.8748 204.56 13.621 203.888 13.5212C202.273 13.1071 200.633 12.801 198.978 12.605C198.726 11.8336 198.353 11.1076 197.872 10.4546C194.412 5.69566 189.287 1.22392 183.227 0.19829C180.187 -0.314524 176.69 0.112821 174.622 2.29057C174.406 2.48188 174.203 2.68747 174.015 2.90595C172.903 4.23585 172.425 5.98284 171.285 7.30931C171.21 7.3982 171.125 7.48025 171.043 7.56572C168.811 9.5657 165.335 9.98279 162.854 11.7776C162.417 12.0998 162.007 12.4578 161.629 12.8477C160.63 13.8401 159.733 14.9318 158.954 16.1058C157.838 17.6784 156.692 19.316 156.337 21.1929C155.624 24.9535 158.179 28.5193 158.654 32.3039C159.711 40.7721 150.359 48.2866 152.13 56.642C152.602 58.6947 153.646 60.5712 155.139 62.0539C151.492 65.3633 148.387 68.5735 148.387 68.5735V68.765H147.81L147.868 69.4487H147.81L148.128 73.1581L147.81 78.5597C147.81 78.5597 147.81 78.6178 147.81 78.7272V78.7546V78.9016C147.81 78.9016 147.81 78.9597 147.81 79.0691H147.831C147.936 81.0486 148.356 88.1664 148.854 89.6673C149.441 91.4074 149.738 100.002 149.738 100.002C149.738 100.002 150.386 112.149 150.98 113.756C151.574 115.363 150.731 121.198 153.812 122.576C154.713 123.269 155.781 123.712 156.907 123.862C156.75 125.14 156.849 126.067 157.357 126.357C157.575 126.486 157.821 126.556 158.074 126.563C157.865 126.873 157.679 127.199 157.518 127.537C156.295 127.409 155.093 127.125 153.942 126.692C150.632 125.325 139.649 122.248 136.458 124.412C133.268 126.576 125.591 128.539 129.136 137.25C132.681 145.961 134.332 146.179 134.332 146.179C135.424 146.973 136.381 147.937 137.168 149.034C138.232 150.637 148.151 154.306 150.632 154.306C151.686 154.29 152.741 154.342 153.788 154.463C153.788 154.463 151.096 156.829 151.454 158.203C151.813 159.578 150.635 170.579 150.635 170.579C150.635 170.579 153.365 173.335 154.532 169.721L154.573 169.776C154.791 170.073 155.972 171.417 158.193 169.721C159.102 169.03 160.068 168.417 161.08 167.889L171.835 166.364C172.956 166.294 174.08 166.286 175.202 166.34C176.908 166.48 178.584 165.468 179.638 164.685C181.866 165.533 184.371 166.459 185.561 166.798C187.977 167.482 199.08 170.466 201.677 169.533C202.216 169.318 202.696 168.975 203.075 168.535L205.553 168.613L204.393 168.846C204.393 168.846 206.651 168.883 209.722 168.924L209.593 169L213.445 168.965C219.082 169.017 225.414 169.034 226.247 168.846C227.55 168.555 234.323 168.76 236.319 168.846H236.875C236.875 168.846 244.317 167.359 241.246 159.793C238.885 153.981 231.628 152.292 228.407 151.827C229.314 151.646 230.096 151.506 230.614 151.424C232.863 151.082 237.23 149.031 237.585 148.33C237.94 147.629 241.601 145.595 242.546 144.436C243.491 143.277 246.19 135.062 243.949 128.986ZM182.31 145.988L181.945 146.108L181.699 146.19L181.228 146.655C180.853 146.402 180.45 146.135 180.03 145.861C180.771 145.906 181.532 145.95 182.31 145.988Z" fill="url(#paint0_linear)"/>
<path d="M204.065 109.941C204.065 109.941 209.286 123.616 212.254 122.248C215.223 120.881 214.418 115.069 214.984 113.476C215.55 111.882 216.178 99.8005 216.178 99.8005C216.178 99.8005 216.465 91.2536 217.031 89.5237C217.557 87.934 217.983 79.917 218.055 78.6554C218.055 78.546 218.055 78.4879 218.055 78.4879L217.492 68.5735L214.305 67.7769L206.914 70.512L205.891 76.3683L205.492 78.6554L205.321 79.6298L204.065 109.941Z" fill="#BE6F72"/>
<path opacity="0.1" d="M205.785 107.65C205.785 107.65 210.767 111.735 212.268 112.094C213.769 112.453 214.691 115.64 214.691 115.64" fill="black"/>
<path d="M163.241 110.539C163.241 110.539 158.02 124.214 155.052 122.846C152.083 121.479 152.888 115.667 152.322 114.074C151.755 112.481 151.128 100.399 151.128 100.399C151.128 100.399 150.841 91.8519 150.275 90.122C149.749 88.5322 149.323 80.5152 149.251 79.2537C149.251 79.1443 149.251 79.0862 149.251 79.0862L149.817 69.1718L153.004 68.3752L160.395 71.1102L161.418 76.9666L161.818 79.2537L161.988 80.2281L163.241 110.539Z" fill="#BE6F72"/>
<path d="M197.234 37.3568H185.582V55.5549H197.234V37.3568Z" fill="#3E373A"/>
<path opacity="0.1" d="M197.234 37.3568H185.582V55.5549H197.234V37.3568Z" fill="black"/>
<path d="M161.194 124.159C161.194 124.159 157.212 128.545 158.689 129.342C160.166 130.139 169.724 145.068 169.724 145.068C169.724 145.068 201.115 148.942 207.035 143.13C212.955 137.318 212.835 126.935 212.835 126.935C212.835 126.935 208.079 127.961 207.56 127.404C207.041 126.846 204.192 124.159 204.192 124.159C204.192 124.159 163.923 121.711 161.194 124.159Z" fill="#4B4B5B"/>
<path opacity="0.02" d="M161.194 124.159C161.194 124.159 157.212 128.545 158.689 129.342C160.166 130.139 169.724 145.068 169.724 145.068C169.724 145.068 201.115 148.942 207.035 143.13C212.955 137.318 212.835 126.935 212.835 126.935C212.835 126.935 208.079 127.961 207.56 127.404C207.041 126.846 204.192 124.159 204.192 124.159C204.192 124.159 163.923 121.711 161.194 124.159Z" fill="black"/>
<path d="M217.704 68.7171L207.468 76.9221L204.373 77.1478L203.237 77.2298L184.153 78.6315L164.363 77.182L161.418 76.9666L157.665 76.6931L149.817 69.1718C149.817 69.1718 155.372 63.2095 160.238 59.1856C162.155 57.5959 163.967 56.3104 165.288 55.8044L165.513 55.7258C166.343 55.4013 167.085 54.8833 167.676 54.2147C171.518 50.2455 175.07 40.4508 175.07 40.4508C175.07 40.4508 192.018 31.6782 189.971 43.1858C187.923 54.6933 197.59 51.8489 197.59 51.8489L200.777 53.3053L202.036 53.8831L205.246 55.3566L212.49 58.6865C218.175 61.3086 217.704 68.7171 217.704 68.7171Z" fill="#BE6F72"/>
<path opacity="0.1" d="M183.358 49.8216C191.776 49.8216 198.6 42.9843 198.6 34.55C198.6 26.1157 191.776 19.2784 183.358 19.2784C174.94 19.2784 168.116 26.1157 168.116 34.55C168.116 42.9843 174.94 49.8216 183.358 49.8216Z" fill="black"/>
<path opacity="0.1" d="M217.728 79.5956H149.251C149.251 79.4862 149.251 79.4281 149.251 79.4281L149.817 69.5137C149.817 69.5137 155.372 63.5514 160.238 59.5275L203.23 57.8181L205.229 55.7053L212.473 59.0352C218.161 61.654 217.704 69.0624 217.704 69.0624C217.704 69.0624 218.482 77.6469 217.728 79.5956Z" fill="black"/>
<path d="M217.728 79.2537H149.251C149.251 79.1443 149.251 79.0862 149.251 79.0862L149.817 69.1718C149.817 69.1718 155.372 63.2095 160.238 59.1856L203.23 57.4762L205.229 55.3634L212.473 58.6933C218.161 61.3121 217.704 68.7205 217.704 68.7205C217.704 68.7205 218.482 77.305 217.728 79.2537Z" fill="#E7C7CA"/>
<path opacity="0.1" d="M172.381 51.4524C172.381 51.4524 183.184 65.2437 197.573 51.1686C211.961 37.0936 199.166 82.5631 199.166 82.5631L168.116 86.2554L172.381 51.4524Z" fill="black"/>
<path d="M172.381 52.1361C172.381 52.1361 183.184 65.9274 197.573 51.8524C211.961 37.7773 199.166 83.2468 199.166 83.2468L168.116 86.9391L172.381 52.1361Z" fill="#E7C7CA"/>
<path opacity="0.1" d="M202.018 54.5566L203.161 72.023L204.386 77.8349L205.321 82.2793C205.321 82.2793 207.709 116.467 207.027 118.176C206.344 119.886 207.368 121.253 207.511 122.163C207.655 123.072 207.368 125.356 207.48 126.381C207.593 127.407 207.481 127.862 204.867 127.496C202.253 127.13 198.609 126.494 198.609 126.494C198.609 126.494 189.397 127.178 186.213 126.039C183.03 124.901 177.001 124.898 177.001 124.898C177.001 124.898 167.901 125.127 164.946 124.785C161.991 124.443 160.394 128.433 158.463 127.291C156.532 126.149 160.735 115.099 162.1 111.906C163.465 108.713 160.281 100.624 160.281 100.624L164.376 77.8657L165.287 72.7068V56.4882L165.512 56.4096C166.343 56.085 167.084 55.5671 167.675 54.8985L168.699 71.2196L200.772 72.3615V53.9925" fill="black"/>
<path d="M202.018 53.8728L203.161 71.3393L204.386 77.1512L205.321 81.5956C205.321 81.5956 207.709 115.783 207.027 117.493C206.344 119.202 207.368 120.569 207.511 121.479C207.655 122.388 207.368 124.672 207.48 125.698C207.593 126.723 207.481 127.178 204.867 126.812C202.253 126.446 198.609 125.81 198.609 125.81C198.609 125.81 189.397 126.494 186.213 125.356C183.03 124.217 177.001 124.214 177.001 124.214C177.001 124.214 167.901 124.443 164.946 124.101C161.991 123.759 160.394 127.749 158.463 126.607C156.532 125.465 160.735 114.416 162.1 111.223C163.465 108.029 160.281 99.9407 160.281 99.9407L164.376 77.182L165.287 72.023V55.8044L165.512 55.7258C166.343 55.4013 167.084 54.8833 167.675 54.2147L168.699 70.5359L200.772 71.6777V53.3087" fill="#E7C7CA"/>
<path opacity="0.1" d="M205.707 17.422C205.512 16.7075 205.242 15.9656 204.683 15.487C204.149 15.1025 203.531 14.8496 202.881 14.7485C201.325 14.3385 199.743 14.0347 198.145 13.8391C197.917 13.08 197.572 12.3613 197.122 11.7093C193.778 6.97769 188.83 2.5162 183.009 1.50767C179.962 0.977762 176.431 1.45297 174.479 3.85978C173.408 5.18284 172.947 6.93666 171.866 8.23579C169.781 10.7588 166.017 11.0699 163.39 13.0221C161.988 14.0477 160.971 15.5348 159.978 16.9776C158.903 18.5399 157.798 20.1673 157.456 22.0339C156.774 25.7638 159.234 29.3193 159.688 33.0833C160.712 41.5037 151.704 48.9737 153.406 57.2813C154.399 62.1257 158.866 65.5376 163.486 67.2675C165.113 67.8795 166.973 68.488 167.734 70.0538C168.075 70.7376 168.133 71.5273 168.454 72.2179C169.532 74.5221 173.077 74.611 174.981 72.9324C176.885 71.2538 177.485 68.5393 177.71 66.006C178.625 54.9429 174.203 44.0131 174.718 32.9227C174.872 29.5689 175.813 25.7638 178.813 24.2458C182.849 22.1946 187.704 25.6133 192.147 24.9604C194.249 30.0856 194.695 35.742 193.423 41.1345C192.717 44.0849 191.495 46.9464 191.407 49.9891C191.273 54.6215 193.768 58.854 195.924 62.9496C196.387 63.7155 196.696 64.5644 196.835 65.4488C196.869 66.3461 196.702 67.2397 196.347 68.0641C195.129 71.3495 193.027 74.3991 192.788 77.8965C192.718 78.3047 192.81 78.7242 193.044 79.0657C193.285 79.2936 193.595 79.4333 193.925 79.4622C197.61 80.0947 200.797 76.823 202.595 73.5375C204.6 69.9088 205.768 65.8763 206.014 61.736C206.386 54.7754 203.895 47.9276 204.048 40.9602C204.226 33.0389 207.798 25.0629 205.707 17.422Z" fill="black"/>
<path d="M206.047 17.0801C205.853 16.3656 205.583 15.6237 205.024 15.1451C204.489 14.7607 203.872 14.5077 203.222 14.4067C201.666 13.9966 200.083 13.6928 198.486 13.4973C198.258 12.7381 197.913 12.0195 197.462 11.3674C194.119 6.63582 189.171 2.17433 183.35 1.1658C180.303 0.635889 176.772 1.1111 174.82 3.5179C173.749 4.84097 173.288 6.59479 172.206 7.89392C170.122 10.417 166.358 10.7281 163.731 12.6802C162.328 13.7058 161.312 15.193 160.319 16.6357C159.244 18.1981 158.138 19.8254 157.797 21.692C157.115 25.4219 159.575 28.9774 160.029 32.7415C161.052 41.1619 152.044 48.6319 153.747 56.9395C154.74 61.7839 159.206 65.1958 163.826 66.9257C165.454 67.5376 167.313 68.1462 168.074 69.712C168.416 70.3957 168.474 71.1855 168.794 71.8761C169.873 74.1803 173.418 74.2692 175.322 72.5906C177.226 70.912 177.826 68.1975 178.051 65.6642C178.966 54.6011 174.544 43.6713 175.059 32.5808C175.212 29.227 176.154 25.4219 179.153 23.904C183.19 21.8527 188.045 25.2715 192.488 24.6185C194.59 29.7437 195.036 35.4002 193.764 40.7927C193.058 43.7431 191.836 46.6046 191.747 49.6473C191.614 54.2797 194.108 58.5121 196.265 62.6078C196.728 63.3737 197.037 64.2225 197.176 65.1069C197.21 66.0042 197.043 66.8978 196.688 67.7223C195.47 71.0077 193.368 74.0572 193.129 77.5546C193.059 77.9629 193.151 78.3824 193.385 78.7238C193.625 78.9517 193.936 79.0915 194.265 79.1204C197.95 79.7529 201.137 76.4811 202.935 73.1957C204.94 69.567 206.108 65.5344 206.354 61.3941C206.726 54.4335 204.235 47.5857 204.389 40.6183C204.566 32.697 208.139 24.7211 206.047 17.0801Z" fill="#3E373A"/>
<path d="M198.511 168.453L212.046 168.887L210.105 158.829L199.736 159.817L198.511 168.453Z" fill="#C3C7D9"/>
<path d="M240.452 144.614C239.541 145.752 236.017 147.803 235.675 148.487C235.334 149.171 231.127 151.222 228.964 151.564C226.801 151.906 219.98 153.39 218.728 154.186C217.83 154.76 210.627 156.579 205.895 157.588C204.613 157.892 203.316 158.126 202.008 158.289C199.961 158.401 177.558 150.767 177.558 150.767L181.877 146.323L182.116 146.241C183.338 145.827 188.981 143.916 192.113 143.007C195.642 141.981 199.736 137.766 199.736 137.766C199.736 137.766 205.762 135.715 206.56 135.485C207.359 135.256 204.513 127.51 204.513 127.51C204.513 127.51 217.591 125.691 222.709 124.149C227.828 122.607 239.657 123.178 241.817 129.219C243.977 135.26 241.377 143.475 240.452 144.614Z" fill="#4B4B5B"/>
<path d="M180.853 163.871C180.853 163.871 178.24 166.607 175.623 166.381C173.006 166.155 163.854 167.065 163.854 167.065C162.196 167.727 160.643 168.629 159.245 169.742C157.105 171.43 155.969 170.083 155.758 169.796L155.72 169.742C154.58 173.335 151.967 170.596 151.967 170.596C151.967 170.596 153.103 159.656 152.755 158.289C152.407 156.921 155.004 154.572 155.004 154.572L158.074 153.79L165.854 151.793L177.001 155.666L180.853 163.871Z" fill="#E7C7CA"/>
<path opacity="0.1" d="M158.061 153.79L155.758 169.796L155.72 169.741C154.58 173.335 151.967 170.596 151.967 170.596C151.967 170.596 153.103 159.656 152.755 158.289C152.407 156.921 155.004 154.572 155.004 154.572L158.061 153.79Z" fill="black"/>
<path opacity="0.1" d="M174.159 108.258C174.159 108.258 180.185 110.31 185.419 108.258H174.159Z" fill="black"/>
<path opacity="0.1" d="M194.73 112.135C194.73 112.135 197.231 113.387 199.166 112.135H194.73Z" fill="black"/>
<path opacity="0.1" d="M194.73 115.103C194.73 115.103 198.938 115.667 199.736 114.529L194.73 115.103Z" fill="black"/>
<path opacity="0.1" d="M193.365 121.479C193.365 121.479 201.268 120.453 203.23 119.086L193.365 121.479Z" fill="black"/>
<path opacity="0.1" d="M169.252 119.086C169.252 119.086 173.688 121.592 176.987 121.479L169.252 119.086Z" fill="black"/>
<path opacity="0.1" d="M205.891 157.588C204.609 157.892 203.312 158.126 202.005 158.289C199.957 158.401 177.554 150.767 177.554 150.767L181.873 146.323L182.112 146.241C182.795 146.723 183.354 147.137 183.753 147.451C185.634 148.935 187.449 146.996 188.131 146.996C188.814 146.996 194.727 151.896 194.727 151.896C194.727 151.896 200.186 153.15 201.097 154.289C202.008 155.427 205.192 155.202 205.758 155.998C205.929 156.244 205.949 156.849 205.891 157.588Z" fill="black"/>
<path d="M163.855 127.975C163.855 127.975 158.334 128.292 155.151 126.949C151.967 125.605 141.39 122.504 138.319 124.682C135.248 126.86 127.854 128.785 131.266 137.448C134.678 146.111 136.272 146.337 136.272 146.337C137.327 147.13 138.249 148.088 139.001 149.174C140.025 150.771 149.579 154.415 151.967 154.415C154.356 154.415 158.563 154.415 164.476 158.518C170.389 162.62 175.736 163.078 175.736 163.078C175.736 163.078 183.242 166.155 185.579 166.839C187.917 167.523 198.597 170.483 201.101 169.574C203.605 168.665 205.195 162.962 205.195 162.962C205.195 162.962 206.332 157.834 205.762 157.037C205.192 156.241 202.009 156.466 201.101 155.328C200.193 154.19 194.731 152.935 194.731 152.935C194.731 152.935 188.831 148.032 188.149 148.032C187.466 148.032 185.651 149.967 183.771 148.487C180.026 145.708 176.091 143.195 171.996 140.966C167.676 138.685 163.855 127.975 163.855 127.975Z" fill="#4B4B5B"/>
<path opacity="0.1" d="M152.755 131.28C153.738 131.079 154.754 131.108 155.724 131.365C156.694 131.622 157.592 132.099 158.347 132.761C161.077 135.041 170.262 139.619 170.262 139.619" fill="black"/>
<path opacity="0.1" d="M221.003 131.137C221.003 131.137 208.832 132.983 206.56 135.489L221.003 131.137Z" fill="black"/>
<path d="M234.992 168.887H234.457C232.532 168.818 226.012 168.613 224.756 168.887C223.279 169.229 203.714 168.887 203.714 168.887L207.539 168.09C207.539 168.09 206.119 163.106 207.02 162.692C207.02 162.692 201.902 159.314 205.761 157.034C209.62 154.754 213.779 155.714 213.779 155.714L223.466 152.425L225.326 151.793C225.326 151.793 236.245 152.364 239.199 159.885C242.154 167.406 234.992 168.887 234.992 168.887Z" fill="#E7C7CA"/>
<path opacity="0.1" d="M234.993 168.887H234.457C237.634 166.261 244.819 158.268 223.467 152.443L225.326 151.81C225.326 151.81 236.245 152.381 239.2 159.902C242.155 167.424 234.993 168.887 234.993 168.887Z" fill="black"/>
<path d="M214.919 160.025C215.249 160.025 215.516 159.758 215.516 159.427C215.516 159.097 215.249 158.829 214.919 158.829C214.59 158.829 214.322 159.097 214.322 159.427C214.322 159.758 214.59 160.025 214.919 160.025Z" fill="#4B4B5B"/>
<path d="M211.45 161.013C211.779 161.013 212.047 160.746 212.047 160.415C212.047 160.085 211.779 159.817 211.45 159.817C211.12 159.817 210.853 160.085 210.853 160.415C210.853 160.746 211.12 161.013 211.45 161.013Z" fill="#4B4B5B"/>
<g opacity="0.1">
<path opacity="0.1" d="M194.543 33.9859C194.675 30.2256 194.008 26.48 192.584 22.998C188.149 23.6613 183.29 20.2322 179.25 22.2835C176.261 23.8014 175.323 27.6065 175.156 30.9603C175.115 31.8458 175.108 32.7312 175.125 33.6167C175.125 33.3022 175.125 32.9842 175.156 32.6697C175.313 29.3159 176.251 25.5108 179.25 23.9929C183.29 21.9416 188.142 25.3604 192.584 24.7074C193.79 27.6568 194.453 30.8001 194.543 33.9859Z" fill="black"/>
<path opacity="0.1" d="M160.169 33.3603C160.227 32.6153 160.212 31.8664 160.125 31.1244C159.763 28.1159 158.122 25.2407 157.825 22.3074C157.443 25.8458 159.691 29.2441 160.125 32.8338C160.169 33.0184 160.169 33.1825 160.169 33.3603Z" fill="black"/>
<path opacity="0.1" d="M178.147 64.0402C177.936 66.5769 177.339 69.288 175.418 70.97C173.497 72.6521 169.959 72.5598 168.891 70.2555C168.549 69.5718 168.498 68.7752 168.167 68.0915C167.41 66.5257 165.547 65.9171 163.919 65.3052C159.296 63.5719 154.836 60.177 153.843 55.319C153.755 54.8789 153.694 54.4335 153.662 53.9857C153.579 55.0034 153.639 56.0278 153.843 57.0284C154.836 61.8727 159.303 65.2812 163.919 67.0145C165.547 67.6265 167.41 68.235 168.167 69.8008C168.508 70.4846 168.566 71.2743 168.891 71.9649C169.965 74.2692 173.51 74.358 175.418 72.6794C177.325 71.0008 177.919 68.2863 178.147 65.7496C178.251 64.4144 178.287 63.0748 178.253 61.736C178.253 62.512 178.209 63.2778 178.147 64.0402Z" fill="black"/>
<path opacity="0.1" d="M204.502 38.9978C204.502 39.4935 204.502 39.9858 204.502 40.4781C204.693 34.1192 207.02 27.7261 206.791 21.5006C206.614 27.2578 204.632 33.1449 204.502 38.9978Z" fill="black"/>
<path opacity="0.1" d="M197.18 64.7206C197.264 64.3149 197.291 63.8994 197.259 63.4864C197.121 62.6016 196.812 61.7525 196.348 60.9873C194.375 57.2266 192.127 53.3771 191.861 49.2028C191.861 49.3806 191.837 49.5447 191.833 49.7361C191.697 54.3651 194.191 58.601 196.348 62.6967C196.714 63.331 196.994 64.0117 197.18 64.7206Z" fill="black"/>
<path opacity="0.1" d="M206.464 59.7736C206.209 63.9155 205.033 67.9479 203.021 71.5752C201.22 74.8606 198.036 78.1324 194.348 77.4999C194.017 77.4714 193.707 77.3302 193.468 77.0999C193.398 77.0216 193.344 76.9312 193.307 76.8333C193.266 77.0999 193.232 77.37 193.212 77.6435C193.141 78.0507 193.233 78.4693 193.468 78.8093C193.707 79.0396 194.017 79.1807 194.348 79.2093C198.036 79.8418 201.22 76.57 203.021 73.2846C205.033 69.6572 206.209 65.6249 206.464 61.483C206.505 60.683 206.508 59.8864 206.485 59.0899C206.478 59.3189 206.478 59.5446 206.464 59.7736Z" fill="black"/>
</g>
<path opacity="0.1" d="M207.021 162.692C207.021 162.692 215.656 166.323 221.351 158.289" stroke="black" stroke-miterlimit="10"/>
<path opacity="0.1" d="M208.72 169.037C208.72 169.037 215.772 164.442 224.756 168.887" stroke="black" stroke-miterlimit="10"/>
<path opacity="0.1" d="M161.511 167.995C161.511 167.995 164.472 161.301 172.382 166.405" stroke="black" stroke-miterlimit="10"/>
<path opacity="0.1" d="M151.909 69.0009L157.949 63.5308C157.949 63.5308 181.366 61.9924 182.335 69.9684C182.335 69.9684 190.636 60.5121 208.096 62.618L215.483 68.512L195.065 77.4896L175.224 84.3853L160.61 77.8315L151.909 69.0009Z" fill="black"/>
<path d="M151.909 69.3427L157.949 63.8727C157.949 63.8727 181.366 62.3343 182.335 70.3103C182.335 70.3103 190.636 60.854 208.096 62.9599L215.483 68.8539L195.065 77.8315L175.224 84.7272L160.61 78.1734L151.909 69.3427Z" fill="#D5D6DB"/>
<path opacity="0.1" d="M149.237 70.0265L151.909 102.05L180.229 103.476L179.001 71.5889L178.977 71.0521L149.237 70.0265Z" fill="black"/>
<path d="M149.237 69.3427L151.909 101.366L180.229 102.792L179.001 70.9051L178.977 70.3684L149.237 69.3427Z" fill="#FFAA40"/>
<path opacity="0.1" d="M216.779 69.3427L187.564 73.7324V105.9L216.113 101.766L216.779 69.3427Z" fill="black"/>
<path d="M216.779 68.659L187.564 73.0487V105.216L216.113 101.083L216.779 68.659Z" fill="#FFAA40"/>
<path opacity="0.3" d="M209.89 76.5085L194.109 78.2657L194.454 83.6537L209.88 81.9648L209.89 76.5085Z" fill="white"/>
<path d="M153.444 118.515L155.051 122.846C155.051 122.846 157.439 124.898 160.053 123.872C162.666 122.846 164.946 122.337 166.082 121.339C167.218 120.34 168.812 115.325 168.812 115.325C168.812 115.325 170.405 109.855 171.995 108.488C173.585 107.12 177.796 88.2793 171.995 90.122C166.194 91.9647 161.759 109.058 161.759 109.058C161.759 109.058 160.735 110.31 159.258 110.426C157.78 110.542 154.822 110.197 154.252 111.452C153.682 112.706 151.738 116.009 153.444 118.515Z" fill="#BE6F72"/>
<path opacity="0.1" d="M187.565 73.729C186.069 74.0667 184.515 74.0491 183.028 73.6774C181.54 73.3058 180.16 72.5906 178.997 71.5889L180.229 103.472C180.229 103.472 183.129 106.618 187.565 105.9V73.729Z" fill="black"/>
<path d="M187.565 73.0453C186.069 73.383 184.515 73.3653 183.028 72.9937C181.54 72.6221 180.16 71.9068 178.997 70.9051L180.229 102.788C180.229 102.788 183.129 105.934 187.565 105.216V73.0453Z" fill="#FFAA40"/>
<path opacity="0.1" d="M187.565 73.0453C186.069 73.383 184.515 73.3653 183.028 72.9937C181.54 72.6221 180.16 71.9068 178.997 70.9051L180.229 102.788C180.229 102.788 183.129 105.934 187.565 105.216V73.0453Z" fill="black"/>
<path opacity="0.1" d="M188.247 69.4521C188.247 69.4521 200.131 65.8112 203.229 66.324L188.247 69.4521Z" fill="black"/>
<path opacity="0.1" d="M174.954 67.8624C174.954 67.8624 163.435 65.1274 161.511 65.9035L174.954 67.8624Z" fill="black"/>
<path opacity="0.1" d="M195.74 69.9068C195.74 69.9068 203.687 66.9872 206.56 68.3752L195.74 69.9068Z" fill="black"/>
<path opacity="0.1" d="M191.737 143.147C192.969 142.22 194.28 141.405 195.654 140.709C197.702 139.721 201.455 137.157 201.455 137.157" fill="black"/>
<path opacity="0.1" d="M161.51 108.258C161.51 108.258 156.525 112.344 155.027 112.703C153.529 113.062 152.604 116.248 152.604 116.248" fill="black"/>
<path d="M213.848 117.906L212.257 122.248C212.257 122.248 209.869 124.299 207.252 123.274C204.635 122.248 202.362 121.739 201.223 120.74C200.083 119.742 198.493 114.727 198.493 114.727C198.493 114.727 196.903 109.257 195.31 107.889C193.716 106.522 189.509 87.681 195.31 89.5237C201.11 91.3664 205.546 108.46 205.546 108.46C205.546 108.46 206.57 109.711 208.047 109.828C209.524 109.944 212.483 109.599 213.052 110.853C213.622 112.108 215.554 115.411 213.848 117.906Z" fill="#BE6F72"/>
<path opacity="0.1" d="M211.061 109.92C211.061 109.92 214.319 112.019 214.305 114.529L211.061 109.92Z" fill="black"/>
<path d="M183.413 49.0729C191.83 49.0729 198.654 42.2356 198.654 33.8013C198.654 25.367 191.83 18.5297 183.413 18.5297C174.995 18.5297 168.171 25.367 168.171 33.8013C168.171 42.2356 174.995 49.0729 183.413 49.0729Z" fill="#BE6F72"/>
<path d="M173.841 29.7022C175.69 29.4116 177.311 28.3347 179.079 27.7159C183.033 26.3245 187.407 27.2783 191.41 28.533C192.945 29.015 194.505 29.5586 196.115 29.5586C197.726 29.5586 199.435 28.8988 200.257 27.5073C201.015 26.2287 200.868 24.5672 200.23 23.2236C199.592 21.8801 198.524 20.7997 197.446 19.781C193.897 16.4237 189.496 13.2853 184.627 13.6272C182.668 13.7673 180.795 14.4682 178.993 15.2443C176.725 16.2237 174.517 17.3379 172.381 18.581C170.74 19.5348 167.699 20.81 166.754 22.5536C164.605 26.4817 170.497 30.2287 173.841 29.7022Z" fill="#3E373A"/>
<path opacity="0.1" d="M200.258 26.0715C199.435 27.4629 197.726 28.1227 196.115 28.1227C194.505 28.1227 192.946 27.5997 191.407 27.1176C187.404 25.8629 183.034 24.9057 179.076 26.3005C177.312 26.9193 175.687 28.0099 173.838 28.2834C171.143 28.7074 166.802 26.3552 166.332 23.3638C165.803 26.8202 170.835 29.7808 173.838 29.3091C175.687 29.0185 177.312 27.9415 179.076 27.3262C183.034 25.9313 187.404 26.8886 191.407 28.1433C192.946 28.6253 194.502 29.1689 196.115 29.1484C197.729 29.1279 199.435 28.492 200.258 27.0971C200.684 26.3383 200.852 25.4609 200.735 24.598C200.682 25.1175 200.519 25.6198 200.258 26.0715Z" fill="black"/>
<path d="M323.948 211.351C323.948 211.351 325.971 214.001 323.013 218.004C320.055 222.008 317.619 225.385 318.601 227.881C318.601 227.881 323.064 220.449 326.695 220.343C330.325 220.237 327.937 215.82 323.948 211.351Z" fill="#FFAA40"/>
<path opacity="0.1" d="M323.949 211.351C324.125 211.607 324.264 211.887 324.361 212.182C327.903 216.353 329.793 220.247 326.385 220.343C323.212 220.435 319.407 226.12 318.496 227.553C318.525 227.669 318.561 227.783 318.602 227.895C318.602 227.895 323.065 220.462 326.695 220.356C330.326 220.25 327.937 215.82 323.949 211.351Z" fill="black"/>
<path d="M327.702 214.729C327.702 215.662 327.596 216.418 327.47 216.418C327.344 216.418 327.234 215.662 327.234 214.729C327.234 213.796 327.364 214.237 327.494 214.237C327.623 214.237 327.702 213.796 327.702 214.729Z" fill="#FFD037"/>
<path d="M328.996 215.844C328.18 216.288 327.467 216.558 327.406 216.445C327.344 216.332 327.955 215.878 328.77 215.42C329.586 214.961 329.265 215.297 329.327 215.42C329.388 215.543 329.815 215.396 328.996 215.844Z" fill="#FFD037"/>
<path d="M313.255 211.351C313.255 211.351 311.232 214.001 314.19 218.004C317.148 222.008 319.584 225.385 318.598 227.881C318.598 227.881 314.139 220.449 310.505 220.343C306.871 220.237 309.276 215.82 313.255 211.351Z" fill="#FFAA40"/>
<path opacity="0.1" d="M313.255 211.351C313.079 211.607 312.94 211.887 312.842 212.182C309.3 216.353 307.41 220.247 310.819 220.343C313.988 220.435 317.796 226.12 318.707 227.553C318.679 227.669 318.642 227.783 318.598 227.895C318.598 227.895 314.139 220.462 310.505 220.356C306.871 220.25 309.276 215.82 313.255 211.351Z" fill="black"/>
<path d="M309.495 214.729C309.495 215.662 309.597 216.418 309.727 216.418C309.857 216.418 309.963 215.662 309.963 214.729C309.963 213.796 309.829 214.237 309.703 214.237C309.577 214.237 309.495 213.796 309.495 214.729Z" fill="#FFD037"/>
<path d="M308.206 215.844C309.021 216.288 309.734 216.558 309.796 216.445C309.857 216.332 309.246 215.878 308.431 215.42C307.615 214.961 307.936 215.297 307.875 215.42C307.813 215.543 307.387 215.396 308.206 215.844Z" fill="#FFD037"/>
<path opacity="0.1" d="M318.602 248.161C330.286 248.161 339.757 246.705 339.757 244.91C339.757 243.114 330.286 241.659 318.602 241.659C306.919 241.659 297.447 243.114 297.447 244.91C297.447 246.705 306.919 248.161 318.602 248.161Z" fill="#FFAA40"/>
<path d="M329.489 224.308L329.387 225.136L329.244 226.305L329.186 226.794L329.042 227.963L328.981 228.452L328.841 229.618L327.22 242.917C327.077 244.103 325.142 245.029 322.805 245.029H314.394C312.057 245.029 310.126 244.103 309.979 242.917L308.359 229.618L308.215 228.452L308.157 227.963L308.014 226.794L307.952 226.305L307.813 225.136L307.71 224.308C307.632 223.625 308.676 223.071 310 223.071H327.203C328.524 223.071 329.571 223.635 329.489 224.308Z" fill="#65617D"/>
<path d="M329.387 225.136L329.247 226.305H307.956L307.812 225.136H329.387Z" fill="#9D9CB5"/>
<path d="M329.187 226.794L329.047 227.963H308.158L308.015 226.794H329.187Z" fill="#9D9CB5"/>
<path d="M328.985 228.452L328.841 229.621H308.359L308.219 228.452H328.985Z" fill="#9D9CB5"/>
</g>
<defs>
<linearGradient id="paint0_linear" x1="186.517" y1="171.594" x2="186.517" y2="1.32291e-06" gradientUnits="userSpaceOnUse">
<stop stop-color="#808080" stop-opacity="0.25"/>
<stop offset="0.54" stop-color="#808080" stop-opacity="0.12"/>
<stop offset="1" stop-color="#808080" stop-opacity="0.1"/>
</linearGradient>
<clipPath id="clip0">
<rect width="349" height="278" fill="white"/>
</clipPath>
</defs>
</svg>
