<svg width="79" height="76" viewBox="0 0 79 76" fill="none" xmlns="http://www.w3.org/2000/svg">
<path d="M67.1519 60.7991H66.7934L59.8464 27.7002C59.398 22.82 55.1123 19.0257 50.0197 19.0001H28.4132C23.6179 18.9839 19.4754 22.3479 18.6864 26.8984L12.1847 60.7991H11.8539C7.52169 60.8039 3.95781 64.2315 3.95386 68.3991V74.0991V74.1001C3.95386 75.1422 4.84458 75.9991 5.92688 75.9991C5.92787 75.9991 5.92787 75.9991 5.92886 75.9991H73.0769C73.0779 75.9991 73.0779 75.9991 73.0779 75.9991C74.1612 75.9991 75.0519 75.1422 75.0519 74.1001V74.0991V68.3991C75.0469 64.2315 71.484 60.8039 67.1519 60.7991ZM22.5771 27.5548C23.0432 24.8188 25.5307 22.7915 28.4132 22.7991H50.0197C53.1491 22.8438 55.7472 25.2273 55.9428 28.2322L62.7644 60.7991H16.2008L22.5771 27.5548ZM71.1029 72.1982H7.90386V68.3982C7.90583 66.3148 9.68728 64.6001 11.8539 64.5982H67.1519C69.3185 64.6001 71.0999 66.3148 71.1019 68.3982L71.1029 72.1982Z" fill="#6E57A5"/>
<path d="M39.4971 11.4H39.4991C40.5823 11.4 41.4731 10.5422 41.4731 9.50095C41.4731 9.5 41.4731 9.5 41.4731 9.5V1.9C41.4731 0.8569 40.5814 0 39.4981 0C38.4148 0 37.5231 0.8569 37.5231 1.9V9.5C37.5231 9.5 37.5231 9.5 37.5231 9.50095C37.5231 10.5422 38.4138 11.4 39.4971 11.4Z" fill="#FFB63E"/>
<path d="M20.0108 10.4498C20.3633 11.0369 21.0171 11.3998 21.7211 11.3998C22.8054 11.3998 23.6971 10.5419 23.6971 9.49979C23.6971 9.16634 23.6053 8.83859 23.4325 8.54979L19.4825 1.96819C19.1299 1.38109 18.4762 1.01819 17.7711 1.01819C16.6879 1.01819 15.7961 1.87604 15.7961 2.91819C15.7961 3.25164 15.888 3.57939 16.0608 3.86819L20.0108 10.4498Z" fill="#FFB63E"/>
<path d="M8.81541 22.7986C8.81541 22.7986 8.8164 22.7986 8.81739 22.7986C9.90068 22.7986 10.7924 21.9408 10.7924 20.8986C10.7924 20.2203 10.4152 19.5914 9.8039 19.2532L2.96349 15.4532C2.66329 15.286 2.3226 15.1986 1.97599 15.1986C0.891713 15.1986 0 16.0565 0 17.0986C0 17.7769 0.378213 18.4058 0.988488 18.744L7.8289 22.544C8.1291 22.7112 8.4688 22.7986 8.81541 22.7986Z" fill="#FFB63E"/>
<path d="M56.2836 11.1452C57.2218 11.6658 58.4394 11.3523 58.9815 10.4498L62.9315 3.86819C63.1053 3.57939 63.1962 3.25164 63.1962 2.91819C63.1962 1.87604 62.3044 1.01819 61.2212 1.01819C60.5161 1.01819 59.8623 1.38109 59.5108 1.96819L55.5608 8.54979C55.387 8.83859 55.2961 9.16634 55.2961 9.49979C55.2961 10.1781 55.6734 10.806 56.2836 11.1452Z" fill="#FFB63E"/>
<path d="M78.7366 16.1496C78.3841 15.5615 77.7313 15.1986 77.0263 15.1986C76.6787 15.1986 76.338 15.286 76.0378 15.4532L69.1973 19.2532C68.5861 19.5924 68.2089 20.2213 68.2089 20.8986C68.2089 21.9417 69.1006 22.7996 70.1848 22.7996C70.5315 22.7996 70.8721 22.7112 71.1723 22.545L78.0128 18.745C78.623 18.4058 79.0013 17.7769 79.0013 17.0996C79.0013 16.7661 78.9094 16.4384 78.7366 16.1496Z" fill="#FFB63E"/>
<path d="M37.5297 26.5981H32.1182C29.1448 26.6019 26.6109 28.7565 26.2435 31.5951L25.6955 35.8663C25.6856 35.9442 25.6807 36.0221 25.6807 36.1C25.6807 37.0548 26.4292 37.868 27.4137 37.9829C27.4947 37.9934 27.5757 37.9991 27.6567 37.9981C28.6491 37.9972 29.4934 37.2771 29.6149 36.3299L30.1619 32.0606C30.2854 31.1163 31.1287 30.3991 32.1182 30.3981H37.5297C38.613 30.3981 39.5047 29.5403 39.5047 28.4981C39.5047 27.456 38.613 26.5981 37.5297 26.5981Z" fill="#6E57A5"/>
</svg>
