<svg width="62" height="73" viewBox="0 0 62 73" fill="none" xmlns="http://www.w3.org/2000/svg">
<path fill-rule="evenodd" clip-rule="evenodd" d="M39.7246 45.0474C48.8116 36.2375 48.8116 21.953 39.7246 13.1431C30.6376 4.33317 15.9036 4.33317 6.81528 13.1431C-2.27176 21.953 -2.27176 36.2375 6.81528 45.0474C15.9036 53.8586 30.6376 53.8586 39.7246 45.0474ZM36.0686 41.5029C29.0009 48.3563 17.5403 48.3563 10.4713 41.5029C3.40358 34.6508 3.40358 23.5397 10.4713 16.6876C17.5403 9.83544 29.0009 9.83544 36.0686 16.6876C43.1363 23.5397 43.1363 34.6508 36.0686 41.5029Z" fill="#FFB63E"/>
<path fill-rule="evenodd" clip-rule="evenodd" d="M54.3512 59.2289C63.4382 50.419 63.4382 36.1344 54.3512 27.3245C45.2629 18.5134 30.5289 18.5134 21.4419 27.3245C12.3549 36.1344 12.3549 50.419 21.4419 59.2289C30.5289 68.0401 45.2629 68.0401 54.3512 59.2289ZM50.6952 55.6844C43.6262 62.5378 32.1656 62.5378 25.0979 55.6844C18.0302 48.8323 18.0302 37.7212 25.0979 30.8691C32.1656 24.0157 43.6262 24.0157 50.6952 30.8691C57.7629 37.7212 57.7629 48.8323 50.6952 55.6844Z" fill="#6E57A5"/>
<path fill-rule="evenodd" clip-rule="evenodd" d="M41.5518 14.9147L52.5212 4.27867C53.5308 3.30105 53.5308 1.71178 52.5212 0.734158C51.5128 -0.244719 49.8735 -0.244719 48.8651 0.734158L37.8958 11.3702C36.8861 12.3478 36.8861 13.9371 37.8958 14.9147C38.9042 15.8936 40.5434 15.8936 41.5518 14.9147Z" fill="#FFB63E"/>
<path fill-rule="evenodd" clip-rule="evenodd" d="M39.7241 5.01345H48.1079V13.1428C48.1079 14.5265 49.2662 15.6495 50.6935 15.6495C52.1207 15.6495 53.2791 14.5265 53.2791 13.1428V2.50673C53.2791 1.12176 52.122 0 50.6935 0H39.7241C38.2969 0 37.1385 1.12301 37.1385 2.50673C37.1385 3.89044 38.2969 5.01345 39.7241 5.01345Z" fill="#FFB63E"/>
<path fill-rule="evenodd" clip-rule="evenodd" d="M21.4422 55.6814L8.64489 68.0897C7.63522 69.0673 7.63522 70.6566 8.64489 71.6342C9.65327 72.6131 11.2925 72.6131 12.3009 71.6342L25.0983 59.2259C26.1079 58.2483 26.1079 56.659 25.0983 55.6814C24.0899 54.7025 22.4506 54.7025 21.4422 55.6814Z" fill="#6E57A5"/>
<path fill-rule="evenodd" clip-rule="evenodd" d="M23.2702 68.0922L12.3009 57.4562C11.2925 56.4773 9.65327 56.4773 8.64489 57.4562C7.63522 58.4338 7.63522 60.0231 8.64489 61.0007L19.6142 71.6368C20.6226 72.6156 22.2619 72.6156 23.2702 71.6368C24.2799 70.6591 24.2799 69.0699 23.2702 68.0922Z" fill="#6E57A5"/>
</svg>
