<svg width="16" height="16" viewBox="0 0 16 16" fill="none" xmlns="http://www.w3.org/2000/svg">
<path d="M7.55169 0C4.39996 0 3.4782 0.00325136 3.29902 0.0181147C2.65223 0.0718784 2.24976 0.173716 1.81129 0.392022C1.47338 0.559815 1.20689 0.754316 0.943876 1.02697C0.46488 1.52419 0.17458 2.13591 0.0694914 2.86306C0.0183986 3.21606 0.00353521 3.28806 0.000516089 5.09117C-0.000645112 5.69221 0.000516089 6.48322 0.000516089 7.54421C0.000516089 10.6934 0.00399969 11.6142 0.0190953 11.793C0.0713494 12.4224 0.170051 12.8184 0.379068 13.2515C0.778521 14.0806 1.54143 14.703 2.4402 14.9353C2.7514 15.0154 3.09512 15.0595 3.53637 15.0804C3.72333 15.0885 5.62886 15.0943 7.53555 15.0943C9.44224 15.0943 11.3489 15.092 11.5312 15.0827C12.0422 15.0587 12.3389 15.0189 12.6669 14.9341C13.5715 14.7007 14.3204 14.0876 14.728 13.2469C14.933 12.8242 15.0369 12.4131 15.0839 11.8166C15.0942 11.6866 15.0985 9.61301 15.0985 7.54224C15.0985 5.47112 15.0938 3.40139 15.0836 3.27134C15.036 2.66519 14.9321 2.25761 14.7205 1.8268C14.5469 1.47415 14.3541 1.21078 14.0743 0.941502C13.5748 0.464481 12.964 0.17418 12.2362 0.0692076C11.8836 0.0182309 11.8133 0.00313524 10.0088 0L7.55169 0Z" fill="url(#paint0_radial)"/>
<path d="M7.55169 0C4.39996 0 3.4782 0.00325136 3.29902 0.0181147C2.65223 0.0718784 2.24976 0.173716 1.81129 0.392022C1.47338 0.559815 1.20689 0.754316 0.943876 1.02697C0.46488 1.52419 0.17458 2.13591 0.0694914 2.86306C0.0183986 3.21606 0.00353521 3.28806 0.000516089 5.09117C-0.000645112 5.69221 0.000516089 6.48322 0.000516089 7.54421C0.000516089 10.6934 0.00399969 11.6142 0.0190953 11.793C0.0713494 12.4224 0.170051 12.8184 0.379068 13.2515C0.778521 14.0806 1.54143 14.703 2.4402 14.9353C2.7514 15.0154 3.09512 15.0595 3.53637 15.0804C3.72333 15.0885 5.62886 15.0943 7.53555 15.0943C9.44224 15.0943 11.3489 15.092 11.5312 15.0827C12.0422 15.0587 12.3389 15.0189 12.6669 14.9341C13.5715 14.7007 14.3204 14.0876 14.728 13.2469C14.933 12.8242 15.0369 12.4131 15.0839 11.8166C15.0942 11.6866 15.0985 9.61301 15.0985 7.54224C15.0985 5.47112 15.0938 3.40139 15.0836 3.27134C15.036 2.66519 14.9321 2.25761 14.7205 1.8268C14.5469 1.47415 14.3541 1.21078 14.0743 0.941502C13.5748 0.464481 12.964 0.17418 12.2362 0.0692076C11.8836 0.0182309 11.8133 0.00313524 10.0088 0L7.55169 0Z" fill="url(#paint1_radial)"/>
<path d="M7.54822 1.97409C6.03448 1.97409 5.84451 1.98071 5.24998 2.00777C4.6566 2.03494 4.25158 2.12888 3.89718 2.26671C3.53059 2.40908 3.21962 2.59951 2.90981 2.90944C2.59977 3.21924 2.40933 3.53021 2.26651 3.89669C2.12832 4.2512 2.03427 4.65635 2.00756 5.24949C1.98097 5.84402 1.974 6.03411 1.974 7.54785C1.974 9.06159 1.98073 9.25098 2.00767 9.84551C2.03496 10.4389 2.1289 10.8439 2.26662 11.1983C2.4091 11.5649 2.59954 11.8759 2.90946 12.1857C3.21915 12.4957 3.53012 12.6866 3.89648 12.829C4.25111 12.9668 4.65625 13.0608 5.24951 13.0879C5.84404 13.115 6.0339 13.1216 7.54752 13.1216C9.06138 13.1216 9.25077 13.115 9.84531 13.0879C10.4387 13.0608 10.8442 12.9668 11.1988 12.829C11.5653 12.6866 11.8758 12.4957 12.1855 12.1857C12.4955 11.8759 12.6859 11.5649 12.8288 11.1984C12.9658 10.8439 13.0599 10.4388 13.0877 9.84563C13.1144 9.2511 13.1214 9.06159 13.1214 7.54785C13.1214 6.03411 13.1144 5.84414 13.0877 5.2496C13.0599 4.65623 12.9658 4.2512 12.8288 3.8968C12.6859 3.53021 12.4955 3.21924 12.1855 2.90944C11.8754 2.5994 11.5654 2.40896 11.1985 2.26671C10.8431 2.12888 10.4379 2.03494 9.84449 2.00777C9.24996 1.98071 9.06068 1.97409 7.54648 1.97409H7.54822ZM7.04821 2.97853C7.19661 2.9783 7.3622 2.97853 7.54822 2.97853C9.03641 2.97853 9.2128 2.98387 9.80048 3.01058C10.3439 3.03543 10.6389 3.12623 10.8353 3.20252C11.0955 3.30355 11.2809 3.42431 11.4759 3.61939C11.6709 3.81448 11.7917 4.00027 11.893 4.26038C11.9693 4.45662 12.0602 4.75156 12.0849 5.295C12.1116 5.88257 12.1174 6.05907 12.1174 7.54657C12.1174 9.03407 12.1116 9.21057 12.0849 9.79814C12.0601 10.3416 11.9693 10.6365 11.893 10.8328C11.7919 11.0929 11.6709 11.2781 11.4759 11.4731C11.2808 11.6681 11.0956 11.7889 10.8353 11.8899C10.6391 11.9666 10.3439 12.0571 9.80048 12.082C9.21292 12.1087 9.03641 12.1145 7.54822 12.1145C6.05991 12.1145 5.88353 12.1087 5.29596 12.082C4.75252 12.0569 4.45757 11.9661 4.26098 11.8898C4.00087 11.7888 3.81508 11.668 3.62 11.4729C3.42492 11.2779 3.30415 11.0925 3.2029 10.8323C3.12661 10.6361 3.03568 10.3411 3.01095 9.79767C2.98424 9.21011 2.9789 9.0336 2.9789 7.54518C2.9789 6.05675 2.98424 5.88118 3.01095 5.29361C3.0358 4.75017 3.12661 4.45523 3.2029 4.25875C3.30392 3.99864 3.42492 3.81285 3.62 3.61777C3.81508 3.42269 4.00087 3.30192 4.26098 3.20067C4.45746 3.12403 4.75252 3.03345 5.29596 3.00849C5.81014 2.98526 6.0094 2.9783 7.04821 2.97713V2.97853ZM10.5234 3.904C10.1542 3.904 9.8546 4.20325 9.8546 4.57262C9.8546 4.94188 10.1542 5.24147 10.5234 5.24147C10.8927 5.24147 11.1923 4.94188 11.1923 4.57262C11.1923 4.20336 10.8927 3.90377 10.5234 3.90377V3.904ZM7.54822 4.68549C5.96748 4.68549 4.68586 5.96711 4.68586 7.54785C4.68586 9.12859 5.96748 10.4096 7.54822 10.4096C9.12896 10.4096 10.4101 9.12859 10.4101 7.54785C10.4101 5.96711 9.12885 4.68549 7.5481 4.68549H7.54822ZM7.54822 5.68993C8.57426 5.68993 9.40614 6.5217 9.40614 7.54785C9.40614 8.57388 8.57426 9.40577 7.54822 9.40577C6.52207 9.40577 5.6903 8.57388 5.6903 7.54785C5.6903 6.5217 6.52207 5.68993 7.54822 5.68993V5.68993Z" fill="white"/>
<defs>
<radialGradient id="paint0_radial" cx="0" cy="0" r="1" gradientUnits="userSpaceOnUse" gradientTransform="translate(4.01055 16.2569) rotate(-90) scale(14.9596 13.9175)">
<stop stop-color="#FFDD55"/>
<stop offset="0.1" stop-color="#FFDD55"/>
<stop offset="0.5" stop-color="#FF543E"/>
<stop offset="1" stop-color="#C837AB"/>
</radialGradient>
<radialGradient id="paint1_radial" cx="0" cy="0" r="1" gradientUnits="userSpaceOnUse" gradientTransform="translate(-2.52907 1.08737) rotate(78.6776) scale(6.68708 27.5713)">
<stop stop-color="#3771C8"/>
<stop offset="0.13" stop-color="#3771C8"/>
<stop offset="1" stop-color="#6600FF" stop-opacity="0"/>
</radialGradient>
</defs>
</svg>
