<svg width="445" height="321" viewBox="0 0 445 321" fill="none" xmlns="http://www.w3.org/2000/svg">
<g clip-path="url(#clip0_345:322)">
<path d="M444.357 318.538H0.643064C0.472513 318.538 0.308946 318.471 0.188348 318.35C0.0677507 318.23 0 318.066 0 317.896C0 317.726 0.0677507 317.562 0.188348 317.442C0.308946 317.322 0.472513 317.254 0.643064 317.254H444.357C444.527 317.254 444.691 317.322 444.812 317.442C444.932 317.562 445 317.726 445 317.896C445 318.066 444.932 318.23 444.812 318.35C444.691 318.471 444.527 318.538 444.357 318.538Z" fill="#CCCCCC"/>
<path d="M400.439 206.545H139.355C138.246 206.545 137.183 206.984 136.399 207.767C135.615 208.55 135.175 209.612 135.175 210.719C135.175 211.826 135.615 212.887 136.399 213.67C137.183 214.453 138.246 214.893 139.355 214.893H146.75V314.748C146.75 315.855 147.19 316.917 147.974 317.7C148.758 318.483 149.821 318.922 150.93 318.922C152.038 318.922 153.102 318.483 153.886 317.7C154.669 316.917 155.11 315.855 155.11 314.748L155.173 214.893H384.04V314.748C384.04 315.855 384.481 316.917 385.265 317.7C386.049 318.483 387.112 318.922 388.22 318.922C389.329 318.922 390.392 318.483 391.176 317.7C391.96 316.917 392.4 315.855 392.4 314.748V217.094L393.616 214.893H400.439C401.547 214.893 402.61 214.453 403.394 213.67C404.178 212.887 404.618 211.826 404.618 210.719C404.618 209.612 404.178 208.55 403.394 207.767C402.61 206.984 401.547 206.545 400.439 206.545Z" fill="#CCCCCC"/>
<path d="M284.102 208.729H205.017C203.486 208.727 202.018 208.119 200.935 207.038C199.852 205.957 199.243 204.491 199.241 202.961V159.481C199.243 157.952 199.852 156.486 200.935 155.405C202.018 154.324 203.486 153.715 205.017 153.714H284.102C285.634 153.715 287.102 154.324 288.184 155.405C289.267 156.486 289.876 157.952 289.878 159.481V202.961C289.876 204.491 289.267 205.957 288.184 207.038C287.102 208.119 285.634 208.727 284.102 208.729Z" fill="#3F3D56"/>
<path d="M284.101 158.153H205.017C204.664 158.153 204.326 158.294 204.076 158.543C203.827 158.792 203.686 159.13 203.686 159.482V202.963C203.686 203.315 203.827 203.652 204.076 203.902C204.326 204.151 204.664 204.291 205.017 204.292H284.101C284.454 204.291 284.792 204.151 285.041 203.902C285.291 203.652 285.431 203.315 285.432 202.963V159.482C285.431 159.13 285.291 158.792 285.041 158.543C284.792 158.294 284.454 158.153 284.101 158.153Z" fill="white"/>
<path d="M251.304 188.937C251.304 188.937 241.837 186.758 236.629 190.752C231.422 194.746 243.257 203.823 243.257 203.823L251.304 188.937Z" fill="#2F2E41"/>
<path d="M245.023 184.82C249.955 184.82 253.953 180.828 253.953 175.903C253.953 170.978 249.955 166.985 245.023 166.985C240.091 166.985 236.093 170.978 236.093 175.903C236.093 180.828 240.091 184.82 245.023 184.82Z" fill="#A0616A"/>
<path d="M238.117 163.384C238.713 162.375 239.576 161.55 240.612 160.999C241.647 160.449 242.815 160.195 243.986 160.266C245.211 160.42 246.406 160.754 247.533 161.258L253.371 163.532C254.881 164.12 256.536 164.841 257.191 166.322C257.8 167.697 257.346 169.284 256.886 170.715L254.702 177.518C254.46 175.978 254.045 174.471 253.465 173.024C252.874 171.568 251.808 170.354 250.439 169.58C248.923 168.803 247.136 168.819 245.433 168.901C243.022 169.017 240.401 169.323 238.688 171.021C237.779 171.985 237.162 173.188 236.91 174.488C236.662 175.782 236.537 177.096 236.537 178.413C235.549 176.716 234.716 174.933 234.049 173.086C233.501 171.711 233.188 170.253 233.125 168.774C233.067 167.282 233.563 165.822 234.517 164.672C235.001 164.111 235.632 163.695 236.34 163.473C237.048 163.25 237.804 163.23 238.523 163.413L238.117 163.384Z" fill="#2F2E41"/>
<path d="M266.346 196.669C266.262 196.368 266.091 196.098 265.855 195.894C265.618 195.689 265.326 195.559 265.015 195.52C264.995 195.506 264.973 195.493 264.951 195.481L251.619 188.021C251.239 187.808 250.79 187.749 250.368 187.858C249.945 187.967 249.581 188.234 249.35 188.604L245.704 194.499L240.212 189.015L240.125 188.928C239.843 188.646 239.471 188.473 239.074 188.438C238.677 188.404 238.28 188.51 237.954 188.738L226.997 196.4C226.978 196.4 226.959 196.406 226.94 196.406C226.415 196.493 225.936 196.757 225.582 197.152C225.228 197.548 225.019 198.053 224.991 198.583L224.708 204.292H268.462L266.346 196.669Z" fill="#6E57A5"/>
<path d="M290.766 203.405H282.324C282.324 203.17 282.231 202.944 282.064 202.778C281.898 202.611 281.672 202.518 281.436 202.518H278.77C278.534 202.518 278.308 202.611 278.142 202.778C277.975 202.944 277.882 203.17 277.882 203.405H275.216C275.216 203.17 275.122 202.944 274.955 202.778C274.789 202.611 274.563 202.518 274.327 202.518H271.661C271.426 202.518 271.2 202.611 271.033 202.778C270.866 202.944 270.773 203.17 270.773 203.405H268.107C268.107 203.17 268.013 202.944 267.847 202.778C267.68 202.611 267.454 202.518 267.218 202.518H264.553C264.317 202.518 264.091 202.611 263.924 202.778C263.758 202.944 263.664 203.17 263.664 203.405H260.998C260.998 203.17 260.905 202.944 260.738 202.778C260.571 202.611 260.345 202.518 260.11 202.518H257.444C257.208 202.518 256.982 202.611 256.815 202.778C256.649 202.944 256.555 203.17 256.555 203.405H253.889C253.889 203.17 253.796 202.944 253.629 202.778C253.463 202.611 253.236 202.518 253.001 202.518H250.335C250.099 202.518 249.873 202.611 249.707 202.778C249.54 202.944 249.446 203.17 249.446 203.405H246.781C246.781 203.17 246.687 202.944 246.52 202.778C246.354 202.611 246.128 202.518 245.892 202.518H243.226C242.991 202.518 242.765 202.611 242.598 202.778C242.431 202.944 242.338 203.17 242.338 203.405H239.672C239.672 203.17 239.578 202.944 239.412 202.778C239.245 202.611 239.019 202.518 238.783 202.518H236.117C235.882 202.518 235.656 202.611 235.489 202.778C235.322 202.944 235.229 203.17 235.229 203.405H232.563C232.563 203.17 232.469 202.944 232.303 202.778C232.136 202.611 231.91 202.518 231.674 202.518H229.009C228.773 202.518 228.547 202.611 228.38 202.778C228.214 202.944 228.12 203.17 228.12 203.405H225.454C225.454 203.17 225.361 202.944 225.194 202.778C225.027 202.611 224.801 202.518 224.566 202.518H221.9C221.664 202.518 221.438 202.611 221.272 202.778C221.105 202.944 221.011 203.17 221.011 203.405H218.346C218.346 203.17 218.252 202.944 218.085 202.778C217.919 202.611 217.693 202.518 217.457 202.518H214.791C214.555 202.518 214.329 202.611 214.163 202.778C213.996 202.944 213.903 203.17 213.903 203.405H211.237C211.237 203.17 211.143 202.944 210.976 202.778C210.81 202.611 210.584 202.518 210.348 202.518H207.682C207.447 202.518 207.221 202.611 207.054 202.778C206.887 202.944 206.794 203.17 206.794 203.405H198.352C197.646 203.406 196.969 203.687 196.47 204.186C195.971 204.685 195.69 205.362 195.69 206.067C195.69 206.772 195.971 207.449 196.47 207.948C196.969 208.447 197.646 208.728 198.352 208.729H290.766C291.473 208.729 292.151 208.449 292.651 207.949C293.151 207.45 293.432 206.773 293.432 206.067C293.432 205.361 293.151 204.684 292.651 204.185C292.151 203.686 291.473 203.405 290.766 203.405Z" fill="#3F3D56"/>
<path d="M184.609 187.946V205.622H140.262C139.074 205.663 137.89 205.465 136.78 205.039C135.67 204.614 134.657 203.969 133.802 203.145C132.947 202.32 132.267 201.332 131.803 200.239C131.338 199.146 131.099 197.971 131.099 196.784C131.099 195.597 131.338 194.421 131.803 193.329C132.267 192.236 132.947 191.248 133.802 190.423C134.657 189.598 135.67 188.954 136.78 188.528C137.89 188.103 139.074 187.905 140.262 187.946H184.609Z" fill="#F2F2F2"/>
<path d="M185.7 205.486C185.7 205.666 185.628 205.839 185.5 205.966C185.373 206.094 185.199 206.165 185.019 206.166H139.473C137 206.166 134.627 205.184 132.878 203.438C131.129 201.691 130.146 199.322 130.146 196.852C130.146 194.382 131.129 192.013 132.878 190.266C134.627 188.519 137 187.538 139.473 187.538H185.019C185.199 187.538 185.373 187.61 185.5 187.737C185.628 187.865 185.7 188.037 185.7 188.218C185.7 188.398 185.628 188.571 185.5 188.698C185.373 188.826 185.199 188.898 185.019 188.898H139.473C137.362 188.899 135.338 189.738 133.846 191.23C132.353 192.721 131.515 194.743 131.515 196.852C131.515 198.96 132.353 200.982 133.846 202.474C135.338 203.965 137.362 204.804 139.473 204.806H185.019C185.199 204.806 185.373 204.878 185.5 205.005C185.628 205.133 185.7 205.305 185.7 205.486Z" fill="#6E57A5"/>
<path d="M184.61 192.025H136.954C136.937 192.025 136.919 192.022 136.902 192.015C136.885 192.008 136.87 191.998 136.858 191.985C136.845 191.973 136.835 191.958 136.828 191.941C136.821 191.925 136.817 191.907 136.817 191.889C136.817 191.871 136.821 191.853 136.828 191.837C136.835 191.82 136.845 191.805 136.858 191.792C136.87 191.78 136.885 191.77 136.902 191.763C136.919 191.756 136.937 191.753 136.954 191.753H184.61C184.646 191.753 184.681 191.768 184.706 191.793C184.731 191.819 184.746 191.853 184.746 191.889C184.746 191.925 184.731 191.959 184.706 191.985C184.681 192.01 184.646 192.025 184.61 192.025Z" fill="#CCCCCC"/>
<path d="M184.61 195.288H136.954C136.937 195.288 136.919 195.285 136.902 195.278C136.885 195.271 136.87 195.261 136.858 195.249C136.845 195.236 136.835 195.221 136.828 195.204C136.821 195.188 136.817 195.17 136.817 195.152C136.817 195.134 136.821 195.116 136.828 195.1C136.835 195.083 136.845 195.068 136.858 195.056C136.87 195.043 136.885 195.033 136.902 195.026C136.919 195.019 136.937 195.016 136.954 195.016H184.61C184.646 195.016 184.681 195.031 184.706 195.056C184.731 195.082 184.746 195.116 184.746 195.152C184.746 195.188 184.731 195.222 184.706 195.248C184.681 195.273 184.646 195.288 184.61 195.288Z" fill="#CCCCCC"/>
<path d="M184.61 198.551H136.954C136.937 198.551 136.919 198.548 136.902 198.541C136.885 198.535 136.87 198.525 136.858 198.512C136.845 198.499 136.835 198.484 136.828 198.468C136.821 198.451 136.817 198.433 136.817 198.415C136.817 198.397 136.821 198.38 136.828 198.363C136.835 198.347 136.845 198.332 136.858 198.319C136.87 198.306 136.885 198.296 136.902 198.289C136.919 198.283 136.937 198.279 136.954 198.279H184.61C184.646 198.28 184.681 198.294 184.706 198.32C184.731 198.345 184.746 198.379 184.746 198.415C184.746 198.451 184.731 198.486 184.706 198.511C184.681 198.537 184.646 198.551 184.61 198.551Z" fill="#CCCCCC"/>
<path d="M184.61 201.815H136.954C136.937 201.815 136.919 201.811 136.902 201.804C136.885 201.798 136.87 201.788 136.858 201.775C136.845 201.762 136.835 201.747 136.828 201.731C136.821 201.714 136.817 201.696 136.817 201.679C136.817 201.661 136.821 201.643 136.828 201.626C136.835 201.61 136.845 201.595 136.858 201.582C136.87 201.569 136.885 201.559 136.902 201.553C136.919 201.546 136.937 201.542 136.954 201.543H184.61C184.646 201.543 184.681 201.557 184.706 201.583C184.731 201.608 184.746 201.643 184.746 201.679C184.746 201.714 184.731 201.749 184.706 201.774C184.681 201.8 184.646 201.814 184.61 201.815Z" fill="#CCCCCC"/>
<path d="M176.25 169.323V186.999H131.903C130.715 187.04 129.531 186.842 128.421 186.417C127.311 185.991 126.298 185.347 125.443 184.522C124.588 183.697 123.908 182.709 123.443 181.616C122.979 180.523 122.739 179.348 122.739 178.161C122.739 176.974 122.979 175.799 123.443 174.706C123.908 173.613 124.588 172.625 125.443 171.8C126.298 170.975 127.311 170.331 128.421 169.906C129.531 169.48 130.715 169.282 131.903 169.323H176.25Z" fill="#F2F2F2"/>
<path d="M177.339 186.863C177.339 187.043 177.268 187.216 177.14 187.344C177.012 187.471 176.839 187.543 176.659 187.543H131.113C129.888 187.543 128.675 187.302 127.544 186.834C126.412 186.366 125.384 185.68 124.518 184.815C123.652 183.95 122.965 182.923 122.496 181.793C122.027 180.663 121.786 179.452 121.786 178.229C121.786 177.006 122.027 175.795 122.496 174.665C122.965 173.535 123.652 172.508 124.518 171.643C125.384 170.778 126.412 170.092 127.544 169.624C128.675 169.156 129.888 168.915 131.113 168.915H176.659C176.839 168.915 177.012 168.987 177.14 169.114C177.268 169.242 177.339 169.415 177.339 169.595C177.339 169.775 177.268 169.948 177.14 170.076C177.012 170.203 176.839 170.275 176.659 170.275H131.113C129.002 170.277 126.978 171.116 125.485 172.607C123.993 174.099 123.155 176.121 123.155 178.229C123.155 180.337 123.993 182.36 125.485 183.851C126.978 185.343 129.002 186.181 131.113 186.183H176.659C176.839 186.183 177.012 186.255 177.14 186.382C177.268 186.51 177.339 186.683 177.339 186.863Z" fill="#3F3D56"/>
<path d="M176.25 173.402H128.594C128.576 173.402 128.558 173.399 128.542 173.392C128.525 173.385 128.51 173.375 128.497 173.363C128.484 173.35 128.474 173.335 128.467 173.319C128.461 173.302 128.457 173.284 128.457 173.266C128.457 173.248 128.461 173.231 128.467 173.214C128.474 173.197 128.484 173.182 128.497 173.17C128.51 173.157 128.525 173.147 128.542 173.14C128.558 173.134 128.576 173.13 128.594 173.13H176.25C176.286 173.131 176.32 173.145 176.346 173.17C176.371 173.196 176.385 173.23 176.385 173.266C176.385 173.302 176.371 173.337 176.346 173.362C176.32 173.388 176.286 173.402 176.25 173.402Z" fill="#CCCCCC"/>
<path d="M176.25 176.666H128.594C128.576 176.666 128.558 176.662 128.542 176.655C128.525 176.649 128.51 176.639 128.497 176.626C128.484 176.613 128.474 176.598 128.467 176.582C128.461 176.565 128.457 176.547 128.457 176.53C128.457 176.512 128.461 176.494 128.467 176.477C128.474 176.461 128.484 176.446 128.497 176.433C128.51 176.42 128.525 176.41 128.542 176.404C128.558 176.397 128.576 176.393 128.594 176.394H176.25C176.286 176.394 176.32 176.408 176.346 176.434C176.371 176.459 176.385 176.494 176.385 176.53C176.385 176.565 176.371 176.6 176.346 176.625C176.32 176.651 176.286 176.665 176.25 176.666Z" fill="#CCCCCC"/>
<path d="M176.25 179.929H128.594C128.576 179.929 128.558 179.925 128.542 179.919C128.525 179.912 128.51 179.902 128.497 179.889C128.484 179.877 128.474 179.862 128.467 179.845C128.461 179.828 128.457 179.811 128.457 179.793C128.457 179.775 128.461 179.757 128.467 179.741C128.474 179.724 128.484 179.709 128.497 179.696C128.51 179.684 128.525 179.674 128.542 179.667C128.558 179.66 128.576 179.657 128.594 179.657H176.25C176.286 179.657 176.32 179.671 176.346 179.697C176.371 179.722 176.385 179.757 176.385 179.793C176.385 179.829 176.371 179.863 176.346 179.889C176.32 179.914 176.286 179.928 176.25 179.929Z" fill="#CCCCCC"/>
<path d="M176.25 183.192H128.594C128.576 183.192 128.558 183.189 128.542 183.182C128.525 183.175 128.51 183.165 128.497 183.152C128.484 183.14 128.474 183.125 128.467 183.108C128.461 183.092 128.457 183.074 128.457 183.056C128.457 183.038 128.461 183.02 128.467 183.004C128.474 182.987 128.484 182.972 128.497 182.96C128.51 182.947 128.525 182.937 128.542 182.93C128.558 182.923 128.576 182.92 128.594 182.92H176.25C176.286 182.92 176.32 182.935 176.346 182.96C176.371 182.986 176.385 183.02 176.385 183.056C176.385 183.092 176.371 183.126 176.346 183.152C176.32 183.177 176.286 183.192 176.25 183.192Z" fill="#CCCCCC"/>
<path d="M227.84 268.45V253.038C227.84 252.357 227.569 251.703 227.087 251.222C226.604 250.74 225.95 250.469 225.268 250.469H166.749C166.067 250.469 165.413 250.74 164.93 251.222C164.448 251.703 164.177 252.357 164.177 253.038V268.45H227.84Z" fill="#CCCCCC"/>
<path d="M227.84 274.229H164.177V294.136H227.84V274.229Z" fill="#CCCCCC"/>
<path d="M164.177 299.916V315.327C164.177 316.009 164.448 316.662 164.93 317.144C165.413 317.625 166.067 317.896 166.749 317.896H225.268C225.95 317.896 226.604 317.625 227.087 317.144C227.569 316.662 227.84 316.009 227.84 315.327V299.916H164.177Z" fill="#CCCCCC"/>
<path d="M195.686 262.028C196.752 262.028 197.615 261.166 197.615 260.102C197.615 259.038 196.752 258.175 195.686 258.175C194.621 258.175 193.757 259.038 193.757 260.102C193.757 261.166 194.621 262.028 195.686 262.028Z" fill="white"/>
<path d="M195.686 287.715C196.752 287.715 197.615 286.852 197.615 285.788C197.615 284.724 196.752 283.862 195.686 283.862C194.621 283.862 193.757 284.724 193.757 285.788C193.757 286.852 194.621 287.715 195.686 287.715Z" fill="white"/>
<path d="M195.79 312.857C196.855 312.857 197.719 311.995 197.719 310.931C197.719 309.867 196.855 309.004 195.79 309.004C194.724 309.004 193.86 309.867 193.86 310.931C193.86 311.995 194.724 312.857 195.79 312.857Z" fill="white"/>
<path d="M220.621 232.897V250.573H176.274C175.086 250.614 173.902 250.416 172.792 249.99C171.682 249.565 170.669 248.921 169.814 248.096C168.959 247.271 168.279 246.283 167.814 245.19C167.35 244.097 167.11 242.922 167.11 241.735C167.11 240.548 167.35 239.373 167.814 238.28C168.279 237.187 168.959 236.199 169.814 235.374C170.669 234.549 171.682 233.905 172.792 233.479C173.902 233.054 175.086 232.856 176.274 232.897H220.621Z" fill="#F2F2F2"/>
<path d="M221.71 250.437C221.71 250.617 221.639 250.79 221.511 250.917C221.383 251.045 221.21 251.117 221.03 251.117H175.484C174.259 251.118 173.045 250.877 171.912 250.41C170.78 249.942 169.751 249.256 168.884 248.391C168.017 247.526 167.329 246.499 166.86 245.369C166.391 244.238 166.149 243.027 166.149 241.803C166.149 240.579 166.391 239.367 166.86 238.237C167.329 237.106 168.017 236.079 168.884 235.214C169.751 234.349 170.78 233.663 171.912 233.196C173.045 232.728 174.259 232.488 175.484 232.489H221.03C221.21 232.489 221.383 232.561 221.511 232.688C221.639 232.816 221.71 232.989 221.71 233.169C221.71 233.349 221.639 233.522 221.511 233.65C221.383 233.777 221.21 233.849 221.03 233.849H175.484C173.373 233.851 171.349 234.689 169.856 236.181C168.364 237.672 167.526 239.694 167.526 241.803C167.526 243.911 168.364 245.933 169.856 247.425C171.349 248.916 173.373 249.755 175.484 249.757H221.03C221.21 249.757 221.383 249.829 221.511 249.956C221.639 250.084 221.71 250.256 221.71 250.437Z" fill="#3F3D56"/>
<path d="M220.622 236.976H172.966C172.948 236.976 172.93 236.973 172.914 236.966C172.897 236.959 172.882 236.949 172.869 236.936C172.857 236.924 172.846 236.909 172.84 236.892C172.833 236.876 172.829 236.858 172.829 236.84C172.829 236.822 172.833 236.804 172.84 236.788C172.846 236.771 172.857 236.756 172.869 236.743C172.882 236.731 172.897 236.721 172.914 236.714C172.93 236.707 172.948 236.704 172.966 236.704H220.622C220.658 236.704 220.693 236.719 220.718 236.744C220.743 236.77 220.757 236.804 220.757 236.84C220.757 236.876 220.743 236.91 220.718 236.936C220.693 236.961 220.658 236.976 220.622 236.976Z" fill="#CCCCCC"/>
<path d="M220.622 240.239H172.966C172.948 240.239 172.93 240.236 172.914 240.229C172.897 240.222 172.882 240.212 172.869 240.2C172.857 240.187 172.846 240.172 172.84 240.155C172.833 240.139 172.829 240.121 172.829 240.103C172.829 240.085 172.833 240.068 172.84 240.051C172.846 240.034 172.857 240.019 172.869 240.007C172.882 239.994 172.897 239.984 172.914 239.977C172.93 239.971 172.948 239.967 172.966 239.967H220.622C220.658 239.967 220.693 239.982 220.718 240.007C220.743 240.033 220.757 240.067 220.757 240.103C220.757 240.139 220.743 240.174 220.718 240.199C220.693 240.224 220.658 240.239 220.622 240.239Z" fill="#CCCCCC"/>
<path d="M220.622 243.502H172.966C172.948 243.503 172.93 243.499 172.914 243.492C172.897 243.486 172.882 243.476 172.869 243.463C172.857 243.45 172.846 243.435 172.84 243.419C172.833 243.402 172.829 243.384 172.829 243.366C172.829 243.349 172.833 243.331 172.84 243.314C172.846 243.298 172.857 243.283 172.869 243.27C172.882 243.257 172.897 243.247 172.914 243.241C172.93 243.234 172.948 243.23 172.966 243.23H220.622C220.658 243.231 220.693 243.245 220.718 243.271C220.743 243.296 220.757 243.331 220.757 243.366C220.757 243.402 220.743 243.437 220.718 243.462C220.693 243.488 220.658 243.502 220.622 243.502Z" fill="#CCCCCC"/>
<path d="M220.622 246.766H172.966C172.948 246.766 172.93 246.762 172.914 246.756C172.897 246.749 172.882 246.739 172.869 246.726C172.857 246.714 172.846 246.698 172.84 246.682C172.833 246.665 172.829 246.648 172.829 246.63C172.829 246.612 172.833 246.594 172.84 246.577C172.846 246.561 172.857 246.546 172.869 246.533C172.882 246.521 172.897 246.511 172.914 246.504C172.93 246.497 172.948 246.494 172.966 246.494H220.622C220.658 246.494 220.693 246.508 220.718 246.534C220.743 246.559 220.757 246.594 220.757 246.63C220.757 246.666 220.743 246.7 220.718 246.725C220.693 246.751 220.658 246.765 220.622 246.766Z" fill="#CCCCCC"/>
<path d="M160.837 117.529V4.82995C160.838 3.54942 161.348 2.32175 162.255 1.41627C163.162 0.510798 164.391 0.00145657 165.674 0H254.885C256.167 0.00146505 257.397 0.51081 258.303 1.41628C259.21 2.32176 259.72 3.54942 259.722 4.82995V117.529C259.72 118.809 259.21 120.037 258.303 120.942C257.397 121.848 256.167 122.357 254.885 122.359H165.674C164.391 122.357 163.162 121.848 162.255 120.942C161.348 120.037 160.838 118.809 160.837 117.529ZM165.674 1.07332C164.676 1.07444 163.72 1.47059 163.015 2.17485C162.31 2.87911 161.913 3.83398 161.912 4.82995V117.529C161.913 118.525 162.31 119.48 163.015 120.184C163.72 120.888 164.676 121.284 165.674 121.285H254.885C255.882 121.284 256.839 120.888 257.544 120.184C258.249 119.48 258.646 118.525 258.647 117.529V4.82995C258.646 3.83398 258.249 2.87911 257.544 2.17485C256.839 1.47059 255.882 1.07444 254.885 1.07332H165.674Z" fill="#E6E6E6"/>
<path d="M215.282 51.7565V28.6159C215.283 27.9756 215.538 27.3618 215.991 26.909C216.445 26.4563 217.059 26.2016 217.701 26.2009H237.338C237.979 26.2016 238.594 26.4563 239.047 26.909C239.5 27.3618 239.755 27.9756 239.756 28.6159V51.7565C239.755 52.3968 239.5 53.0106 239.047 53.4633C238.594 53.9161 237.979 54.1708 237.338 54.1715H217.701C217.059 54.1708 216.445 53.9161 215.991 53.4633C215.538 53.0106 215.283 52.3968 215.282 51.7565Z" fill="#6E57A5"/>
<path d="M177.125 62.4897V39.3491C177.126 38.7088 177.381 38.095 177.834 37.6422C178.287 37.1895 178.902 36.9349 179.543 36.9341H199.181C199.822 36.9349 200.437 37.1895 200.89 37.6422C201.343 38.095 201.598 38.7088 201.599 39.3491V62.4897C201.598 63.13 201.343 63.7438 200.89 64.1966C200.437 64.6493 199.822 64.904 199.181 64.9047H179.543C178.902 64.904 178.288 64.6493 177.834 64.1966C177.381 63.7438 177.126 63.13 177.125 62.4897Z" fill="#CCCCCC"/>
<path d="M207.758 95.226V72.0854C207.759 71.4451 208.014 70.8313 208.467 70.3785C208.92 69.9258 209.535 69.6712 210.176 69.6704H229.813C230.455 69.6712 231.069 69.9258 231.523 70.3785C231.976 70.8313 232.231 71.4451 232.232 72.0854V95.226C232.231 95.8663 231.976 96.4801 231.523 96.9329C231.069 97.3856 230.455 97.6403 229.813 97.641H210.176C209.535 97.6403 208.92 97.3856 208.467 96.9329C208.014 96.4801 207.759 95.8663 207.758 95.226Z" fill="#FF6584"/>
<path d="M325.109 201.023H304.904C304.712 201.023 304.523 201.067 304.351 201.152L299.251 203.701C299.084 203.772 298.94 203.891 298.84 204.043C298.739 204.195 298.686 204.373 298.686 204.555C298.686 204.737 298.739 204.915 298.84 205.067C298.94 205.219 299.084 205.338 299.251 205.409L304.351 207.959C304.523 208.043 304.712 208.087 304.904 208.087H325.109C325.387 208.103 325.661 208.009 325.87 207.825C326.08 207.641 326.208 207.382 326.228 207.104V202.006C326.208 201.728 326.08 201.469 325.87 201.285C325.661 201.101 325.387 201.007 325.109 201.023Z" fill="#3F3D56"/>
<path d="M326.228 202.006V207.104C326.209 207.382 326.08 207.641 325.871 207.825C325.661 208.009 325.388 208.103 325.109 208.087H321.084V201.023H325.109C325.388 201.007 325.661 201.101 325.871 201.285C326.08 201.469 326.209 201.728 326.228 202.006Z" fill="#6E57A5"/>
<path d="M324.957 162.879C325.872 162.485 326.86 162.288 327.857 162.301C328.854 162.315 329.836 162.539 330.74 162.958C331.644 163.377 332.45 163.982 333.103 164.734C333.757 165.485 334.244 166.366 334.532 167.319C334.622 167.621 334.691 167.929 334.738 168.241L362.993 182.232L369.532 177.905L377.668 187.258L367.684 195.356C366.483 196.322 365.003 196.876 363.462 196.935C361.921 196.994 360.402 196.556 359.13 195.685L330.463 175.888C330.25 175.979 330.032 176.058 329.81 176.126C328.856 176.414 327.852 176.498 326.863 176.371C325.874 176.245 324.923 175.911 324.073 175.392C323.222 174.873 322.491 174.181 321.927 173.36C321.363 172.539 320.979 171.608 320.801 170.629C320.748 170.345 320.713 170.057 320.696 169.769C320.617 168.323 320.982 166.888 321.744 165.656C322.506 164.425 323.627 163.455 324.957 162.879Z" fill="#FFB8B8"/>
<path d="M383.807 249.024H352.933C352.933 249.91 321.115 250.629 321.115 250.629C320.615 251.005 320.16 251.435 319.758 251.913C318.549 253.353 317.889 255.172 317.893 257.051V258.335C317.893 260.464 318.74 262.505 320.248 264.01C321.755 265.515 323.799 266.361 325.931 266.362H383.807C385.938 266.36 387.981 265.514 389.488 264.009C390.996 262.504 391.843 260.463 391.845 258.335V257.051C391.842 254.923 390.994 252.883 389.487 251.378C387.98 249.873 385.938 249.027 383.807 249.024Z" fill="#3F3D56"/>
<path d="M350.224 319.984H358.584V266.043H350.224V319.984Z" fill="#3F3D56"/>
<path d="M326.431 319.691C326.431 320.593 339.099 320.04 354.725 320.04C370.352 320.04 383.02 320.593 383.02 319.691C383.02 318.789 370.352 311.636 354.725 311.636C339.099 311.636 326.431 318.789 326.431 319.691Z" fill="#3F3D56"/>
<path d="M333.977 313.369L326.094 313.368L322.343 292.949L333.978 292.95L333.977 313.369Z" fill="#FFB8B8"/>
<path d="M335.988 321L310.567 320.999V320.678C310.567 319.38 310.823 318.096 311.321 316.897C311.818 315.698 312.547 314.609 313.465 313.691C314.384 312.774 315.475 312.046 316.675 311.55C317.876 311.053 319.163 310.798 320.462 310.798H320.463L335.989 310.798L335.988 321Z" fill="#2F2E41"/>
<path d="M322.186 300.707L306.469 265.511C305.156 262.545 305.011 259.194 306.062 256.126C307.113 253.057 309.283 250.497 312.14 248.954L346.231 230.699L361.787 229.378L376.137 228.075L376.24 228.25C376.373 228.473 379.458 233.795 377.372 239.63C375.79 244.056 371.676 247.514 365.142 249.906C349.892 255.49 332.276 260.262 325.409 262.054C325.106 262.132 324.822 262.273 324.577 262.467C324.332 262.662 324.131 262.906 323.988 263.184C323.843 263.459 323.758 263.76 323.736 264.07C323.714 264.379 323.757 264.69 323.861 264.982L338.463 297.741C338.616 298.157 338.67 298.601 338.624 299.041C338.577 299.481 338.429 299.905 338.192 300.279C337.956 300.653 337.636 300.968 337.258 301.199C336.881 301.43 336.455 301.572 336.013 301.613L325.103 302.406C325.01 302.415 324.918 302.419 324.826 302.419C324.267 302.419 323.721 302.257 323.252 301.953C322.783 301.649 322.413 301.216 322.186 300.707Z" fill="#2F2E41"/>
<path d="M337.836 313.369L329.952 313.368L326.201 292.949L337.837 292.95L337.836 313.369Z" fill="#FFB8B8"/>
<path d="M339.846 321L314.426 320.999V320.678C314.426 319.38 314.682 318.096 315.179 316.897C315.676 315.698 316.405 314.609 317.324 313.691C318.243 312.774 319.333 312.046 320.534 311.55C321.734 311.053 323.021 310.798 324.32 310.798H324.321L339.847 310.798L339.846 321Z" fill="#2F2E41"/>
<path d="M326.687 302.633L310.97 267.438C309.657 264.472 309.512 261.12 310.563 258.052C311.614 254.984 313.784 252.423 316.641 250.88L350.732 232.625L366.288 231.304L380.638 230.002L380.741 230.176C380.874 230.4 383.959 235.721 381.873 241.557C380.291 245.983 376.177 249.44 369.643 251.832C354.393 257.416 336.777 262.188 329.91 263.981C329.607 264.058 329.323 264.199 329.078 264.394C328.833 264.589 328.632 264.833 328.489 265.111C328.344 265.385 328.259 265.687 328.237 265.996C328.215 266.306 328.258 266.616 328.362 266.908L342.964 299.668C343.117 300.083 343.171 300.528 343.125 300.968C343.078 301.408 342.93 301.831 342.693 302.205C342.457 302.58 342.137 302.894 341.759 303.126C341.382 303.357 340.956 303.498 340.514 303.539L329.604 304.333C329.511 304.341 329.419 304.346 329.327 304.346C328.768 304.346 328.222 304.184 327.753 303.88C327.284 303.576 326.914 303.143 326.687 302.633Z" fill="#2F2E41"/>
<path d="M318.853 195.116C312.249 186.343 307.028 176.613 303.371 166.263C303.159 165.644 303.175 164.97 303.414 164.361C303.653 163.752 304.101 163.247 304.678 162.937L327.278 150.844C327.644 150.647 328.05 150.536 328.465 150.519C328.88 150.502 329.294 150.58 329.674 150.747C330.062 150.915 330.406 151.169 330.68 151.49C330.954 151.811 331.152 152.19 331.257 152.599C333.888 162.573 338.832 171.788 345.691 179.499C345.973 179.813 346.18 180.187 346.296 180.593C346.412 180.999 346.433 181.426 346.359 181.841C346.287 182.25 346.123 182.637 345.879 182.973C345.635 183.308 345.318 183.584 344.951 183.779L322.35 195.872C321.772 196.18 321.103 196.273 320.463 196.134C319.823 195.996 319.252 195.635 318.853 195.116Z" fill="#CCCCCC"/>
<path d="M320.396 193.959C320.517 194.11 320.688 194.215 320.879 194.254C321.069 194.293 321.267 194.265 321.439 194.174L344.04 182.081C344.149 182.024 344.245 181.942 344.317 181.842C344.39 181.742 344.439 181.627 344.459 181.505C344.483 181.376 344.476 181.244 344.44 181.118C344.404 180.992 344.339 180.877 344.25 180.781C337.19 172.842 332.099 163.355 329.391 153.087C329.36 152.961 329.3 152.843 329.215 152.743C329.13 152.643 329.024 152.564 328.904 152.513C328.79 152.462 328.667 152.439 328.543 152.444C328.419 152.449 328.298 152.482 328.19 152.542L305.589 164.635C305.418 164.727 305.285 164.877 305.212 165.057C305.139 165.237 305.132 165.437 305.191 165.622C308.782 175.787 313.91 185.343 320.396 193.959Z" fill="white"/>
<path d="M393.936 191.89L376.236 198.607L371.915 186.62C371.341 185.028 371.349 183.285 371.938 181.699C372.526 180.113 373.657 178.785 375.131 177.951C376.622 177.107 378.366 176.824 380.048 177.152C381.73 177.48 383.239 178.397 384.303 179.739L393.936 191.89Z" fill="#6E57A5"/>
<path d="M348.915 239.384C348.542 239.121 348.23 238.782 347.999 238.389C347.768 237.996 347.624 237.559 347.575 237.105C345.308 215.972 346.887 199.434 352.402 186.545C353.373 184.322 354.836 182.348 356.682 180.771C358.527 179.194 360.706 178.055 363.055 177.44L377.363 176.718L377.437 176.754C380.666 178.333 383.299 180.909 384.946 184.101C386.593 187.292 387.167 190.928 386.581 194.47C381.979 206.583 378.126 219.195 381.065 229.369C381.188 229.795 381.224 230.24 381.17 230.68C381.117 231.119 380.975 231.544 380.754 231.927C380.539 232.298 380.25 232.621 379.905 232.876C379.561 233.131 379.168 233.312 378.75 233.41L351.498 239.884C351.057 239.988 350.598 239.998 350.153 239.912C349.707 239.826 349.285 239.646 348.915 239.384Z" fill="#6E57A5"/>
<path d="M372.588 171.382C381.311 171.382 388.383 164.321 388.383 155.61C388.383 146.899 381.311 139.838 372.588 139.838C363.865 139.838 356.794 146.899 356.794 155.61C356.794 164.321 363.865 171.382 372.588 171.382Z" fill="#FFB8B8"/>
<path d="M328.762 168.102L316.452 173.528C315.984 173.734 315.454 173.745 314.977 173.561C314.5 173.376 314.116 173.01 313.909 172.543L313.604 171.855C313.398 171.387 313.386 170.857 313.571 170.381C313.756 169.905 314.122 169.521 314.59 169.314L326.899 163.888C327.367 163.683 327.898 163.671 328.375 163.855C328.852 164.04 329.236 164.406 329.443 164.873L329.748 165.561C329.954 166.029 329.965 166.559 329.781 167.035C329.596 167.511 329.229 167.895 328.762 168.102Z" fill="#CCCCCC"/>
<path d="M333.264 176.45L320.954 181.876C320.486 182.082 319.956 182.093 319.479 181.909C319.002 181.724 318.618 181.358 318.41 180.891L318.106 180.203C317.9 179.735 317.888 179.205 318.073 178.729C318.258 178.253 318.624 177.869 319.092 177.662L331.401 172.236C331.869 172.031 332.4 172.019 332.877 172.203C333.354 172.388 333.738 172.754 333.945 173.221L334.25 173.909C334.456 174.377 334.467 174.907 334.283 175.383C334.098 175.859 333.731 176.243 333.264 176.45Z" fill="#CCCCCC"/>
<path d="M342.756 209.057L315.314 187.438C315.096 187.515 314.873 187.58 314.648 187.634C313.679 187.86 312.674 187.881 311.697 187.694C310.72 187.506 309.793 187.116 308.977 186.548C308.156 185.98 307.466 185.242 306.953 184.386C306.439 183.53 306.115 182.574 306.002 181.582C305.818 179.997 306.176 178.396 307.018 177.039C307.859 175.683 309.135 174.65 310.638 174.108C311.576 173.772 312.575 173.638 313.569 173.714C314.563 173.79 315.529 174.075 316.405 174.551C317.281 175.026 318.046 175.68 318.651 176.471C319.256 177.263 319.687 178.172 319.915 179.141C319.986 179.448 320.035 179.76 320.062 180.074L347.381 195.811L354.179 191.903L361.71 201.749L351.155 209.261C349.919 210.134 348.434 210.585 346.922 210.548C345.409 210.511 343.948 209.988 342.756 209.057Z" fill="#FFB8B8"/>
<path d="M365.058 204.815L349.4 194.182L356.759 183.775C357.736 182.393 359.171 181.4 360.81 180.973C362.449 180.545 364.187 180.709 365.716 181.437C367.263 182.174 368.495 183.438 369.19 185.002C369.885 186.566 369.998 188.327 369.506 189.967L365.058 204.815Z" fill="#6E57A5"/>
<path d="M366.798 153.261C362.738 156.035 357.408 158.887 353.262 155.933C350.539 153.993 349.682 150.4 350.786 147.247C352.771 141.578 358.225 139.082 363.441 137.169C370.222 134.682 377.605 132.703 384.605 134.485C391.605 136.266 397.792 143.034 396.528 150.136C395.512 155.847 390.117 160.6 390.883 166.35C391.653 172.137 398.171 175.183 403.925 176.218C409.679 177.252 416.118 177.584 420.253 181.712C425.528 186.977 424.211 196.387 419.247 201.946C414.283 207.504 406.793 210.024 399.535 211.737C389.918 214.007 379.517 215.199 370.383 211.433C361.25 207.666 354.142 197.527 356.788 188.02C357.906 184.004 360.538 180.61 363.083 177.306C365.627 174.002 368.203 170.546 369.174 166.493C369.983 163.114 369.384 159.192 367.141 156.658C366.733 156.214 366.476 155.653 366.407 155.055C366.339 154.456 366.462 153.852 366.758 153.328L366.798 153.261Z" fill="#2F2E41"/>
<path d="M70.1399 229.892C66.07 231.32 61.7002 231.678 57.4517 230.931C53.2031 230.183 49.2188 228.356 45.8828 225.625C37.3866 218.504 34.7228 206.772 32.5554 195.909C30.4184 185.199 28.2815 174.488 26.1445 163.778L39.5663 173.007C49.2185 179.644 59.0881 186.493 65.7712 196.106C72.4543 205.719 75.3715 218.842 70.0018 229.243" fill="#E6E6E6"/>
<path d="M68.9932 268.793C70.3517 258.912 71.7485 248.903 70.7956 238.916C69.9494 230.047 67.2396 221.384 61.7228 214.28C58.7944 210.517 55.2312 207.293 51.1933 204.752C50.1404 204.089 49.1713 205.755 50.2196 206.416C57.2064 210.825 62.6103 217.336 65.6524 225.01C69.0124 233.544 69.5519 242.847 68.9729 251.913C68.6228 257.395 67.8807 262.841 67.1329 268.281C67.0739 268.527 67.1107 268.786 67.2358 269.006C67.3608 269.226 67.5649 269.39 67.8066 269.465C68.0533 269.532 68.3162 269.498 68.5383 269.372C68.7604 269.247 68.9239 269.038 68.9932 268.793H68.9932Z" fill="#F2F2F2"/>
<path d="M55.9089 251.308C54.1634 253.957 51.764 256.113 48.9421 257.567C46.1201 259.021 42.9707 259.726 39.7971 259.612C31.641 259.225 24.8414 253.541 18.7206 248.144L0.616211 232.182L12.5983 231.609C21.2151 231.197 30.0542 230.813 38.2614 233.467C46.4686 236.12 54.0377 242.506 55.5385 250.989" fill="#E6E6E6"/>
<path d="M72.8318 274.473C66.2933 262.92 58.7092 250.08 45.1577 245.976C41.3897 244.839 37.4387 244.431 33.5175 244.776C32.2817 244.882 32.5903 246.784 33.8239 246.678C40.3967 246.133 46.9568 247.866 52.3997 251.586C57.6374 255.146 61.7155 260.095 65.1672 265.344C67.2815 268.559 69.1753 271.911 71.0695 275.258C71.6748 276.327 73.4442 275.555 72.8318 274.473Z" fill="#F2F2F2"/>
<path d="M83.309 286.633C83.0887 284.084 82.1722 281.644 80.6593 279.58C79.1464 277.515 77.0951 275.904 74.7288 274.923V268.243H63.5106V275.133C61.2608 276.162 59.3246 277.769 57.8994 279.79C56.4741 281.81 55.6109 284.171 55.3976 286.633L52.7598 317.254H85.9469L83.309 286.633Z" fill="#F2F2F2"/>
</g>
<defs>
<clipPath id="clip0_345:322">
<rect width="445" height="321" fill="white"/>
</clipPath>
</defs>
</svg>
