<svg width="82" height="71" viewBox="0 0 82 71" fill="none" xmlns="http://www.w3.org/2000/svg">
<path d="M23.9158 0.916687C18.2568 0.916687 13.6658 5.56054 13.6658 11.2917C13.6658 17.0197 18.2568 21.6667 23.9158 21.6667C29.5749 21.6667 34.1658 17.0197 34.1658 11.2917C34.1658 5.56054 29.5749 0.916687 23.9158 0.916687ZM23.9158 14.7497C22.0278 14.7497 20.4995 13.1986 20.4995 11.2917C20.4995 9.37957 22.0278 7.8337 23.9158 7.8337C25.8049 7.8337 27.3332 9.38061 27.3332 11.2917C27.3332 13.1986 25.8049 14.7497 23.9158 14.7497Z" fill="#263238"/>
<path d="M13.6663 28.5817L0 42.4157L4.83185 47.3054L13.6663 38.3643V70.0817H20.5V56.2487H27.3337V70.0817H34.1663V28.5817H13.6663ZM27.3337 49.3317H20.5V35.4987H27.3337V49.3317Z" fill="#263238"/>
<path d="M82 42.4157L68.3337 28.5817H47.8337L41 59.7067H47.8337V70.0817H54.6663V59.7067H61.5V70.0817H68.3337V59.7067H75.1663L71.0909 41.1593L77.1682 47.3054L82 42.4157ZM49.5188 52.7907L53.3164 35.4987H62.852L66.6496 52.7907H49.5188Z" fill="#634B9F"/>
<path d="M58.0842 0.916687C52.4251 0.916687 47.8342 5.56054 47.8342 11.2917C47.8342 17.0197 52.4251 21.6667 58.0842 21.6667C63.7432 21.6667 68.3342 17.0197 68.3342 11.2917C68.3342 5.56054 63.7432 0.916687 58.0842 0.916687ZM58.0842 14.7497C56.1951 14.7497 54.6668 13.1986 54.6668 11.2917C54.6668 9.37957 56.1951 7.8337 58.0842 7.8337C59.9722 7.8337 61.5005 9.38061 61.5005 11.2917C61.5005 13.1986 59.9722 14.7497 58.0842 14.7497Z" fill="#634B9F"/>
</svg>
