<svg width="77" height="74" viewBox="0 0 77 74" fill="none" xmlns="http://www.w3.org/2000/svg">
<path fill-rule="evenodd" clip-rule="evenodd" d="M0 17.1005C0 26.5452 8.00129 34.201 17.8723 34.201C27.7433 34.201 35.7446 26.5452 35.7446 17.1005C35.7446 7.65576 27.7433 0 17.8723 0C8.00129 0 0 7.65576 0 17.1005ZM5.49917 17.1005C5.49917 10.5628 11.0396 5.26169 17.8723 5.26169C24.705 5.26169 30.2454 10.5628 30.2454 17.1005C30.2454 23.6381 24.705 28.9393 17.8723 28.9393C11.0396 28.9393 5.49917 23.6381 5.49917 17.1005Z" fill="#6E57A5"/>
<path fill-rule="evenodd" clip-rule="evenodd" d="M60.49 15.7839C56.2666 15.7839 52.046 17.3243 48.8249 20.4076L21.329 46.7161C14.8854 52.8775 14.8854 62.8747 21.329 69.0388C27.7727 75.2016 38.2156 75.2016 44.6592 69.0401L72.1551 42.7304C78.5987 36.5663 78.5987 26.5704 72.1551 20.4076C68.9326 17.3243 64.7133 15.7839 60.49 15.7839ZM60.49 21.0456C63.3056 21.0456 66.1184 22.073 68.2672 24.1277C72.5634 28.237 72.5634 34.901 68.2672 39.0104L40.7713 65.3175C36.4751 69.4269 29.5132 69.4269 25.2169 65.3188C20.9207 61.2094 20.9207 54.5455 25.2169 50.4374L52.7128 24.1277C54.8616 22.073 57.6744 21.0456 60.49 21.0456Z" fill="#6E57A5"/>
<path fill-rule="evenodd" clip-rule="evenodd" d="M35.0803 37.283L54.5199 55.8831L58.4078 52.1631L38.9682 33.563L35.0803 37.283Z" fill="#6E57A5"/>
<path fill-rule="evenodd" clip-rule="evenodd" d="M9.12508 29.1912L30.5086 8.73113L26.6207 5.01111L5.23718 25.4712L9.12508 29.1912Z" fill="#6E57A5"/>
</svg>
