<svg width="122" height="358" viewBox="0 0 122 358" fill="none" xmlns="http://www.w3.org/2000/svg">
<path d="M42.0765 303.075C83.4829 373.034 144.651 358.876 170.06 343.052L184.176 4.49902C167.969 -0.602173 125.83 -1.31009 86.9335 36.6678C38.3123 84.14 -17.2099 73.8336 8.51224 152.85C34.2344 231.866 -9.68149 215.626 42.0765 303.075Z" stroke="#6E57A5" stroke-width="3"/>
<path d="M48.3502 303.075C89.7566 373.034 150.925 358.876 176.334 343.052L190.449 4.49902C174.242 -0.602173 132.104 -1.31009 93.2071 36.6678C44.586 84.14 -10.9362 73.8336 14.7859 152.85C40.5081 231.866 -3.40781 215.626 48.3502 303.075Z" stroke="#6E57A5" stroke-width="3"/>
<path d="M54.6239 303.075C96.0303 373.034 157.199 358.876 182.607 343.052L196.723 4.49902C180.516 -0.602173 138.378 -1.31009 99.4808 36.6678C50.8597 84.14 -4.66257 73.8336 21.0596 152.85C46.7818 231.866 2.86588 215.626 54.6239 303.075Z" stroke="#6E57A5" stroke-width="3"/>
<path d="M54.6239 303.075C96.0303 373.034 157.199 358.876 182.607 343.052L196.723 4.49902C180.516 -0.602173 138.378 -1.31009 99.4808 36.6678C50.8597 84.14 -4.66257 73.8336 21.0596 152.85C46.7818 231.866 2.86588 215.626 54.6239 303.075Z" stroke="#6E57A5" stroke-width="3"/>
<path d="M59.6429 303.075C101.049 373.034 162.218 358.876 187.626 343.052L201.742 4.49902C185.535 -0.602173 143.397 -1.31009 104.5 36.6678C55.8787 84.14 0.356476 73.8336 26.0786 152.85C51.8008 231.866 7.88492 215.626 59.6429 303.075Z" stroke="#6E57A5" stroke-width="3"/>
<path d="M65.9166 303.075C107.323 373.034 168.492 358.876 193.9 343.052L208.016 4.49902C191.809 -0.602173 149.67 -1.31009 110.774 36.6678C62.1524 84.14 6.63016 73.8336 32.3523 152.85C58.0745 231.866 14.1586 215.626 65.9166 303.075Z" stroke="#6E57A5" stroke-width="3"/>
</svg>
