<svg width="14" height="14" viewBox="0 0 14 14" fill="none" xmlns="http://www.w3.org/2000/svg">
<path d="M8.672 0.879997C8.288 0.879997 7.968 1.056 7.712 1.408C7.424 1.76 7.376 2.16 7.568 2.608C8.048 3.728 8.336 4.672 8.432 5.44C8.528 6.208 8.544 6.88 8.48 7.456C8.416 8 8.32 8.528 8.192 9.04C8.064 9.552 8 10.128 8 10.768C8 11.536 8.24 12.16 8.72 12.64C9.2 13.088 9.792 13.312 10.496 13.312C11.296 13.312 11.936 12.976 12.416 12.304C12.896 11.6 13.136 10.656 13.136 9.472C13.136 8.736 12.992 7.888 12.704 6.928C12.384 5.968 12 5.024 11.552 4.096C11.104 3.168 10.624 2.4 10.112 1.792C9.6 1.184 9.12 0.879997 8.672 0.879997ZM1.664 0.879997C1.28 0.879997 0.959999 1.056 0.704 1.408C0.415999 1.76 0.368 2.16 0.56 2.608C1.04 3.728 1.328 4.672 1.424 5.44C1.52 6.208 1.536 6.88 1.472 7.456C1.408 8 1.312 8.528 1.184 9.04C1.056 9.552 0.991999 10.128 0.991999 10.768C0.991999 11.536 1.232 12.16 1.712 12.64C2.192 13.088 2.784 13.312 3.488 13.312C4.288 13.312 4.928 12.976 5.408 12.304C5.888 11.6 6.128 10.656 6.128 9.472C6.128 8.736 5.984 7.888 5.696 6.928C5.376 5.968 4.992 5.024 4.544 4.096C4.096 3.168 3.616 2.4 3.104 1.792C2.592 1.184 2.112 0.879997 1.664 0.879997Z" fill="#6E57A5"/>
</svg>
