<svg width="14" height="14" viewBox="0 0 14 14" fill="none" xmlns="http://www.w3.org/2000/svg">
<path d="M5.328 0.879997C5.712 0.879997 6.032 1.056 6.288 1.408C6.576 1.76 6.624 2.16 6.432 2.608C5.952 3.728 5.664 4.672 5.568 5.44C5.472 6.208 5.456 6.88 5.52 7.456C5.584 8 5.68 8.528 5.808 9.04C5.936 9.552 6 10.128 6 10.768C6 11.536 5.76 12.16 5.28 12.64C4.8 13.088 4.208 13.312 3.504 13.312C2.704 13.312 2.064 12.976 1.584 12.304C1.104 11.6 0.864 10.656 0.864 9.472C0.864 8.736 1.008 7.888 1.296 6.928C1.616 5.968 2 5.024 2.448 4.096C2.896 3.168 3.376 2.4 3.888 1.792C4.4 1.184 4.88 0.879997 5.328 0.879997ZM12.336 0.879997C12.72 0.879997 13.04 1.056 13.296 1.408C13.584 1.76 13.632 2.16 13.44 2.608C12.96 3.728 12.672 4.672 12.576 5.44C12.48 6.208 12.464 6.88 12.528 7.456C12.592 8 12.688 8.528 12.816 9.04C12.944 9.552 13.008 10.128 13.008 10.768C13.008 11.536 12.768 12.16 12.288 12.64C11.808 13.088 11.216 13.312 10.512 13.312C9.712 13.312 9.072 12.976 8.592 12.304C8.112 11.6 7.872 10.656 7.872 9.472C7.872 8.736 8.016 7.888 8.304 6.928C8.624 5.968 9.008 5.024 9.456 4.096C9.904 3.168 10.384 2.4 10.896 1.792C11.408 1.184 11.888 0.879997 12.336 0.879997Z" fill="#6E57A5"/>
</svg>
