<svg width="16" height="16" viewBox="0 0 16 16" fill="none" xmlns="http://www.w3.org/2000/svg">
<g clip-path="url(#clip0)">
<path d="M11.3806 15.0937H3.7111C1.66165 15.0937 0 13.432 0 11.382V3.71249C0 1.66303 1.66165 0.00137329 3.7111 0.00137329H11.3806C13.43 0.00137329 15.0917 1.66303 15.0917 3.71249V11.382C15.0922 13.432 13.4306 15.0937 11.3806 15.0937Z" fill="black"/>
<path d="M6.27124 6.42421V5.96797C6.11291 5.94292 5.95299 5.92923 5.79271 5.92701C4.24097 5.9239 2.86758 6.92919 2.40149 8.40886C1.93539 9.88854 2.48548 11.4999 3.75881 12.3859C2.42274 10.956 2.49896 8.71372 3.92886 7.37765C4.56601 6.78287 5.39983 6.44347 6.27124 6.42421V6.42421Z" fill="#25F4EE"/>
<path d="M6.35725 11.5901C7.22463 11.589 7.9375 10.9057 7.97586 10.0389V2.30509H9.38865C9.35975 2.14359 9.34604 1.97973 9.34769 1.81567H7.41542V9.54167C7.38327 10.4127 6.66832 11.1027 5.7968 11.1043C5.53654 11.1022 5.27991 11.0379 5.04919 10.9176C5.1988 11.1249 5.39528 11.2938 5.6226 11.4107C5.84992 11.5276 6.10165 11.589 6.35725 11.5901V11.5901ZM12.0271 4.92899V4.49919C11.5071 4.49919 10.9984 4.34573 10.5655 4.05799C10.945 4.49954 11.4581 4.80533 12.0271 4.92899V4.92899Z" fill="#25F4EE"/>
<path d="M10.566 4.05847C10.1392 3.57267 9.90405 2.94805 9.90445 2.30142H9.3886C9.45502 2.65898 9.5937 2.99922 9.79615 3.30134C9.99859 3.60345 10.2605 3.86108 10.566 4.05847V4.05847ZM5.79266 7.85978C4.89678 7.86445 4.17407 8.59443 4.17873 9.49032C4.18021 9.78441 4.2616 10.0726 4.4142 10.324C4.56679 10.5754 4.78485 10.7806 5.04506 10.9176C4.52091 10.1939 4.68266 9.18184 5.40641 8.65716C5.68295 8.45687 6.01579 8.34924 6.35724 8.34972C6.51952 8.35179 6.68076 8.3772 6.83577 8.4249V6.4584C6.67764 6.43455 6.51744 6.4221 6.35724 6.42107H6.27118V7.91629C6.11513 7.87378 5.95389 7.85511 5.79266 7.85978V7.85978Z" fill="#FE2C55"/>
<path d="M12.0271 4.92899V6.42421C11.0645 6.42237 10.1269 6.11764 9.34717 5.55321V9.48155C9.34302 11.4418 7.75293 13.0288 5.79265 13.0288C5.06465 13.0302 4.35417 12.8056 3.75928 12.3859C5.09326 13.8205 7.33764 13.9024 8.77272 12.5684C9.12972 12.2366 9.41447 11.8347 9.6092 11.3879C9.80393 10.9411 9.90446 10.4589 9.90451 9.97149V6.05404C10.6869 6.61449 11.6256 6.91516 12.588 6.91364V4.98913C12.3993 4.98809 12.2116 4.96839 12.0271 4.92899V4.92899Z" fill="#FE2C55"/>
<path d="M9.34719 9.48208V5.55372C10.1294 6.11462 11.0682 6.41534 12.0307 6.41332V4.91809C11.4621 4.79787 10.9479 4.4962 10.5656 4.05848C10.2603 3.86093 9.9984 3.60325 9.79597 3.30116C9.59354 2.99908 9.45478 2.65891 9.38815 2.30142H7.97537V10.0389C7.93856 10.9343 7.18369 11.6301 6.28832 11.5938C6.04337 11.5838 5.80386 11.5185 5.5878 11.4026C5.37174 11.2868 5.18476 11.1235 5.04092 10.925C4.2482 10.5076 3.94387 9.52667 4.36123 8.73395C4.49819 8.47366 4.70337 8.25554 4.95479 8.10293C5.20622 7.95032 5.49442 7.86897 5.78853 7.8676C5.9508 7.86916 6.11204 7.89404 6.26706 7.94226V6.42473C4.31042 6.45791 2.75091 8.09365 2.78409 10.0503C2.7991 10.9364 3.14556 11.7847 3.75515 12.428C4.35589 12.8338 5.06735 13.044 5.79216 13.0299C7.75295 13.0294 9.34305 11.4424 9.34719 9.48208Z" fill="white"/>
</g>
<defs>
<clipPath id="clip0">
<rect width="15.1246" height="15.0943" fill="white"/>
</clipPath>
</defs>
</svg>
