<svg width="571" height="398" viewBox="0 0 571 398" fill="none" xmlns="http://www.w3.org/2000/svg">
<path d="M113.768 398C176.6 398 227.536 394.124 227.536 389.344C227.536 384.563 176.6 380.687 113.768 380.687C50.9357 380.687 0 384.563 0 389.344C0 394.124 50.9357 398 113.768 398Z" fill="#E6E6E6"/>
<path d="M86.9619 88.3092C106.761 79.8726 131.421 85.218 155.504 88.9278C155.728 84.4352 158.445 78.9674 155.599 75.833C152.142 72.0251 152.46 68.024 154.541 63.9999C159.86 53.7096 152.239 42.7602 144.543 33.6559C142.809 31.6084 140.617 29.9997 138.145 28.9604C135.673 27.9211 132.992 27.4806 130.318 27.6745L116.063 28.6946C112.594 28.9428 109.284 30.2464 106.575 32.431C103.866 34.6156 101.887 37.577 100.904 40.9189C97.5002 45.5567 95.6784 50.1817 96.8254 54.7825C91.727 58.2731 90.8704 62.4865 93.1614 67.2365C95.1041 70.2272 95.0834 73.1384 93.073 75.969C90.4328 79.5779 88.4106 83.6018 87.0893 87.8759L86.9619 88.3092Z" fill="#2F2E41"/>
<path d="M557.469 344.065H153.94C150.352 344.065 146.91 342.636 144.373 340.094C141.835 337.552 140.41 334.104 140.41 330.509C286.689 313.478 430.219 313.478 571 330.509C571 334.104 569.574 337.552 567.037 340.094C564.499 342.636 561.058 344.065 557.469 344.065Z" fill="#2F2E41"/>
<path d="M571 331.307L140.41 330.509L190.314 246.387L190.552 245.988V60.5921C190.552 58.3417 190.994 56.1134 191.854 54.0344C192.713 51.9553 193.973 50.0663 195.562 48.475C197.15 46.8838 199.036 45.6216 201.111 44.7606C203.186 43.8995 205.41 43.4564 207.657 43.4566H501.365C503.611 43.4564 505.836 43.8995 507.911 44.7606C509.986 45.6216 511.872 46.8838 513.46 48.475C515.048 50.0663 516.308 51.9553 517.168 54.0344C518.027 56.1134 518.47 58.3417 518.469 60.5921V247.264L571 331.307Z" fill="#3F3D56"/>
<path d="M207.267 55.4171C205.79 55.4188 204.373 56.0074 203.329 57.0538C202.284 58.1002 201.697 59.5189 201.695 60.9987V230.041C201.697 231.521 202.285 232.939 203.329 233.986C204.373 235.032 205.79 235.621 207.267 235.622H504.143C505.62 235.621 507.036 235.032 508.081 233.986C509.125 232.939 509.713 231.521 509.715 230.041V60.9987C509.713 59.5189 509.125 58.1002 508.081 57.0539C507.036 56.0075 505.62 55.4189 504.143 55.4171H207.267Z" fill="white"/>
<path d="M208.511 257.949C208.054 257.95 207.607 258.081 207.223 258.328C206.839 258.574 206.533 258.926 206.341 259.341L190.964 292.831C190.797 293.195 190.724 293.596 190.751 293.996C190.779 294.396 190.907 294.783 191.123 295.121C191.339 295.459 191.636 295.737 191.987 295.929C192.339 296.122 192.733 296.223 193.133 296.223H516.502C516.909 296.223 517.309 296.118 517.665 295.92C518.02 295.721 518.319 295.435 518.533 295.088C518.747 294.741 518.869 294.345 518.887 293.938C518.905 293.53 518.819 293.125 518.637 292.761L501.923 259.271C501.726 258.873 501.421 258.538 501.044 258.304C500.667 258.071 500.232 257.947 499.788 257.949H208.511Z" fill="#2F2E41"/>
<path d="M354.511 52.6263C356.489 52.6263 358.093 51.0199 358.093 49.0382C358.093 47.0565 356.489 45.45 354.511 45.45C352.533 45.45 350.93 47.0565 350.93 49.0382C350.93 51.0199 352.533 52.6263 354.511 52.6263Z" fill="white"/>
<path d="M322.727 302.601C322.202 302.602 321.692 302.776 321.275 303.096C320.858 303.415 320.558 303.864 320.421 304.371L316.564 318.724C316.469 319.079 316.456 319.45 316.527 319.811C316.598 320.171 316.751 320.51 316.974 320.801C317.197 321.093 317.484 321.329 317.813 321.491C318.141 321.654 318.503 321.738 318.87 321.738H392.224C392.605 321.738 392.98 321.647 393.318 321.472C393.656 321.298 393.948 321.044 394.169 320.734C394.39 320.423 394.533 320.064 394.587 319.686C394.641 319.309 394.604 318.924 394.48 318.564L389.521 304.211C389.358 303.741 389.053 303.334 388.649 303.045C388.245 302.757 387.761 302.602 387.264 302.601H322.727Z" fill="#2F2E41"/>
<path d="M518.469 243.198V246.387H190.313L190.56 245.988V243.198H518.469Z" fill="#2F2E41"/>
<path d="M509.317 111.632C540.087 111.632 565.031 86.642 565.031 55.8158C565.031 24.9896 540.087 0 509.317 0C478.547 0 453.603 24.9896 453.603 55.8158C453.603 86.642 478.547 111.632 509.317 111.632Z" fill="#FFAA40"/>
<path d="M532.398 80.1356H486.235C485.391 80.1347 484.582 79.7984 483.985 79.2005C483.388 78.6025 483.052 77.7917 483.051 76.9461V49.0382C483.052 48.1926 483.388 47.3818 483.985 46.7839C484.582 46.1859 485.391 45.8496 486.235 45.8487H532.398C533.242 45.8496 534.051 46.1859 534.648 46.7839C535.245 47.3818 535.581 48.1926 535.582 49.0382V76.9461C535.581 77.7917 535.245 78.6025 534.648 79.2005C534.051 79.7984 533.242 80.1347 532.398 80.1356ZM486.235 49.0382V76.9461H532.4L532.398 49.0382L486.235 49.0382Z" fill="white"/>
<path d="M523.643 49.0382H494.99V36.2803C494.99 27.0397 501.016 20.3329 509.317 20.3329C517.618 20.3329 523.643 27.0397 523.643 36.2803L523.643 49.0382ZM498.174 45.8487H520.46V36.2803C520.46 28.7687 515.878 23.5224 509.317 23.5224C502.756 23.5224 498.174 28.7687 498.174 36.2803L498.174 45.8487Z" fill="white"/>
<path d="M509.316 65.3842C511.075 65.3842 512.5 63.9562 512.5 62.1948C512.5 60.4333 511.075 59.0053 509.316 59.0053C507.558 59.0053 506.133 60.4333 506.133 62.1948C506.133 63.9562 507.558 65.3842 509.316 65.3842Z" fill="white"/>
<path d="M470.423 178.285H240.987C239.86 178.284 238.78 177.835 237.984 177.037C237.187 176.239 236.739 175.157 236.738 174.028V117.011C236.739 115.883 237.187 114.801 237.984 114.003C238.78 113.205 239.86 112.756 240.987 112.754H470.423C471.55 112.756 472.63 113.205 473.426 114.003C474.223 114.801 474.671 115.883 474.672 117.011V174.028C474.671 175.157 474.223 176.239 473.426 177.037C472.63 177.835 471.55 178.284 470.423 178.285ZM240.987 114.457C240.311 114.458 239.663 114.727 239.185 115.206C238.707 115.685 238.438 116.334 238.437 117.011V174.028C238.438 174.706 238.707 175.355 239.185 175.834C239.663 176.312 240.311 176.582 240.987 176.582H470.423C471.099 176.582 471.747 176.312 472.225 175.834C472.703 175.355 472.972 174.706 472.973 174.028V117.011C472.972 116.334 472.703 115.685 472.225 115.206C471.747 114.727 471.099 114.458 470.423 114.457L240.987 114.457Z" fill="#E6E6E6"/>
<path d="M276.636 160.671C286.195 160.671 293.943 152.908 293.943 143.332C293.943 133.756 286.195 125.993 276.636 125.993C267.077 125.993 259.329 133.756 259.329 143.332C259.329 152.908 267.077 160.671 276.636 160.671Z" fill="#E6E6E6"/>
<path d="M316.608 131.773C316.229 131.772 315.854 131.846 315.503 131.991C315.153 132.136 314.834 132.349 314.566 132.617C314.297 132.886 314.084 133.205 313.939 133.556C313.794 133.906 313.719 134.283 313.719 134.663C313.719 135.042 313.794 135.419 313.939 135.769C314.084 136.12 314.297 136.439 314.566 136.708C314.834 136.976 315.153 137.189 315.503 137.334C315.854 137.479 316.229 137.553 316.608 137.552H452.595C453.36 137.552 454.094 137.248 454.635 136.706C455.176 136.164 455.48 135.429 455.48 134.663C455.48 133.896 455.176 133.161 454.635 132.619C454.094 132.077 453.36 131.773 452.595 131.773H316.608Z" fill="#E6E6E6"/>
<path d="M316.608 149.112C315.843 149.112 315.109 149.416 314.568 149.958C314.028 150.5 313.724 151.235 313.724 152.002C313.724 152.768 314.028 153.503 314.568 154.045C315.109 154.587 315.843 154.891 316.608 154.891H375.124C375.889 154.891 376.623 154.587 377.163 154.045C377.704 153.503 378.008 152.768 378.008 152.002C378.008 151.235 377.704 150.5 377.163 149.958C376.623 149.416 375.889 149.112 375.124 149.112H316.608Z" fill="#E6E6E6"/>
<path d="M189.749 150.281L147.336 172.871L146.799 154.046C160.643 151.731 173.813 147.7 185.991 141.137L190.427 130.158C190.91 128.962 191.696 127.912 192.707 127.111C193.717 126.311 194.919 125.788 196.192 125.593C197.466 125.398 198.768 125.538 199.971 126C201.174 126.462 202.236 127.229 203.054 128.226C204.251 129.685 204.849 131.546 204.727 133.43C204.606 135.314 203.774 137.082 202.4 138.375L189.749 150.281Z" fill="#FFB8B8"/>
<path d="M86.1168 280.707C85.8073 279.57 85.7417 278.38 85.924 277.216C86.1063 276.052 86.5326 274.94 87.1747 273.953L96.4917 259.628C98.6954 256.24 102.077 253.793 105.98 252.761C109.883 251.729 114.029 252.187 117.614 254.045C113.699 260.723 114.245 266.58 118.967 271.671C111.636 275.256 104.861 279.883 98.8513 285.409C97.7541 286.158 96.4942 286.634 95.1763 286.797C93.8584 286.96 92.5208 286.805 91.2749 286.344C90.029 285.884 88.9109 285.133 88.0137 284.152C87.1164 283.172 86.4661 281.99 86.1168 280.707Z" fill="#2F2E41"/>
<path d="M191.681 261.977C190.271 264.331 188.281 266.283 185.901 267.644C183.522 269.006 180.833 269.732 178.093 269.753L116.197 270.223L113.513 254.625L140.893 246.557L117.808 228.808L143.041 199.226L188.872 242.02C191.551 244.521 193.291 247.868 193.802 251.501C194.314 255.133 193.565 258.831 191.681 261.977Z" fill="#2F2E41"/>
<path d="M106.533 368.65H92.0378C79.0228 279.275 65.7748 189.649 104.923 156.197L151.094 163.727L145.188 202.991L119.418 232.573L106.533 368.65Z" fill="#2F2E41"/>
<path d="M119.276 388.897C118.141 389.207 116.953 389.272 115.791 389.09C114.629 388.907 113.519 388.48 112.534 387.837L96.7944 385.718C93.4123 383.51 90.9693 380.123 89.9393 376.213C88.9094 372.302 89.366 368.149 91.2205 364.557C97.8858 368.479 103.733 367.932 108.814 363.201C112.404 370.463 118.319 370.02 123.968 376.138C124.716 377.238 125.191 378.5 125.354 379.82C125.516 381.14 125.362 382.48 124.903 383.729C124.443 384.977 123.693 386.097 122.714 386.996C121.736 387.895 120.557 388.546 119.276 388.897Z" fill="#2F2E41"/>
<path d="M140.894 96.4951L114.05 90.0409C118.508 80.8983 118.875 70.7254 116.734 59.9209L134.988 59.3831C135.56 72.8188 137.29 85.3711 140.894 96.4951Z" fill="#FFB8B8"/>
<path d="M148.271 179.922C128.73 193.262 114.922 180.378 104.386 160.5C105.85 148.336 103.479 133.78 99.0886 117.964C97.1359 110.988 97.8649 103.531 101.132 97.0675C104.398 90.6035 109.966 85.6014 116.734 83.0487L139.82 92.7302C159.422 108.738 163.28 126.077 155.926 144.364L148.271 179.922Z" fill="#FFAA40"/>
<path d="M92.0378 109.942L70.5628 121.236L108.681 143.826L113.985 156.933C114.339 157.808 114.511 158.746 114.492 159.69C114.472 160.634 114.261 161.563 113.871 162.423C113.481 163.282 112.92 164.053 112.223 164.688C111.526 165.323 110.707 165.809 109.816 166.117C108.804 166.467 107.724 166.577 106.662 166.439C105.6 166.301 104.584 165.918 103.694 165.321C102.804 164.724 102.064 163.929 101.532 162.998C101 162.067 100.69 161.024 100.627 159.953L100.091 150.819L51.6432 134.802C50.0109 134.262 48.5226 133.357 47.2909 132.156C46.0593 130.955 45.1166 129.489 44.5344 127.868C43.6857 125.507 43.6425 122.93 44.4116 120.541C45.1806 118.152 46.7185 116.085 48.7846 114.665L87.7428 87.8895L92.0378 109.942Z" fill="#FFB8B8"/>
<path d="M113.513 112.093C104.556 108.161 96.412 112.432 86.1321 115.858L84.5215 87.3516C94.729 81.9012 104.461 80.4317 113.513 84.6623L113.513 112.093Z" fill="#FFAA40"/>
<path d="M124.227 73.5032C133.692 73.5032 141.365 65.816 141.365 56.3332C141.365 46.8505 133.692 39.1632 124.227 39.1632C114.761 39.1632 107.088 46.8505 107.088 56.3332C107.088 65.816 114.761 73.5032 124.227 73.5032Z" fill="#FFB8B8"/>
<path d="M144.73 54.1668C127.761 55.8318 114.831 53.0515 106.567 45.1353V38.7601H143.29L144.73 54.1668Z" fill="#2F2E41"/>
</svg>
