<svg width="540" height="432" viewBox="0 0 540 432" fill="none" xmlns="http://www.w3.org/2000/svg">
<g clip-path="url(#clip0)">
<path opacity="0.1" d="M155.127 74.0897H114.62C112.283 74.0897 110.389 75.9856 110.389 78.3242V84.6732C110.389 87.0118 112.283 88.9077 114.62 88.9077H155.127C157.463 88.9077 159.357 87.0118 159.357 84.6732V78.3242C159.357 75.9856 157.463 74.0897 155.127 74.0897Z" fill="#FFAA40"/>
<path opacity="0.1" d="M206.372 88.9077H165.865C163.529 88.9077 161.635 90.8035 161.635 93.1422V99.4911C161.635 101.83 163.529 103.726 165.865 103.726H206.372C208.709 103.726 210.603 101.83 210.603 99.4911V93.1422C210.603 90.8035 208.709 88.9077 206.372 88.9077Z" fill="#FFAA40"/>
<path opacity="0.1" d="M257.618 103.726H217.111C214.775 103.726 212.881 105.621 212.881 107.96V114.309C212.881 116.648 214.775 118.544 217.111 118.544H257.618C259.955 118.544 261.849 116.648 261.849 114.309V107.96C261.849 105.621 259.955 103.726 257.618 103.726Z" fill="#FFAA40"/>
<path opacity="0.1" d="M155.127 51.8628H114.62C112.283 51.8628 110.389 53.7586 110.389 56.0973V62.4462C110.389 64.7849 112.283 66.6807 114.62 66.6807H155.127C157.463 66.6807 159.357 64.7849 159.357 62.4462V56.0973C159.357 53.7586 157.463 51.8628 155.127 51.8628Z" fill="#FFAA40"/>
<path opacity="0.1" d="M206.372 66.6807H165.865C163.529 66.6807 161.635 68.5766 161.635 70.9152V77.2642C161.635 79.6028 163.529 81.4987 165.865 81.4987H206.372C208.709 81.4987 210.603 79.6028 210.603 77.2642V70.9152C210.603 68.5766 208.709 66.6807 206.372 66.6807Z" fill="#FFAA40"/>
<path opacity="0.1" d="M257.618 81.4987H217.111C214.775 81.4987 212.881 83.3945 212.881 85.7332V92.0821C212.881 94.4208 214.775 96.3166 217.111 96.3166H257.618C259.955 96.3166 261.849 94.4208 261.849 92.0821V85.7332C261.849 83.3945 259.955 81.4987 257.618 81.4987Z" fill="#FFAA40"/>
<path opacity="0.1" d="M314.558 74.0897H274.051C271.714 74.0897 269.82 75.9856 269.82 78.3242V84.6732C269.82 87.0118 271.714 88.9077 274.051 88.9077H314.558C316.894 88.9077 318.789 87.0118 318.789 84.6732V78.3242C318.789 75.9856 316.894 74.0897 314.558 74.0897Z" fill="#FFAA40"/>
<path opacity="0.1" d="M365.804 88.9077H325.297C322.961 88.9077 321.066 90.8035 321.066 93.1422V99.4911C321.066 101.83 322.961 103.726 325.297 103.726H365.804C368.141 103.726 370.035 101.83 370.035 99.4911V93.1422C370.035 90.8035 368.141 88.9077 365.804 88.9077Z" fill="#FFAA40"/>
<path opacity="0.1" d="M417.05 103.726H376.543C374.206 103.726 372.312 105.621 372.312 107.96V114.309C372.312 116.648 374.206 118.544 376.543 118.544H417.05C419.386 118.544 421.28 116.648 421.28 114.309V107.96C421.28 105.621 419.386 103.726 417.05 103.726Z" fill="#FFAA40"/>
<path opacity="0.1" d="M314.558 51.8628H274.051C271.714 51.8628 269.82 53.7586 269.82 56.0973V62.4462C269.82 64.7849 271.714 66.6807 274.051 66.6807H314.558C316.894 66.6807 318.789 64.7849 318.789 62.4462V56.0973C318.789 53.7586 316.894 51.8628 314.558 51.8628Z" fill="#FFAA40"/>
<path opacity="0.1" d="M365.804 66.6807H325.297C322.961 66.6807 321.066 68.5766 321.066 70.9152V77.2642C321.066 79.6028 322.961 81.4987 325.297 81.4987H365.804C368.141 81.4987 370.035 79.6028 370.035 77.2642V70.9152C370.035 68.5766 368.141 66.6807 365.804 66.6807Z" fill="#FFAA40"/>
<path opacity="0.1" d="M417.05 81.4987H376.543C374.206 81.4987 372.312 83.3945 372.312 85.7332V92.0821C372.312 94.4208 374.206 96.3166 376.543 96.3166H417.05C419.386 96.3166 421.28 94.4208 421.28 92.0821V85.7332C421.28 83.3945 419.386 81.4987 417.05 81.4987Z" fill="#FFAA40"/>
<path opacity="0.1" d="M155.127 22.2269H114.62C112.283 22.2269 110.389 24.1228 110.389 26.4614V32.8104C110.389 35.149 112.283 37.0449 114.62 37.0449H155.127C157.463 37.0449 159.357 35.149 159.357 32.8104V26.4614C159.357 24.1228 157.463 22.2269 155.127 22.2269Z" fill="#FFAA40"/>
<path opacity="0.1" d="M206.372 37.0449H165.865C163.529 37.0449 161.635 38.9407 161.635 41.2794V47.6283C161.635 49.9669 163.529 51.8628 165.865 51.8628H206.372C208.709 51.8628 210.603 49.9669 210.603 47.6283V41.2794C210.603 38.9407 208.709 37.0449 206.372 37.0449Z" fill="#FFAA40"/>
<path opacity="0.1" d="M257.618 51.8628H217.111C214.775 51.8628 212.881 53.7586 212.881 56.0973V62.4462C212.881 64.7849 214.775 66.6807 217.111 66.6807H257.618C259.955 66.6807 261.849 64.7849 261.849 62.4462V56.0973C261.849 53.7586 259.955 51.8628 257.618 51.8628Z" fill="#FFAA40"/>
<path opacity="0.1" d="M155.127 0H114.62C112.283 0 110.389 1.89586 110.389 4.23451V10.5834C110.389 12.9221 112.283 14.8179 114.62 14.8179H155.127C157.463 14.8179 159.357 12.9221 159.357 10.5834V4.23451C159.357 1.89586 157.463 0 155.127 0Z" fill="#FFAA40"/>
<path opacity="0.1" d="M206.372 14.8179H165.865C163.529 14.8179 161.635 16.7138 161.635 19.0524V25.4014C161.635 27.74 163.529 29.6359 165.865 29.6359H206.372C208.709 29.6359 210.603 27.74 210.603 25.4014V19.0524C210.603 16.7138 208.709 14.8179 206.372 14.8179Z" fill="#FFAA40"/>
<path opacity="0.1" d="M257.618 29.6359H217.111C214.775 29.6359 212.881 31.5317 212.881 33.8704V40.2193C212.881 42.558 214.775 44.4538 217.111 44.4538H257.618C259.955 44.4538 261.849 42.558 261.849 40.2193V33.8704C261.849 31.5317 259.955 29.6359 257.618 29.6359Z" fill="#FFAA40"/>
<path opacity="0.1" d="M314.558 22.2269H274.051C271.714 22.2269 269.82 24.1228 269.82 26.4614V32.8104C269.82 35.149 271.714 37.0449 274.051 37.0449H314.558C316.894 37.0449 318.789 35.149 318.789 32.8104V26.4614C318.789 24.1228 316.894 22.2269 314.558 22.2269Z" fill="#FFAA40"/>
<path opacity="0.1" d="M365.804 37.0449H325.297C322.961 37.0449 321.066 38.9407 321.066 41.2794V47.6283C321.066 49.9669 322.961 51.8628 325.297 51.8628H365.804C368.141 51.8628 370.035 49.9669 370.035 47.6283V41.2794C370.035 38.9407 368.141 37.0449 365.804 37.0449Z" fill="#FFAA40"/>
<path opacity="0.1" d="M417.05 51.8628H376.543C374.206 51.8628 372.312 53.7586 372.312 56.0973V62.4462C372.312 64.7849 374.206 66.6807 376.543 66.6807H417.05C419.386 66.6807 421.28 64.7849 421.28 62.4462V56.0973C421.28 53.7586 419.386 51.8628 417.05 51.8628Z" fill="#FFAA40"/>
<path opacity="0.1" d="M314.558 0H274.051C271.714 0 269.82 1.89586 269.82 4.23451V10.5834C269.82 12.9221 271.714 14.8179 274.051 14.8179H314.558C316.894 14.8179 318.789 12.9221 318.789 10.5834V4.23451C318.789 1.89586 316.894 0 314.558 0Z" fill="#FFAA40"/>
<path opacity="0.1" d="M365.804 14.8179H325.297C322.961 14.8179 321.066 16.7138 321.066 19.0524V25.4014C321.066 27.74 322.961 29.6359 325.297 29.6359H365.804C368.141 29.6359 370.035 27.74 370.035 25.4014V19.0524C370.035 16.7138 368.141 14.8179 365.804 14.8179Z" fill="#FFAA40"/>
<path opacity="0.1" d="M417.05 29.6359H376.543C374.206 29.6359 372.312 31.5317 372.312 33.8704V40.2193C372.312 42.558 374.206 44.4538 376.543 44.4538H417.05C419.386 44.4538 421.28 42.558 421.28 40.2193V33.8704C421.28 31.5317 419.386 29.6359 417.05 29.6359Z" fill="#FFAA40"/>
<path opacity="0.1" d="M155.127 337.963H114.62C112.283 337.963 110.389 339.859 110.389 342.198V348.546C110.389 350.885 112.283 352.781 114.62 352.781H155.127C157.463 352.781 159.357 350.885 159.357 348.546V342.198C159.357 339.859 157.463 337.963 155.127 337.963Z" fill="#FFAA40"/>
<path opacity="0.1" d="M206.372 352.781H165.865C163.529 352.781 161.635 354.677 161.635 357.015V363.364C161.635 365.703 163.529 367.599 165.865 367.599H206.372C208.709 367.599 210.603 365.703 210.603 363.364V357.015C210.603 354.677 208.709 352.781 206.372 352.781Z" fill="#FFAA40"/>
<path opacity="0.1" d="M257.618 367.599H217.111C214.775 367.599 212.881 369.495 212.881 371.833V378.182C212.881 380.521 214.775 382.417 217.111 382.417H257.618C259.955 382.417 261.849 380.521 261.849 378.182V371.833C261.849 369.495 259.955 367.599 257.618 367.599Z" fill="#FFAA40"/>
<path opacity="0.1" d="M155.127 315.736H114.62C112.283 315.736 110.389 317.632 110.389 319.971V326.32C110.389 328.658 112.283 330.554 114.62 330.554H155.127C157.463 330.554 159.357 328.658 159.357 326.32V319.971C159.357 317.632 157.463 315.736 155.127 315.736Z" fill="#FFAA40"/>
<path opacity="0.1" d="M206.372 330.554H165.865C163.529 330.554 161.635 332.45 161.635 334.789V341.137C161.635 343.476 163.529 345.372 165.865 345.372H206.372C208.709 345.372 210.603 343.476 210.603 341.137V334.789C210.603 332.45 208.709 330.554 206.372 330.554Z" fill="#FFAA40"/>
<path opacity="0.1" d="M257.618 345.372H217.111C214.775 345.372 212.881 347.268 212.881 349.607V355.955C212.881 358.294 214.775 360.19 217.111 360.19H257.618C259.955 360.19 261.849 358.294 261.849 355.955V349.607C261.849 347.268 259.955 345.372 257.618 345.372Z" fill="#FFAA40"/>
<path opacity="0.1" d="M314.558 337.963H274.051C271.714 337.963 269.82 339.859 269.82 342.198V348.546C269.82 350.885 271.714 352.781 274.051 352.781H314.558C316.894 352.781 318.789 350.885 318.789 348.546V342.198C318.789 339.859 316.894 337.963 314.558 337.963Z" fill="#FFAA40"/>
<path opacity="0.1" d="M365.804 352.781H325.297C322.961 352.781 321.066 354.677 321.066 357.015V363.364C321.066 365.703 322.961 367.599 325.297 367.599H365.804C368.141 367.599 370.035 365.703 370.035 363.364V357.015C370.035 354.677 368.141 352.781 365.804 352.781Z" fill="#FFAA40"/>
<path opacity="0.1" d="M417.05 367.599H376.543C374.206 367.599 372.312 369.495 372.312 371.833V378.182C372.312 380.521 374.206 382.417 376.543 382.417H417.05C419.386 382.417 421.28 380.521 421.28 378.182V371.833C421.28 369.495 419.386 367.599 417.05 367.599Z" fill="#FFAA40"/>
<path opacity="0.1" d="M314.558 315.736H274.051C271.714 315.736 269.82 317.632 269.82 319.971V326.32C269.82 328.658 271.714 330.554 274.051 330.554H314.558C316.894 330.554 318.789 328.658 318.789 326.32V319.971C318.789 317.632 316.894 315.736 314.558 315.736Z" fill="#FFAA40"/>
<path opacity="0.1" d="M365.804 330.554H325.297C322.961 330.554 321.066 332.45 321.066 334.789V341.137C321.066 343.476 322.961 345.372 325.297 345.372H365.804C368.141 345.372 370.035 343.476 370.035 341.137V334.789C370.035 332.45 368.141 330.554 365.804 330.554Z" fill="#FFAA40"/>
<path opacity="0.1" d="M417.05 345.372H376.543C374.206 345.372 372.312 347.268 372.312 349.607V355.955C372.312 358.294 374.206 360.19 376.543 360.19H417.05C419.386 360.19 421.28 358.294 421.28 355.955V349.607C421.28 347.268 419.386 345.372 417.05 345.372Z" fill="#FFAA40"/>
<path opacity="0.1" d="M155.127 286.1H114.62C112.283 286.1 110.389 287.996 110.389 290.335V296.684C110.389 299.022 112.283 300.918 114.62 300.918H155.127C157.463 300.918 159.357 299.022 159.357 296.684V290.335C159.357 287.996 157.463 286.1 155.127 286.1Z" fill="#FFAA40"/>
<path opacity="0.1" d="M206.372 300.918H165.865C163.529 300.918 161.635 302.814 161.635 305.153V311.502C161.635 313.84 163.529 315.736 165.865 315.736H206.372C208.709 315.736 210.603 313.84 210.603 311.502V305.153C210.603 302.814 208.709 300.918 206.372 300.918Z" fill="#FFAA40"/>
<path opacity="0.1" d="M257.618 315.736H217.111C214.775 315.736 212.881 317.632 212.881 319.971V326.32C212.881 328.658 214.775 330.554 217.111 330.554H257.618C259.955 330.554 261.849 328.658 261.849 326.32V319.971C261.849 317.632 259.955 315.736 257.618 315.736Z" fill="#FFAA40"/>
<path opacity="0.1" d="M155.127 263.873H114.62C112.283 263.873 110.389 265.769 110.389 268.108V274.457C110.389 276.795 112.283 278.691 114.62 278.691H155.127C157.463 278.691 159.357 276.795 159.357 274.457V268.108C159.357 265.769 157.463 263.873 155.127 263.873Z" fill="#FFAA40"/>
<path opacity="0.1" d="M206.372 278.691H165.865C163.529 278.691 161.635 280.587 161.635 282.926V289.275C161.635 291.613 163.529 293.509 165.865 293.509H206.372C208.709 293.509 210.603 291.613 210.603 289.275V282.926C210.603 280.587 208.709 278.691 206.372 278.691Z" fill="#FFAA40"/>
<path opacity="0.1" d="M257.618 293.509H217.111C214.775 293.509 212.881 295.405 212.881 297.744V304.093C212.881 306.431 214.775 308.327 217.111 308.327H257.618C259.955 308.327 261.849 306.431 261.849 304.093V297.744C261.849 295.405 259.955 293.509 257.618 293.509Z" fill="#FFAA40"/>
<path opacity="0.1" d="M314.558 286.1H274.051C271.714 286.1 269.82 287.996 269.82 290.335V296.684C269.82 299.022 271.714 300.918 274.051 300.918H314.558C316.894 300.918 318.789 299.022 318.789 296.684V290.335C318.789 287.996 316.894 286.1 314.558 286.1Z" fill="#FFAA40"/>
<path opacity="0.1" d="M365.804 300.918H325.297C322.961 300.918 321.066 302.814 321.066 305.153V311.502C321.066 313.84 322.961 315.736 325.297 315.736H365.804C368.141 315.736 370.035 313.84 370.035 311.502V305.153C370.035 302.814 368.141 300.918 365.804 300.918Z" fill="#FFAA40"/>
<path opacity="0.1" d="M417.05 315.736H376.543C374.206 315.736 372.312 317.632 372.312 319.971V326.32C372.312 328.658 374.206 330.554 376.543 330.554H417.05C419.386 330.554 421.28 328.658 421.28 326.32V319.971C421.28 317.632 419.386 315.736 417.05 315.736Z" fill="#FFAA40"/>
<path opacity="0.1" d="M314.558 263.873H274.051C271.714 263.873 269.82 265.769 269.82 268.108V274.457C269.82 276.795 271.714 278.691 274.051 278.691H314.558C316.894 278.691 318.789 276.795 318.789 274.457V268.108C318.789 265.769 316.894 263.873 314.558 263.873Z" fill="#FFAA40"/>
<path opacity="0.1" d="M365.804 278.691H325.297C322.961 278.691 321.066 280.587 321.066 282.926V289.275C321.066 291.613 322.961 293.509 325.297 293.509H365.804C368.141 293.509 370.035 291.613 370.035 289.275V282.926C370.035 280.587 368.141 278.691 365.804 278.691Z" fill="#FFAA40"/>
<path opacity="0.1" d="M417.05 293.509H376.543C374.206 293.509 372.312 295.405 372.312 297.744V304.093C372.312 306.431 374.206 308.327 376.543 308.327H417.05C419.386 308.327 421.28 306.431 421.28 304.093V297.744C421.28 295.405 419.386 293.509 417.05 293.509Z" fill="#FFAA40"/>
<path opacity="0.1" d="M274.661 432C412.556 432 524.342 422.814 524.342 411.483C524.342 400.152 412.556 390.966 274.661 390.966C136.766 390.966 24.9795 400.152 24.9795 411.483C24.9795 422.814 136.766 432 274.661 432Z" fill="#FFAA40"/>
<path d="M48.1995 106.461C71.7441 116.674 85.273 137.807 85.273 137.807C85.273 137.807 60.6238 142.366 37.0735 132.159C13.5232 121.952 0 100.813 0 100.813C0 100.813 24.6492 96.2482 48.1995 106.461Z" fill="#FFAA40"/>
<path d="M120.456 67.2507C127.739 55.2823 140.14 49.5831 140.14 49.5831C140.14 49.5831 140.71 63.227 133.45 75.1612C126.19 87.0953 113.76 92.7888 113.76 92.7888C113.76 92.7888 113.168 79.1506 120.456 67.2507Z" fill="#FFAA40"/>
<path d="M66.9214 80.0568C72.1314 98.6704 86.4916 110.924 86.4916 110.924C86.4916 110.924 92.4077 92.9883 87.1977 74.369C81.9877 55.7496 67.6218 43.502 67.6218 43.502C67.6218 43.502 61.7058 61.4375 66.9214 80.0568Z" fill="#46455B"/>
<path d="M478.67 79.219H71.7894C69.5221 79.219 67.6841 81.0587 67.6841 83.3281V283.131C67.6841 285.4 69.5221 287.24 71.7894 287.24H478.67C480.937 287.24 482.775 285.4 482.775 283.131V83.3281C482.775 81.0587 480.937 79.219 478.67 79.219Z" fill="#3F3D56"/>
<path opacity="0.1" d="M67.6841 274.702H482.775V283.131C482.775 284.221 482.343 285.266 481.573 286.037C480.803 286.807 479.759 287.24 478.67 287.24H71.7894C70.7006 287.24 69.6564 286.807 68.8865 286.037C68.1166 285.266 67.6841 284.221 67.6841 283.131V274.702Z" fill="black"/>
<path d="M137.435 259.314H109.535C108.749 259.314 108.111 259.952 108.111 260.739V273.277C108.111 274.064 108.749 274.702 109.535 274.702H137.435C138.222 274.702 138.859 274.064 138.859 273.277V260.739C138.859 259.952 138.222 259.314 137.435 259.314Z" fill="#FFAA40"/>
<path d="M167.329 272.422H148.539C147.91 272.422 147.4 272.932 147.4 273.562C147.4 274.192 147.91 274.702 148.539 274.702H167.329C167.958 274.702 168.468 274.192 168.468 273.562C168.468 272.932 167.958 272.422 167.329 272.422Z" fill="#FFAA40"/>
<path d="M128.696 119.9C143.722 122.675 159.05 119.9 174.014 118.019L219.492 112.32C221.331 112.086 224.007 110.986 225.089 113.238C225.698 114.497 225.288 117.227 225.334 118.675C225.453 122.664 225.442 126.654 225.334 130.643C225.129 138.269 224.571 145.877 223.859 153.468C222.475 168.326 220.517 183.104 219.537 198.019C219.036 205.61 218.786 213.224 219.008 220.816C219.059 222.628 219.133 224.441 219.241 226.247C219.361 228.27 220.266 231.274 218.063 232.625C216.804 233.4 214.327 233.36 212.887 233.588C210.609 233.947 208.332 234.232 206.008 234.465C190.697 235.999 175.187 235.36 159.819 235.269L113.413 235.03L102.093 234.967C101.068 234.967 97.373 235.582 96.741 234.363C96.4734 233.844 97.1851 231.416 97.3104 230.767C97.485 229.695 97.6748 228.626 97.8798 227.558C99.2008 220.064 100.761 212.615 102.332 205.172C105.709 189.214 109.165 173.176 110.555 156.876C111.244 148.698 110.788 140.446 111.631 132.284C112.024 128.494 112.491 120.037 117.53 119.7C121.8 119.416 126.196 119.7 130.478 119.7C130.704 119.7 130.922 119.61 131.082 119.45C131.242 119.29 131.332 119.072 131.332 118.846C131.332 118.619 131.242 118.401 131.082 118.241C130.922 118.081 130.704 117.991 130.478 117.991C126.435 117.991 122.387 117.882 118.344 117.962C115.656 118.014 113.789 118.652 112.508 121.125C109.234 127.474 109.57 135.943 109.467 142.873C109.222 159.464 106.677 175.701 103.363 191.927C101.695 200.094 99.8954 208.232 98.2385 216.405C97.4584 220.309 96.7125 224.224 96.0292 228.151C95.7104 230.02 94.099 234.141 95.5168 235.856C96.9346 237.571 101.296 236.648 103.249 236.66L116.835 236.739L142.868 236.888C159.688 236.984 176.565 237.458 193.379 236.962C201.408 236.722 209.892 236.392 217.71 234.471C220.038 233.901 221.16 232.83 221.251 230.345C221.388 226.492 220.762 222.52 220.682 218.65C220.112 185.538 227.885 152.887 227.088 119.763C227.036 117.512 227.885 111.836 225.425 110.473C224.32 109.858 222.885 110.194 221.724 110.331C219.503 110.587 217.288 110.901 215.068 111.163L186.228 114.765C177.009 115.905 167.796 117.136 158.561 118.184C148.784 119.324 138.911 120.003 129.168 118.184C128.092 117.985 127.631 119.632 128.713 119.832L128.696 119.9Z" fill="#FFAA40"/>
<path d="M110.566 140.047L224.343 134.461C225.442 134.404 225.447 132.695 224.343 132.752L110.566 138.337C109.472 138.388 109.467 140.098 110.566 140.047Z" fill="#FFAA40"/>
<path d="M145.618 125.953C145.3 126.29 145.069 126.7 144.945 127.147C144.821 127.595 144.809 128.065 144.908 128.519C145.007 128.972 145.216 129.394 145.515 129.748C145.814 130.103 146.196 130.379 146.626 130.552C148.158 131.253 149.957 130.666 151.477 130.284C153.755 129.714 156.032 129.207 158.373 128.791C163.466 127.888 168.625 127.408 173.798 127.355C176.155 127.326 178.495 127.434 180.852 127.537C182.561 127.605 184.4 127.742 185.846 126.682C187.497 125.474 188.033 123.114 186.415 121.644C184.138 119.564 179.23 120.772 176.599 120.988C167.054 121.782 157.57 123.199 148.209 125.229C147.138 125.457 147.588 127.109 148.664 126.876C154.84 125.542 161.064 124.471 167.335 123.661C170.417 123.281 173.505 122.96 176.599 122.698C178.057 122.579 179.514 122.47 180.972 122.385C181.541 122.351 182.145 122.288 182.726 122.305C184.531 122.345 184.741 122.02 183.66 124.203C182.697 126.135 183.005 125.913 181.336 125.85C180.63 125.85 179.924 125.77 179.218 125.736C177.772 125.675 176.326 125.643 174.879 125.639C171.801 125.639 168.73 125.787 165.667 126.084C163.07 126.334 160.479 126.688 157.911 127.144C156.306 127.429 154.711 127.759 153.123 128.124C152.422 128.289 151.716 128.46 151.016 128.637C150.68 128.728 150.338 128.808 150.002 128.893C148.757 129.326 147.696 128.757 146.82 127.184C147.583 126.391 146.381 125.177 145.612 125.975L145.618 125.953Z" fill="#FFAA40"/>
<path d="M166.241 150.277C158.002 149.958 149.102 152.186 143.676 158.826C139.428 164.018 137.008 172.925 141.507 178.773C146.341 185.042 156.943 183.936 163.337 181.263C170.102 178.414 177.504 172.538 179.537 165.186C182.071 156.004 173.843 149.063 165.273 148.96C164.174 148.96 164.174 150.67 165.273 150.67C170.159 150.727 174.953 152.824 177.231 157.378C179.616 162.177 177.561 167.215 174.384 171.056C169.293 177.171 161.333 181.782 153.225 181.651C148.357 181.577 142.976 179.907 141.467 174.766C140.225 170.6 141.171 166.046 143.334 162.353C148.015 154.374 157.541 151.673 166.275 152.015C167.374 152.055 167.374 150.345 166.275 150.305L166.241 150.277Z" fill="#FFAA40"/>
<path d="M158.059 162.94C157.708 162.81 157.329 162.771 156.959 162.826C156.588 162.882 156.238 163.03 155.94 163.258C155.642 163.485 155.407 163.785 155.256 164.128C155.105 164.471 155.043 164.847 155.076 165.22C155.246 167.443 157.695 168.07 159.534 167.939C161.123 167.802 162.979 167.215 162.421 165.226C162.318 164.874 162.141 164.548 161.901 164.271C161.661 163.993 161.365 163.771 161.031 163.619C160.522 163.416 159.969 163.348 159.426 163.419C159.215 163.419 157.285 164.126 158.105 163.277L156.761 163.1C156.91 163.247 157.024 163.426 157.095 163.623C157.166 163.821 157.192 164.031 157.171 164.24C157.173 164.389 157.215 164.534 157.29 164.663C157.366 164.791 157.474 164.897 157.603 164.971C157.732 165.046 157.878 165.085 158.027 165.085C158.176 165.086 158.322 165.048 158.452 164.975C158.647 164.893 158.862 164.867 159.071 164.901C159.28 164.934 159.476 165.025 159.636 165.164C159.796 165.302 159.915 165.483 159.978 165.685C160.042 165.887 160.048 166.103 159.995 166.309C159.949 166.506 159.974 166.713 160.066 166.894C160.158 167.075 160.311 167.217 160.497 167.296C160.684 167.375 160.892 167.386 161.086 167.326C161.279 167.266 161.446 167.14 161.555 166.97C162.125 165.944 162.814 163.904 161.96 162.832C161.39 162.108 160.291 162.325 159.608 162.747C159.186 163.045 158.793 163.383 158.435 163.755C157.746 164.365 157.296 164.65 157.552 163.482C157.979 161.356 160.006 159.663 161.857 158.814L160.604 157.851C159.948 160.321 158.773 162.623 157.159 164.605L158.617 165.209C158.576 164.426 158.777 163.65 159.193 162.986C159.608 162.322 160.219 161.802 160.94 161.498H160.103L160.547 162.228C160.382 163.305 162.028 163.767 162.193 162.678C162.409 161.271 161.521 159.441 159.876 160.131C157.911 160.951 156.892 163.203 156.932 165.209C156.932 165.893 157.9 166.423 158.395 165.818C160.206 163.617 161.528 161.054 162.273 158.301C162.312 158.138 162.304 157.967 162.248 157.808C162.192 157.65 162.091 157.511 161.957 157.409C161.824 157.307 161.664 157.246 161.496 157.233C161.329 157.221 161.161 157.257 161.014 157.338C159.309 158.11 157.867 159.366 156.869 160.951C156.174 162.091 155.303 163.869 156.009 165.18C156.125 165.39 156.281 165.575 156.469 165.723C156.656 165.872 156.871 165.983 157.102 166.048C157.332 166.113 157.573 166.132 157.811 166.103C158.048 166.075 158.278 165.999 158.486 165.881C159.013 165.569 159.494 165.185 159.915 164.741C160.126 164.553 160.36 164.228 160.639 164.171C160.889 164 160.878 164.097 160.599 164.473C160.595 165.064 160.423 165.641 160.103 166.138L161.663 166.793C161.804 166.261 161.788 165.699 161.616 165.176C161.445 164.653 161.126 164.191 160.698 163.846C160.269 163.5 159.75 163.287 159.203 163.23C158.656 163.174 158.105 163.277 157.615 163.527L158.902 164.268C158.929 163.543 158.701 162.831 158.258 162.256C158.191 162.146 158.1 162.051 157.992 161.98C157.883 161.91 157.76 161.864 157.632 161.847C157.503 161.83 157.373 161.842 157.25 161.882C157.126 161.923 157.014 161.99 156.92 162.08C156.055 162.986 155.89 164.553 156.977 165.391C157.792 166.012 158.19 165.391 159.084 165.249C162.119 164.855 160.348 166.223 159.278 166.269C158.799 166.32 158.315 166.285 157.848 166.166C156.66 165.763 156.586 165.245 157.626 164.61C158.646 165.026 159.084 163.374 158.082 162.963L158.059 162.94Z" fill="#FFAA40"/>
<path d="M156.687 166.064C157.387 168.343 154.495 169.095 153.123 169.882C152.16 170.423 151.32 171.158 150.657 172.042C149.222 173.968 148.687 176.419 148.214 178.727C147.998 179.804 149.644 180.26 149.866 179.183C150.126 177.487 150.611 175.833 151.306 174.265C152.331 172.224 153.8 171.54 155.713 170.492C157.627 169.443 159.01 167.819 158.333 165.608C158.014 164.559 156.362 165.009 156.687 166.064Z" fill="#FFAA40"/>
<path d="M159.534 164.918C159.127 164.974 158.755 165.181 158.492 165.497C158.228 165.813 158.092 166.217 158.111 166.628C158.111 167.306 158.56 167.739 158.868 168.281C159.598 169.388 160.155 170.601 160.519 171.877C160.792 173.102 161.06 175.296 160.422 176.436C159.244 178.55 157.114 178.146 155.298 178.146C153.59 178.146 152.269 178.716 152.325 176.333C152.36 174.994 153.293 173.638 154.034 172.583L152.473 172.378C152.803 174.118 152.976 175.885 152.992 177.656C152.992 178.448 154.204 178.887 154.58 178.083C155.496 176.156 156.222 174.144 156.75 172.076L155.07 171.848L155.366 176.18C155.371 176.364 155.435 176.543 155.549 176.688C155.663 176.834 155.821 176.938 156 176.987C156.178 177.036 156.367 177.025 156.539 176.958C156.711 176.891 156.857 176.77 156.955 176.613C157.154 176.392 157.3 176.129 157.382 175.843C157.439 175.576 156.915 173.769 156.704 174.413L158.378 174.641L158.498 170.526L156.79 170.754C157.151 171.914 157.259 173.139 157.108 174.344C157 175.296 158.6 175.513 158.817 174.572L159.887 169.044L158.327 169.244C158.698 170.008 158.8 170.876 158.617 171.706C158.492 172.8 160.2 172.789 160.325 171.706C160.471 170.571 160.289 169.418 159.802 168.383C159.715 168.24 159.589 168.126 159.439 168.054C159.288 167.982 159.12 167.955 158.955 167.977C158.789 167.998 158.634 168.068 158.507 168.176C158.381 168.285 158.288 168.428 158.241 168.588L157.165 174.117L158.845 174.344C159.016 172.986 158.886 171.606 158.464 170.304C158.406 170.107 158.281 169.938 158.11 169.826C157.939 169.715 157.734 169.668 157.531 169.695C157.329 169.722 157.143 169.821 157.007 169.973C156.87 170.125 156.793 170.322 156.79 170.526L156.67 174.641C156.67 175.638 158.054 175.781 158.35 174.869L158.441 174.59C158.48 174.444 158.481 174.291 158.443 174.145C158.405 173.999 158.33 173.865 158.224 173.757C156.454 171.831 156.095 174.897 155.48 175.746L157.074 176.18L156.778 171.848C156.716 170.925 155.349 170.64 155.098 171.62C154.617 173.548 153.95 175.424 153.106 177.223L154.7 177.656C154.681 175.731 154.491 173.813 154.13 171.922C153.982 171.136 152.952 171.17 152.57 171.717C151.431 173.359 149.461 176.943 150.982 178.91C152.308 180.619 156.482 179.958 158.264 179.85C161.077 179.69 162.096 177.906 162.404 175.251C162.55 173.979 162.479 172.691 162.193 171.444C162.039 170.771 160.485 166.508 160.018 166.594C161.1 166.394 160.639 164.741 159.562 164.941L159.534 164.918Z" fill="#FFAA40"/>
<path d="M156.226 168.759L151.562 174.92L153.037 175.781L156.453 170.834L154.893 170.173L153.191 176.675C153.145 176.873 153.17 177.08 153.262 177.261C153.354 177.441 153.507 177.584 153.693 177.663C153.88 177.742 154.088 177.752 154.281 177.693C154.475 177.633 154.641 177.507 154.751 177.337C155.526 176.052 156.395 174.827 157.353 173.672L155.93 172.84C155.547 174.312 154.81 175.668 153.783 176.789L155.212 177.622C155.3 176.834 155.509 176.065 155.833 175.342C156.271 174.356 154.882 173.484 154.358 174.476C153.876 175.379 153.326 176.244 152.712 177.063L154.273 177.268L154.62 175.644L153.06 175.439L153.31 176.864C153.351 177.007 153.429 177.137 153.536 177.241C153.642 177.346 153.774 177.42 153.918 177.458C154.062 177.496 154.214 177.496 154.358 177.458C154.502 177.419 154.633 177.344 154.74 177.24C156.184 175.744 157.342 173.996 158.156 172.082H156.687C157.073 172.795 157.344 173.564 157.49 174.362C157.695 175.387 159.056 175.006 159.164 174.134C159.408 172.225 159.534 170.302 159.54 168.377H157.831V171.962C157.831 172.891 159.352 173.165 159.511 172.19C159.624 171.326 159.908 170.492 160.348 169.74H158.851C159.211 170.322 159.408 170.992 159.42 171.677C159.42 171.904 159.51 172.121 159.67 172.282C159.83 172.442 160.048 172.532 160.274 172.532C160.501 172.532 160.718 172.442 160.878 172.282C161.038 172.121 161.128 171.904 161.128 171.677L161.345 170.537H159.699C159.864 171.546 160.49 177.228 158.264 176.561C157.888 176.47 157.78 176.493 157.94 176.624L158.446 175.541L159.636 173.017L158.042 172.583C158.145 173.757 158.253 175.433 157.547 176.436C156.977 177.251 155.224 177.576 154.33 177.097C153.739 176.676 153.235 176.146 152.843 175.536L151.676 176.675C152.621 177.365 154.153 179.058 155.372 179.155C156.3 179.229 157.08 178.459 157.689 177.844C158.624 176.877 159.352 175.731 159.831 174.474C160.309 173.217 160.528 171.876 160.473 170.532C160.473 170.305 160.383 170.088 160.223 169.927C160.063 169.767 159.846 169.677 159.619 169.677C159.393 169.677 159.175 169.767 159.015 169.927C158.855 170.088 158.765 170.305 158.765 170.532V172.481C158.765 172.708 158.855 172.925 159.015 173.085C159.175 173.246 159.393 173.336 159.619 173.336C159.846 173.336 160.063 173.246 160.223 173.085C160.383 172.925 160.473 172.708 160.473 172.481V167.699C160.473 167.472 160.383 167.255 160.223 167.095C160.063 166.934 159.846 166.844 159.619 166.844C159.393 166.844 159.175 166.934 159.015 167.095C158.855 167.255 158.765 167.472 158.765 167.699C158.762 168.845 158.663 169.989 158.469 171.119L160.149 171.347C160.015 169.985 159.952 168.617 159.961 167.249C159.958 167.044 159.882 166.847 159.747 166.694C159.611 166.54 159.425 166.441 159.222 166.413C159.019 166.385 158.813 166.432 158.642 166.543C158.47 166.655 158.344 166.824 158.287 167.021C158.031 168.11 157.717 169.181 157.416 170.247L158.976 170.042L158.856 169.586C158.777 168.497 157.068 168.491 157.148 169.586C157.167 170.047 157.287 170.499 157.501 170.908C157.831 171.603 158.862 171.358 159.061 170.703C159.386 169.631 159.676 168.56 159.932 167.477L158.253 167.249C158.244 168.617 158.307 169.985 158.441 171.347C158.526 172.224 159.938 172.601 160.115 171.575C160.342 170.287 160.462 168.984 160.473 167.676H158.765V172.458H160.473V170.509H158.765C158.866 172.659 158.119 174.763 156.687 176.368C156.465 176.62 156.225 176.856 155.969 177.074C155.565 177.462 155.195 177.405 154.87 176.898C154.062 176.561 153.225 175.695 152.519 175.188C151.813 174.681 150.845 175.684 151.346 176.356C152.656 178.1 154.609 180.044 157.04 179.206C159.596 178.3 159.944 174.835 159.75 172.555C159.688 171.797 158.554 171.284 158.162 172.127C157.592 173.33 157.023 174.527 156.453 175.735C156.254 176.157 155.884 176.738 155.941 177.24C156.129 178.522 157.683 178.311 158.64 178.237C162.347 177.958 161.76 172.697 161.333 170.053C161.191 169.175 159.915 169.312 159.688 170.053C159.507 170.574 159.412 171.12 159.409 171.672H161.117C161.055 170.692 160.781 169.737 160.314 168.873C160.238 168.746 160.129 168.64 160 168.567C159.871 168.494 159.725 168.455 159.577 168.455C159.428 168.455 159.282 168.494 159.153 168.567C159.024 168.64 158.916 168.746 158.839 168.873C158.33 169.753 157.986 170.719 157.826 171.723L159.534 171.951V168.366C159.534 168.139 159.444 167.922 159.284 167.762C159.124 167.601 158.906 167.511 158.68 167.511C158.453 167.511 158.236 167.601 158.076 167.762C157.916 167.922 157.826 168.139 157.826 168.366C157.82 170.291 157.694 172.213 157.45 174.122L159.13 173.894C158.936 172.963 158.608 172.064 158.156 171.227C158.08 171.1 157.971 170.994 157.842 170.921C157.713 170.848 157.567 170.809 157.419 170.809C157.27 170.809 157.124 170.848 156.995 170.921C156.866 170.994 156.758 171.1 156.681 171.227C155.939 173.012 154.871 174.643 153.532 176.037L154.962 176.413L154.711 174.989C154.58 174.231 153.51 174.208 153.151 174.783C152.868 175.212 152.676 175.694 152.587 176.2C152.498 176.706 152.513 177.225 152.633 177.724C152.775 178.533 153.8 178.448 154.193 177.929C154.807 177.112 155.357 176.249 155.838 175.348L154.364 174.481C153.97 175.333 153.701 176.237 153.567 177.166C153.464 177.918 154.358 178.704 154.996 177.998C156.22 176.657 157.106 175.043 157.581 173.29C157.792 172.515 156.721 171.78 156.152 172.458C155.104 173.715 154.152 175.048 153.305 176.447L154.865 177.109L156.601 170.629C156.647 170.431 156.622 170.224 156.53 170.043C156.438 169.863 156.286 169.72 156.099 169.641C155.913 169.562 155.704 169.552 155.511 169.611C155.317 169.671 155.151 169.797 155.041 169.968L151.625 174.92C150.987 175.838 152.451 176.63 153.1 175.781L157.746 169.626C158.406 168.748 156.926 167.916 156.271 168.759H156.226Z" fill="#FFAA40"/>
<path d="M228.869 189.328C235.702 185.145 241.134 178.904 247.17 173.683C253.718 168.024 260.591 162.752 267.668 157.76C281.413 148.071 295.848 139.403 310.271 130.757C310.458 130.639 310.591 130.452 310.644 130.237C310.696 130.022 310.663 129.795 310.552 129.604C310.44 129.413 310.259 129.272 310.046 129.212C309.834 129.152 309.606 129.176 309.411 129.281C294.988 137.927 280.548 146.578 266.803 156.284C260.317 160.843 253.986 165.676 247.916 170.805C241.311 176.391 235.429 183.344 227.987 187.852C227.047 188.422 227.907 189.903 228.847 189.328H228.869Z" fill="#FFAA40"/>
<path d="M332.323 104.21C324.921 104.962 316.949 106.849 312.394 113.329C308.46 118.903 308.545 128.625 312.24 134.347C316.437 140.85 325.012 141.084 331.674 138.981C338.336 136.878 345.231 133.19 345.169 125.223C345.135 120.949 343.592 116.497 341.889 112.622C340.42 109.277 337.818 106.353 333.878 106.723C332.79 106.826 332.779 108.536 333.878 108.433C339.156 107.943 340.853 114.218 342.105 118.179C343.244 121.878 344.298 126.255 342.51 129.931C340.722 133.607 336.411 135.482 332.727 136.827C328.742 138.274 324.363 139.158 320.201 137.966C311.956 135.658 309.678 125.2 312.053 117.78C314.786 109.231 324.465 106.718 332.352 105.92C333.433 105.811 333.445 104.102 332.352 104.21H332.323Z" fill="#FFAA40"/>
<path d="M343.711 170.321C336.309 171.073 328.338 172.96 323.782 179.44C319.848 185.013 319.933 194.736 323.629 200.458C327.825 206.961 336.4 207.195 343.062 205.092C349.724 202.989 356.62 199.301 356.557 191.334C356.523 187.059 354.98 182.608 353.277 178.733C351.808 175.387 349.206 172.464 345.266 172.834C344.178 172.937 344.167 174.647 345.266 174.544C350.544 174.054 352.241 180.329 353.494 184.29C354.632 187.988 355.686 192.365 353.898 196.041C352.11 199.717 347.8 201.592 344.116 202.937C340.13 204.385 335.751 205.268 331.589 204.077C323.344 201.769 321.066 191.311 323.441 183.891C326.174 175.342 335.854 172.829 343.74 172.031C344.822 171.922 344.833 170.213 343.74 170.321H343.711Z" fill="#FFAA40"/>
<path d="M321.157 120.857L326.55 127.013C326.656 127.116 326.788 127.189 326.932 127.227C327.075 127.264 327.226 127.263 327.369 127.225C327.513 127.186 327.644 127.111 327.749 127.007C327.855 126.903 327.932 126.773 327.973 126.631C329.112 123.633 328.896 120.527 329.163 117.375C329.458 114.118 330.275 110.929 331.583 107.932C334.21 101.852 338.664 96.7423 344.326 93.3131C345.266 92.7432 344.406 91.2614 343.467 91.837C337.884 95.2019 333.405 100.127 330.581 106.005C329.199 108.866 328.24 111.913 327.734 115.05C327.165 118.749 327.683 122.624 326.316 126.175L327.745 125.793L322.382 119.649C321.653 118.823 320.451 120.037 321.175 120.857H321.157Z" fill="#FFAA40"/>
<path d="M231.62 195.99C260.989 195.093 290.367 194.903 319.751 195.42C320.85 195.42 320.85 193.71 319.751 193.71C290.374 193.186 260.997 193.376 231.62 194.28C230.521 194.315 230.515 196.024 231.62 195.99Z" fill="#FFAA40"/>
<path d="M325.889 179.132C335.929 183.076 345.587 187.933 354.741 193.642C355.675 194.212 356.534 192.747 355.601 192.166C346.326 186.386 336.541 181.472 326.368 177.485C325.348 177.08 324.904 178.733 325.918 179.132H325.889Z" fill="#FFAA40"/>
<path d="M344.121 171.387C333.94 183.266 328.043 198.226 327.375 213.863C327.33 214.963 329.038 214.963 329.084 213.863C329.73 198.674 335.451 184.143 345.329 172.595C346.04 171.763 344.839 170.549 344.121 171.387Z" fill="#FFAA40"/>
<path d="M116.391 189.784L180.033 188.952L187.349 188.855C188.665 188.855 189.98 188.809 191.295 188.803C193.146 188.803 194.393 190.342 194.359 192.223C194.273 196.212 191.768 196.07 188.488 196.212L180.579 196.571L148.374 197.991C142.606 198.247 136.832 198.56 131.064 198.76C125.86 198.919 115.964 197.221 118.276 189.641C118.594 188.587 116.949 188.137 116.624 189.185C115.486 192.913 117.501 196.697 120.747 198.652C125.353 201.421 131.423 200.481 136.508 200.253L176.047 198.458L185.647 198.03C188.107 197.916 191.529 198.418 193.789 197.272C196.443 195.933 196.909 190.616 195.235 188.376C194.376 187.236 193.169 187.134 191.819 187.082C188.277 186.945 184.673 187.179 181.126 187.225L161.413 187.487L116.368 188.057C115.269 188.057 115.269 189.767 116.368 189.767L116.391 189.784Z" fill="#FFAA40"/>
<path d="M373.519 399.23C372.085 400.13 370.445 400.637 368.964 401.429C367.484 402.222 366.043 403.413 365.622 405.054C365.465 405.564 365.491 406.112 365.696 406.604C366.064 407.199 366.628 407.646 367.29 407.87C370.298 409.206 373.546 409.915 376.837 409.952C380.127 409.99 383.391 409.355 386.428 408.086C387.496 407.572 388.6 407.134 389.73 406.775C391.123 406.491 392.54 406.346 393.961 406.342C395.455 406.255 396.94 406.064 398.408 405.772C399.146 405.69 399.845 405.399 400.424 404.934C400.952 404.325 401.269 403.562 401.329 402.757C402.003 398.317 400.987 393.786 398.482 390.06C398.166 389.537 397.743 389.089 397.241 388.743C396.628 388.426 395.954 388.245 395.265 388.213C392.418 387.865 389.434 387.227 386.559 387.159C384.498 387.113 383.461 388.093 382.004 389.512C378.991 392.527 377.232 396.91 373.519 399.23Z" fill="#323444"/>
<path d="M415.478 398.808C415.478 401.6 415.814 404.558 417.506 406.787C418.279 407.75 419.216 408.57 420.273 409.209C423.849 411.489 428.586 412.326 432.355 410.394C432.964 410.121 433.485 409.683 433.859 409.129C434.428 408.137 434.126 406.901 433.807 405.806L428.353 386.885C424.828 387.427 419.646 387.808 416.515 389.598C414.243 390.892 415.478 396.312 415.478 398.808Z" fill="#323444"/>
<path d="M370.32 282.299C369.989 283.342 368.794 283.826 368.139 284.704C367.37 285.735 367.45 287.166 367.729 288.42C368.073 290.269 368.941 291.98 370.228 293.35C370.882 294.028 371.688 294.541 372.579 294.844C373.471 295.147 374.422 295.233 375.353 295.094C377.186 294.746 378.769 293.122 378.832 291.258C378.799 290.41 378.618 289.575 378.297 288.79L374.413 277.551C374.398 277.472 374.365 277.397 374.318 277.331C374.271 277.265 374.21 277.21 374.14 277.17C373.994 277.137 373.84 277.164 373.713 277.244C372.796 277.677 370.957 278.133 370.422 279.085C369.887 280.036 370.707 281.267 370.32 282.299Z" fill="#FBB3B2"/>
<path d="M368.503 281.735C369.921 281.512 371.162 280.68 372.489 280.133C373.815 279.586 375.478 279.375 376.594 280.287C376.913 280.549 377.22 280.908 377.636 280.903C377.071 278.116 376.216 275.396 375.085 272.787C375.045 272.662 374.968 272.552 374.863 272.473C374.708 272.41 374.534 272.41 374.379 272.473L370.547 273.477C369.129 273.847 368.964 273.733 369.072 275.129C369.101 275.751 369.42 281.735 368.503 281.735Z" fill="#323444"/>
<path d="M368.082 200.578C367.512 201.456 367.512 202.55 367.512 203.581C367.512 208.625 367.564 213.698 368.31 218.69C368.486 219.887 368.708 221.084 368.822 222.292C368.951 223.974 368.978 225.662 368.902 227.347L368.332 249.289C368.264 251.973 368.127 254.857 366.47 256.966C365.968 257.673 365.732 258.535 365.804 259.4C366.237 264.905 367.148 270.365 368.053 275.808C369.511 275.149 371.104 274.846 372.701 274.922C374.298 274.999 375.855 275.452 377.243 276.246C380.116 267.205 381.705 257.804 381.964 248.32C382.095 243.653 381.895 238.956 382.613 234.346C383.814 226.583 383.325 218.622 382.442 210.814C382.163 208.34 381.571 205.793 379.988 203.878C378.49 202.202 376.494 201.052 374.294 200.595C372.187 200.042 370.303 200.612 368.082 200.578Z" fill="#5B5583"/>
<path opacity="0.1" d="M368.082 200.578C367.512 201.456 367.512 202.55 367.512 203.581C367.512 208.625 367.564 213.698 368.31 218.69C368.486 219.887 368.708 221.084 368.822 222.292C368.951 223.974 368.978 225.662 368.902 227.347L368.332 249.289C368.264 251.973 368.127 254.857 366.47 256.966C365.968 257.673 365.732 258.535 365.804 259.4C366.237 264.905 367.148 270.365 368.053 275.808C369.511 275.149 371.104 274.846 372.701 274.922C374.298 274.999 375.855 275.452 377.243 276.246C380.116 267.205 381.705 257.804 381.964 248.32C382.095 243.653 381.895 238.956 382.613 234.346C383.814 226.583 383.325 218.622 382.442 210.814C382.163 208.34 381.571 205.793 379.988 203.878C378.49 202.202 376.494 201.052 374.294 200.595C372.187 200.042 370.303 200.612 368.082 200.578Z" fill="black"/>
<path d="M375.04 264.21C371.221 283.797 373.306 304.079 381.03 322.478C381.697 323.84 382.165 325.291 382.419 326.787C382.732 329.58 381.446 332.264 380.711 334.965C379.003 341.109 379.988 347.652 381.081 353.938C381.537 356.56 382.006 359.179 382.488 361.797C382.96 364.35 383.416 367.126 382.231 369.44C383.251 373.691 383.854 377.903 384.873 382.155C384.981 382.491 385.014 382.847 384.97 383.198C384.765 383.754 384.403 384.239 383.928 384.594C383.169 385.365 382.623 386.321 382.344 387.367C382.065 388.413 382.064 389.514 382.34 390.561C384.942 388.692 388.569 389.347 391.541 390.561C394.513 391.775 397.44 393.411 400.651 393.411C400.184 389.638 399.735 385.677 401.124 382.138C401.933 380.086 403.356 378.148 403.316 375.954C403.276 373.988 402.075 372.232 401.784 370.289C401.677 369.08 401.722 367.862 401.921 366.664C402.684 359.688 401.819 352.644 400.953 345.68C400.855 344.306 400.532 342.959 399.997 341.69C399.592 340.87 398.989 340.083 399 339.166C399 338.1 399.86 337.234 400.179 336.219C400.748 334.35 399.7 331.808 401.278 330.651C405.434 327.596 403.84 320.301 403.749 315.143C403.677 310.694 403.487 306.249 403.18 301.807C405.797 309.173 406.867 317 406.323 324.798C406.14 327.351 405.804 330.035 406.801 332.395C407.564 334.207 409.078 335.7 409.488 337.621C409.745 338.807 409.562 340.032 409.619 341.24C409.676 342.448 410.086 343.765 411.128 344.375C411.208 349.869 411.698 355.745 411.783 361.239C411.728 364.047 411.957 366.854 412.466 369.616C412.722 370.495 412.864 371.403 412.888 372.318C412.759 373.465 412.456 374.586 411.988 375.641C410.996 378.582 410.736 381.721 411.233 384.785C411.729 387.849 412.965 390.746 414.835 393.223C416.179 390.835 418.98 389.569 421.713 389.37C424.447 389.17 427.145 389.86 429.793 390.555C429.388 387.225 430.05 383.853 431.684 380.924C432.121 380.264 432.457 379.541 432.68 378.781C432.987 377.333 432.27 375.891 431.883 374.461C431.251 372.181 431.473 369.725 431.621 367.342C432.118 359.364 431.765 351.355 430.568 343.451C430.383 341.895 430.018 340.365 429.48 338.892C429.275 338.368 429.024 337.866 428.854 337.336C428.585 336.385 428.432 335.406 428.398 334.418L427.743 325.299C427.282 318.911 429.377 312.602 430.841 306.367C431.496 303.574 432.207 300.787 432.646 297.949C433.244 294.085 433.34 290.135 434.217 286.323C435.003 282.903 436.421 279.569 436.717 276.064C437.173 270.633 434.918 265.384 432.731 260.403C431.82 258.351 428.375 258.556 426.16 258.191C410.451 255.61 393.904 255.592 379.088 261.411C377.556 262.047 376.176 263 375.04 264.21Z" fill="#3C354C"/>
<path d="M386.365 163.054L388.108 169.836C388.581 171.392 388.844 173.004 388.888 174.629C388.906 175.222 388.775 175.81 388.506 176.339C388.219 176.774 387.852 177.149 387.424 177.445C386.234 178.351 385.409 180.465 384.048 181.092C384.748 182.312 385.716 181.52 386.98 182.13C389.207 183.212 391.245 184.768 393.659 185.304C395.937 185.806 398.328 185.333 400.589 184.734C403.795 183.862 406.983 182.66 409.563 180.557C412.142 178.454 413.611 176.596 413.6 173.273C410.753 173.609 408.219 170.731 406.96 168.144C406.524 167.16 406.203 166.129 406.004 165.072L404.478 158.352C402.815 158.717 401.46 159.908 399.871 160.53C398.283 161.151 396.404 161.208 394.639 161.288C391.505 161.43 388.389 161.834 385.323 162.496C384.902 162.581 384.372 162.849 384.475 163.26" fill="#FBB3B2"/>
<path opacity="0.1" d="M386.365 163.054L388.108 169.836C388.581 171.392 388.844 173.004 388.888 174.629C388.906 175.222 388.775 175.81 388.506 176.339C388.219 176.774 387.852 177.149 387.424 177.445C386.234 178.351 385.409 180.465 384.048 181.092C384.748 182.312 385.716 181.52 386.98 182.13C389.207 183.212 391.245 184.768 393.659 185.304C395.937 185.806 398.328 185.333 400.589 184.734C403.795 183.862 406.983 182.66 409.563 180.557C412.142 178.454 413.611 176.596 413.6 173.273C410.753 173.609 408.219 170.731 406.96 168.144C406.524 167.16 406.203 166.129 406.004 165.072L404.478 158.352C402.815 158.717 401.46 159.908 399.871 160.53C398.283 161.151 396.404 161.208 394.639 161.288C391.505 161.43 388.389 161.834 385.323 162.496C384.902 162.581 384.372 162.849 384.475 163.26" fill="black"/>
<path d="M393.847 166.793C402.174 166.793 408.925 160.036 408.925 151.702C408.925 143.367 402.174 136.61 393.847 136.61C385.52 136.61 378.77 143.367 378.77 151.702C378.77 160.036 385.52 166.793 393.847 166.793Z" fill="#FBB3B2"/>
<path d="M397.998 176.579C398.804 174.836 399.968 173.282 401.414 172.019C403.538 170.156 406.442 168.645 406.943 165.864L411.544 171.227C411.794 171.476 411.988 171.775 412.113 172.105C412.171 172.414 412.163 172.732 412.088 173.038C412.013 173.343 411.874 173.63 411.68 173.877C410.542 175.695 408.748 176.995 407.051 178.311C403.162 181.395 399.439 184.682 395.897 188.159C395.741 188.341 395.531 188.468 395.299 188.524C395.079 188.53 394.862 188.469 394.678 188.347C391.622 186.741 388.918 184.54 386.724 181.873C386.559 181.674 386.354 181.446 386.086 181.463C385.925 181.492 385.776 181.57 385.659 181.685C384.127 182.939 382.453 184.438 380.489 184.244C383.034 182.415 384.475 179.36 385.01 176.265C385.116 175.206 385.333 174.161 385.659 173.148C385.828 172.641 386.118 172.183 386.506 171.815C386.893 171.448 387.365 171.181 387.88 171.039C386.638 172.937 387.487 175.627 389.155 177.16C390.776 178.537 392.719 179.48 394.803 179.901C396.739 180.266 397.309 178.072 397.998 176.579Z" fill="#323444"/>
<path d="M378.382 265.76C380.529 266.29 382.561 267.19 384.645 267.857C388.444 269.048 392.441 269.468 396.404 269.094C397.623 269.067 398.809 268.689 399.82 268.005C400.088 267.789 400.332 267.532 400.617 267.333C401.093 267.047 401.61 266.833 402.149 266.7C407.37 265.064 411.743 261.537 415.985 258.083C416.122 257.969 416.276 257.826 416.264 257.644C416.245 257.52 416.185 257.406 416.093 257.319L413.861 254.755C408.008 255.752 402.012 255.376 396.073 255.228C394.854 255.173 393.632 255.206 392.418 255.325C391.245 255.461 390.089 255.758 388.933 256.008C384.543 256.966 380.056 257.331 375.609 257.958C375.298 257.981 374.996 258.074 374.727 258.231C374.539 258.376 374.379 258.554 374.254 258.755L372.694 260.95C372.088 261.688 371.642 262.544 371.384 263.463C371.02 265.173 371.783 265.743 373.235 265.52C374.95 265.269 376.698 265.35 378.382 265.76Z" fill="#323444"/>
<path d="M395.834 185.549C394.092 183.763 392.118 182.219 389.964 180.961C389.094 180.408 388.128 180.021 387.117 179.821C386.608 179.721 386.083 179.733 385.58 179.857C385.076 179.981 384.606 180.214 384.202 180.54C383.695 180.99 383.376 181.617 382.886 182.09C382.27 182.608 381.563 183.008 380.802 183.269C378.21 184.378 375.753 185.78 373.48 187.447C372.24 188.315 371.124 189.346 370.16 190.513C367.581 193.819 367.194 198.315 367.262 202.51C367.313 205.428 370.109 207.594 372.034 209.776C373.839 211.924 375.472 214.211 376.919 216.615C377.955 218.257 379.037 220.035 378.906 221.99C378.798 223.591 377.864 225.096 378.012 226.692C378.063 227.262 378.246 227.786 378.297 228.339C378.399 229.479 377.95 230.618 377.836 231.758C377.682 233.371 378.206 234.973 378.234 236.597C378.213 237.709 378.072 238.815 377.813 239.897C376.72 245.106 375.347 250.343 375.626 255.661L372.472 256.231C372.771 256.524 372.996 256.883 373.131 257.28C373.265 257.677 373.304 258.099 373.245 258.514C373.185 258.928 373.029 259.323 372.789 259.666C372.549 260.009 372.232 260.291 371.863 260.488C376.788 262.135 382.112 261.303 387.333 261.297C391.655 261.297 395.96 261.867 400.276 261.787C404.592 261.708 409.044 260.927 412.603 258.482C413.571 257.821 414.459 257.046 415.479 256.47C416.844 255.762 418.315 255.281 419.834 255.045C422.649 254.508 425.51 254.252 428.375 254.282C429.776 254.282 431.302 254.339 432.418 253.495C433.648 252.56 433.961 250.868 434.126 249.335C434.291 247.716 434.394 246.092 434.422 244.468C434.47 243.203 434.403 241.936 434.223 240.683C434.052 239.767 433.83 238.861 433.557 237.97L431.41 230.402C430.522 227.279 431.758 223.854 432.02 220.616C432.082 219.853 432.094 218.964 431.507 218.473C431.296 218.297 431.006 218.177 430.938 217.904C430.907 217.774 430.903 217.639 430.927 217.507C430.95 217.376 431.001 217.251 431.074 217.14C432.213 214.86 433.921 212.848 435.482 210.791C438.102 207.182 440.535 203.44 442.77 199.581C442.07 191.504 438.672 183.899 433.124 177.992C431.985 176.755 430.682 175.57 429.087 175.011C428.045 174.693 426.965 174.518 425.876 174.493C421.412 174.191 416.765 173.923 412.876 171.677C412.597 171.484 412.281 171.35 411.948 171.284C411.089 171.187 410.462 172.036 409.904 172.709C408.469 174.419 406.357 175.399 404.501 176.658C401.039 179.012 398.334 182.249 395.834 185.549Z" fill="#5B5583"/>
<path d="M443.157 201.912C444.045 204.727 443.96 207.736 444.25 210.671C444.422 212.442 444.732 214.197 445.178 215.92C445.382 216.867 445.748 217.771 446.26 218.593C446.772 219.345 447.507 219.955 447.831 220.804C448.009 221.38 448.088 221.981 448.065 222.583L448.133 226.515C448.279 228.599 447.962 230.689 447.205 232.636L444.751 240.108C443.424 244.154 442.063 248.263 439.672 251.785C439.335 252.381 438.825 252.861 438.209 253.159C437.726 253.286 437.232 253.363 436.734 253.387C435.866 253.542 435.079 253.995 434.508 254.668C433.938 255.341 433.619 256.192 433.608 257.074C433.038 256.241 432.327 255.514 431.507 254.926L426.513 250.936C424.805 249.546 423.023 248.132 420.95 247.329C423.738 246.457 426.213 244.795 428.075 242.543C429.936 240.291 431.105 237.546 431.439 234.642C431.437 233.778 431.631 232.924 432.008 232.146C432.424 231.473 433.192 230.96 433.249 230.168C433.318 229.171 432.19 228.419 432.19 227.421C432.19 226.76 432.68 226.213 432.896 225.592C433.098 224.824 433.098 224.017 432.896 223.249L432.207 219.42C432.167 219.036 432.05 218.664 431.866 218.325C431.608 218.001 431.322 217.699 431.011 217.425C429.827 216.097 430.351 214.005 431.011 212.37C432.528 208.739 434.482 205.307 436.831 202.151C437.667 201.091 438.44 199.984 439.148 198.834C439.752 197.785 439.888 196.332 440.526 195.414C441.346 197.569 442.456 199.695 443.157 201.912Z" fill="#5B5583"/>
<path d="M420.774 247.562C420.52 247.751 420.3 247.982 420.125 248.246C419.454 249.089 418.56 249.727 417.545 250.087C418.115 250.497 418.633 250.902 419.168 251.318C423.128 254.379 426.755 257.85 429.987 261.673C430.345 260.391 432.492 260.482 433.016 259.257C433.139 258.906 433.178 258.531 433.13 258.163C433.021 256.243 432.747 254.336 432.31 252.464C432.137 251.499 431.748 250.587 431.171 249.796C430.374 248.833 429.133 248.371 427.948 247.973C426.155 247.346 422.596 246.462 420.774 247.562Z" fill="#323444"/>
<path d="M413.656 252.042C411.948 253.307 410.451 254.891 408.532 255.758C407.177 256.373 405.634 256.641 404.449 257.559C405.093 258.978 406.767 259.713 408.321 259.656C409.877 259.503 411.368 258.956 412.654 258.066C413.673 257.439 414.869 256.709 415.98 257.148C416.15 258.015 415.41 258.83 415.41 259.707C415.41 260.585 416.139 261.223 416.856 261.685C420.273 263.89 424.669 263.708 428.74 263.452C428.973 263.46 429.203 263.392 429.395 263.258C429.483 263.155 429.55 263.035 429.592 262.906C429.634 262.777 429.65 262.641 429.639 262.506C429.691 261.605 429.713 260.71 429.719 259.81C429.834 259.084 429.74 258.34 429.447 257.666C429.155 256.991 428.676 256.414 428.068 256.003C425.859 254.102 423.476 252.413 420.95 250.959C418.445 249.506 415.905 250.366 413.656 252.042Z" fill="#FBB3B2"/>
<path d="M399.143 145.393C396.615 145.695 394.775 147.672 395.032 149.821C395.288 151.969 397.543 153.451 400.071 153.143C402.599 152.836 404.438 150.864 404.182 148.721C403.926 146.578 401.671 145.09 399.143 145.393ZM400.002 152.551C397.862 152.807 395.954 151.548 395.732 149.735C395.51 147.923 397.076 146.247 399.211 145.991C401.346 145.734 403.259 146.994 403.482 148.806C403.704 150.619 402.138 152.294 400.002 152.551Z" fill="#3C354C"/>
<path d="M386.82 146.874C384.292 147.176 382.453 149.154 382.709 151.297C382.966 153.44 385.22 154.927 387.749 154.625C390.277 154.323 392.116 152.346 391.86 150.197C391.603 148.048 389.349 146.572 386.82 146.874ZM387.68 154.027C385.539 154.283 383.632 153.024 383.415 151.217C383.199 149.41 384.754 147.729 386.894 147.467C389.035 147.205 390.943 148.47 391.159 150.282C391.376 152.095 389.815 153.77 387.68 154.027Z" fill="#3C354C"/>
<path d="M377.671 147.974L383.165 149.148L382.624 150.596L377.443 149.074L377.671 147.974Z" fill="#3C354C"/>
<path d="M408.299 144.293L403.231 146.738L404.102 148.014L408.777 145.307L408.299 144.293Z" fill="#3C354C"/>
<path d="M391.353 148.784L395.208 148.322L395.009 149.279L391.7 149.502L391.353 148.784Z" fill="#3C354C"/>
<path d="M383.877 147.49C384.239 146.709 384.433 145.86 384.446 144.999C384.46 144.484 384.548 143.973 384.708 143.483C384.988 142.861 385.414 142.316 385.949 141.893C387.726 140.389 390.271 139.614 392.782 139.505C395.52 139.379 398.244 139.968 400.685 141.215C401.431 141.565 402.099 142.061 402.65 142.674C403.447 143.649 403.618 144.908 404.421 145.871C404.969 146.456 405.658 146.889 406.422 147.128C407.186 147.368 407.999 147.406 408.782 147.239C409.061 146.247 408.697 145.199 408.839 144.184C409.064 143.315 409.367 142.468 409.744 141.654C410.627 139.049 409.34 136.029 406.687 134.473C405.759 133.903 404.66 133.532 403.965 132.763C403.27 131.994 403.105 131.196 402.627 130.426C401.357 128.392 398.072 127.44 395.572 128.38C394.786 128.677 394.092 129.127 393.295 129.446C391.814 130.056 390.129 130.164 388.5 130.369C386.895 130.518 385.325 130.93 383.854 131.589C382.448 132.284 381.269 133.401 380.944 134.735C380.791 135.351 380.825 135.989 380.671 136.599C379.885 139.693 374.812 141.198 374.527 144.355C374.425 145.495 375.045 146.589 375.82 147.518C376.355 148.151 377.636 149.844 378.541 150.089C379.447 150.334 380.136 149.473 381.001 149.177C382.368 148.749 383.193 148.658 383.877 147.49Z" fill="#CBCEDA"/>
<path d="M448.11 348.222C448.11 376.854 466.058 400.027 488.236 400.027L448.11 348.222Z" fill="#46455B"/>
<path d="M488.236 400.033C488.236 371.075 508.268 347.646 533.019 347.646L488.236 400.033Z" fill="#FFAA40"/>
<path d="M462.653 350.82C462.653 378.023 474.098 400.033 488.236 400.033L462.653 350.82Z" fill="#FFAA40"/>
<path d="M488.236 400.033C488.236 363.034 511.388 333.09 539.995 333.09L488.236 400.033Z" fill="#46455B"/>
<path opacity="0.1" d="M486.499 409.927C492.009 409.927 496.475 409.172 496.475 408.24C496.475 407.308 492.009 406.553 486.499 406.553C480.99 406.553 476.523 407.308 476.523 408.24C476.523 409.172 480.99 409.927 486.499 409.927Z" fill="#FFAA40"/>
<path d="M479.797 400.398C479.797 400.398 485.491 400.221 487.2 399.002C488.908 397.782 495.951 396.317 496.378 398.278C496.805 400.238 504.919 408.029 498.502 408.08C492.085 408.132 483.572 407.077 481.864 406.034C480.156 404.991 479.797 400.398 479.797 400.398Z" fill="#A8A8A8"/>
<path opacity="0.2" d="M498.622 407.396C492.199 407.448 483.698 406.393 481.984 405.35C480.68 404.558 480.162 401.703 479.985 400.392H479.797C479.797 400.392 480.156 404.986 481.87 406.029C483.584 407.072 492.085 408.126 498.508 408.075C500.364 408.075 501.002 407.396 500.968 406.422C500.711 407.015 500.034 407.385 498.622 407.396Z" fill="black"/>
<path d="M12.8057 364.954C12.8057 387.751 27.0805 406.171 44.7261 406.171L12.8057 364.954Z" fill="#46455B"/>
<path d="M44.7261 406.171C44.7261 383.135 60.6692 364.493 80.3533 364.493L44.7261 406.171Z" fill="#FFAA40"/>
<path d="M24.3701 367.029C24.3701 388.686 33.4805 406.183 44.7261 406.183L24.3701 367.029Z" fill="#FFAA40"/>
<path d="M44.7261 406.171C44.7261 376.735 63.1461 352.912 85.9049 352.912L44.7261 406.171Z" fill="#46455B"/>
<path opacity="0.1" d="M43.3427 414.047C47.7264 414.047 51.2801 413.445 51.2801 412.702C51.2801 411.96 47.7264 411.357 43.3427 411.357C38.959 411.357 35.4053 411.96 35.4053 412.702C35.4053 413.445 38.959 414.047 43.3427 414.047Z" fill="#FFAA40"/>
<path d="M38.0132 406.462C38.0132 406.462 42.5399 406.319 43.9008 405.322C45.2616 404.325 50.8702 403.185 51.2061 404.752C51.5421 406.319 58.0104 412.509 52.9143 412.549C47.8182 412.588 41.0367 411.751 39.6758 410.924C38.315 410.098 38.0132 406.462 38.0132 406.462Z" fill="#A8A8A8"/>
<path opacity="0.2" d="M52.9883 412.053C47.8638 412.093 41.1107 411.255 39.7498 410.423C38.7135 409.796 38.3036 407.522 38.1612 406.479H38.0132C38.0132 406.479 38.2979 410.132 39.6587 410.964C41.0196 411.796 47.7897 412.628 52.8972 412.588C54.372 412.588 54.8844 412.053 54.856 411.272C54.651 411.728 54.0873 412.019 52.9883 412.053Z" fill="black"/>
</g>
<defs>
<clipPath id="clip0">
<rect width="540" height="432" fill="white"/>
</clipPath>
</defs>
</svg>
