<svg width="141" height="372" viewBox="0 0 141 372" fill="none" xmlns="http://www.w3.org/2000/svg">
<path d="M97.6482 57.048C54.7687 -15.7173 -8.57611 -0.990963 -34.8886 15.4679L-49.5066 367.6C-32.7229 372.906 10.9146 373.642 51.1954 334.141C101.546 284.764 159.044 295.484 132.407 213.299C105.769 131.113 151.248 148.005 97.6482 57.048Z" stroke="#FFAA40" stroke-width="3"/>
<path d="M91.1513 57.048C48.2718 -15.7173 -15.073 -0.990963 -41.3855 15.4679L-56.0035 367.6C-39.2198 372.906 4.41771 373.642 44.6985 334.141C95.0495 284.764 152.547 295.484 125.91 213.299C99.2725 131.113 144.751 148.005 91.1513 57.048Z" stroke="#FFAA40" stroke-width="3"/>
<path d="M84.6544 57.048C41.7749 -15.7173 -21.5699 -0.990963 -47.8824 15.4679L-62.5004 367.6C-45.7167 372.906 -2.0792 373.642 38.2016 334.141C88.5526 284.764 146.05 295.484 119.413 213.299C92.7756 131.113 138.254 148.005 84.6544 57.048Z" stroke="#FFAA40" stroke-width="3"/>
<path d="M84.6544 57.048C41.7749 -15.7173 -21.5699 -0.990963 -47.8824 15.4679L-62.5004 367.6C-45.7167 372.906 -2.0792 373.642 38.2016 334.141C88.5526 284.764 146.05 295.484 119.413 213.299C92.7756 131.113 138.254 148.005 84.6544 57.048Z" stroke="#FFAA40" stroke-width="3"/>
<path d="M79.4569 57.048C36.5774 -15.7173 -26.7674 -0.990963 -53.0799 15.4679L-67.6979 367.6C-50.9142 372.906 -7.27672 373.642 33.0041 334.141C83.3551 284.764 140.853 295.484 114.215 213.299C87.578 131.113 133.056 148.005 79.4569 57.048Z" stroke="#FFAA40" stroke-width="3"/>
<path d="M72.96 57.048C30.0804 -15.7173 -33.2643 -0.990963 -59.5768 15.4679L-74.1948 367.6C-57.4112 372.906 -13.7736 373.642 26.5071 334.141C76.8581 284.764 134.356 295.484 107.718 213.299C81.0811 131.113 126.559 148.005 72.96 57.048Z" stroke="#FFAA40" stroke-width="3"/>
</svg>
