<svg width="18" height="14" viewBox="0 0 18 14" fill="none" xmlns="http://www.w3.org/2000/svg">
<path d="M8.985 13.4739L5.45468 13.4052C4.31164 13.3812 3.16575 13.429 2.04512 13.1808C0.340389 12.8098 0.21962 10.9909 0.0932477 9.46513C-0.0808806 7.32014 -0.0134703 5.13622 0.315132 3.00914C0.500639 1.81563 1.23068 1.10345 2.35967 1.02595C6.17084 0.744695 10.0074 0.778026 13.8101 0.909241C14.2117 0.92127 14.6161 0.987015 15.0121 1.06185C16.9669 1.42685 17.0146 3.48809 17.1413 5.22327C17.2676 6.97636 17.2143 8.73844 16.9727 10.4796C16.779 11.9212 16.4082 13.1302 14.8436 13.2469C12.8831 13.3995 10.9677 13.5223 9.00181 13.4832C9.00189 13.4739 8.9906 13.4739 8.985 13.4739ZM6.90951 9.82416C8.38684 8.92062 9.83599 8.03214 11.3049 7.13466C9.82478 6.23112 8.37839 5.34264 6.90951 4.44516V9.82416Z" fill="#FF0000"/>
</svg>
