<svg width="540" height="398" viewBox="0 0 540 398" fill="none" xmlns="http://www.w3.org/2000/svg">
<path opacity="0.1" d="M313.745 59.6791C279.127 58.4778 246.154 47.2781 214.672 35.0351C183.189 22.792 151.998 9.22317 118.212 2.7331C96.4784 -1.44046 71.6241 -2.01958 54.1147 9.63956C37.26 20.868 31.817 40.2712 28.8924 58.2433C26.6894 71.7786 25.3943 86.0032 31.4251 98.6913C35.6161 107.484 43.0566 114.878 48.2034 123.302C66.0998 152.622 53.46 188.772 34.0487 217.394C24.969 230.824 14.3936 243.631 7.37363 257.928C0.353634 272.224 -2.89592 288.598 3.24479 303.176C9.33771 317.631 23.846 328.486 39.5634 336.12C71.4903 351.627 109.113 356.068 145.8 358.581C227.015 364.124 308.66 361.731 390.086 359.337C420.22 358.442 450.484 357.538 480.132 352.871C496.59 350.282 513.583 346.171 525.53 336.239C540.703 323.632 544.463 302.286 534.294 286.463C517.244 259.952 470.092 253.367 458.173 224.913C451.612 209.252 458.35 191.807 467.884 177.281C488.337 146.118 522.62 118.784 524.426 83.1649C525.669 58.7027 509.187 34.2023 483.706 22.6293C456.993 10.4963 419.958 12.0231 400.25 32.1059C379.969 52.787 344.31 60.7417 313.745 59.6791Z" fill="#FFAA40"/>
<path d="M317.396 361.783L224.21 360.586L224.482 358.193L228.989 318.707H310.825L316.846 358.193L317.305 361.185L317.396 361.783Z" fill="#D0D2D5"/>
<path opacity="0.1" d="M317.305 361.185H270.803L224.21 360.586L224.482 358.193H316.846L317.305 361.185Z" fill="black"/>
<path d="M332.329 358.792H208.679V361.783H332.329V358.792Z" fill="#D0D2D5"/>
<path d="M450.303 81.5422C450.308 80.5196 450.112 79.506 449.725 78.5593C449.339 77.6126 448.771 76.7513 448.052 76.0246C447.334 75.298 446.48 74.7202 445.538 74.3242C444.597 73.9282 443.587 73.7218 442.566 73.7168H97.2478C96.2263 73.7212 95.2158 73.9271 94.2738 74.3228C93.3319 74.7185 92.477 75.2962 91.7581 76.023C91.0391 76.7497 90.4702 77.6112 90.0838 78.5582C89.6975 79.5052 89.5012 80.5192 89.5062 81.5422V291.177H450.303V81.5422Z" fill="#444053"/>
<path d="M89.5062 289.095V313.648C89.5062 315.705 90.3219 317.677 91.7737 319.131C93.2255 320.585 95.1946 321.402 97.2478 321.402H442.566C444.618 321.401 446.586 320.583 448.037 319.129C449.488 317.675 450.303 315.704 450.303 313.648V289.095H89.5062Z" fill="#D0D2D5"/>
<path opacity="0.1" d="M437.161 86.8788H104.44V275.335H437.161V86.8788Z" fill="#FFAA40"/>
<path d="M271.696 312.083C272.918 312.084 274.124 311.807 275.224 311.273C276.323 310.739 277.287 309.962 278.043 309.001C278.272 308.708 278.481 308.399 278.669 308.077L274.244 307.35L279.022 307.388C279.483 306.388 279.735 305.303 279.761 304.202C279.787 303.1 279.588 302.005 279.175 300.984L272.757 304.334L278.678 299.979C278.122 299.023 277.375 298.192 276.485 297.537C275.595 296.883 274.58 296.418 273.503 296.172C272.426 295.927 271.31 295.906 270.224 296.11C269.139 296.315 268.107 296.74 267.192 297.361C266.278 297.981 265.5 298.783 264.908 299.717C264.316 300.651 263.922 301.697 263.75 302.79C263.578 303.882 263.632 304.999 263.909 306.07C264.186 307.141 264.68 308.143 265.36 309.015C266.116 309.973 267.079 310.747 268.176 311.278C269.274 311.81 270.477 312.085 271.696 312.083Z" fill="#FFAA40"/>
<path opacity="0.1" d="M279.763 321.402L316.937 358.792L311.236 321.402H279.763Z" fill="black"/>
<path d="M331.359 120.88H115.455C114.769 120.88 114.212 121.437 114.212 122.124V250.777C114.212 251.464 114.769 252.021 115.455 252.021H331.359C332.046 252.021 332.602 251.464 332.602 250.777V122.124C332.602 121.437 332.046 120.88 331.359 120.88Z" fill="white"/>
<path d="M437.257 86.898H104.655V97.9062H437.257V86.898Z" fill="white"/>
<path d="M115.273 88.8124H106.461C106.255 88.8124 106.089 88.9796 106.089 89.1858V95.1398C106.089 95.346 106.255 95.5131 106.461 95.5131H115.273C115.479 95.5131 115.646 95.346 115.646 95.1398V89.1858C115.646 88.9796 115.479 88.8124 115.273 88.8124Z" fill="#FFAA40"/>
<path opacity="0.3" d="M319.9 88.8124H220.1C219.947 88.8124 219.823 88.9367 219.823 89.09V95.2355C219.823 95.3888 219.947 95.5131 220.1 95.5131H319.9C320.053 95.5131 320.177 95.3888 320.177 95.2355V89.09C320.177 88.9367 320.053 88.8124 319.9 88.8124Z" fill="#FFAA40"/>
<path d="M317.2 92.852H316.956L316.865 92.7754C317.172 92.4109 317.341 91.9502 317.343 91.4736C317.34 91.0821 317.222 90.7002 317.003 90.3762C316.783 90.0521 316.473 89.8004 316.111 89.6527C315.749 89.5051 315.351 89.4682 314.968 89.5467C314.585 89.6251 314.234 89.8154 313.959 90.0936C313.684 90.3717 313.498 90.7253 313.423 91.1096C313.348 91.4938 313.389 91.8917 313.54 92.2528C313.691 92.6139 313.945 92.9222 314.271 93.1388C314.596 93.3553 314.979 93.4703 315.37 93.4694C315.845 93.4665 316.305 93.2972 316.669 92.9908L316.76 93.0674V93.3162L318.289 94.8478L318.767 94.3692L317.2 92.852ZM315.365 92.852C315.091 92.8529 314.824 92.7725 314.596 92.6209C314.368 92.4692 314.19 92.2533 314.085 92.0003C313.98 91.7474 313.952 91.4689 314.005 91.2001C314.058 90.9314 314.19 90.6844 314.384 90.4907C314.577 90.297 314.823 90.1651 315.092 90.1119C315.36 90.0587 315.638 90.0865 315.891 90.1918C316.143 90.2971 316.359 90.4751 316.51 90.7033C316.662 90.9315 316.742 91.1996 316.741 91.4736C316.742 91.6549 316.708 91.8348 316.639 92.0026C316.57 92.1704 316.469 92.3228 316.341 92.4511C316.213 92.5793 316.061 92.6808 315.893 92.7497C315.725 92.8185 315.546 92.8533 315.365 92.852Z" fill="#444053"/>
<path d="M432.478 95.5131C434.325 95.5131 435.823 94.0131 435.823 92.1628C435.823 90.3124 434.325 88.8124 432.478 88.8124C430.63 88.8124 429.133 90.3124 429.133 92.1628C429.133 94.0131 430.63 95.5131 432.478 95.5131Z" fill="#FFAA40"/>
<path d="M378.272 109.872H349.533C348.892 109.872 348.372 110.392 348.372 111.035V129.768C348.372 130.41 348.892 130.931 349.533 130.931H378.272C378.914 130.931 379.434 130.41 379.434 129.768V111.035C379.434 110.392 378.914 109.872 378.272 109.872Z" fill="white"/>
<path d="M427.408 109.872H387.849C387.688 109.872 387.557 110.002 387.557 110.164V112.93C387.557 113.091 387.688 113.222 387.849 113.222H427.408C427.569 113.222 427.699 113.091 427.699 112.93V110.164C427.699 110.002 427.569 109.872 427.408 109.872Z" fill="white"/>
<path d="M427.408 117.051H387.849C387.688 117.051 387.557 117.182 387.557 117.343V120.109C387.557 120.271 387.688 120.401 387.849 120.401H427.408C427.569 120.401 427.699 120.271 427.699 120.109V117.343C427.699 117.182 427.569 117.051 427.408 117.051Z" fill="white"/>
<path d="M427.408 124.23H387.849C387.688 124.23 387.557 124.361 387.557 124.522V127.289C387.557 127.45 387.688 127.581 387.849 127.581H427.408C427.569 127.581 427.699 127.45 427.699 127.289V124.522C427.699 124.361 427.569 124.23 427.408 124.23Z" fill="white"/>
<path d="M378.272 142.896H349.533C348.892 142.896 348.372 143.417 348.372 144.059V162.793C348.372 163.435 348.892 163.956 349.533 163.956H378.272C378.914 163.956 379.434 163.435 379.434 162.793V144.059C379.434 143.417 378.914 142.896 378.272 142.896Z" fill="white"/>
<path d="M427.408 142.896H387.849C387.688 142.896 387.557 143.027 387.557 143.188V145.955C387.557 146.116 387.688 146.247 387.849 146.247H427.408C427.569 146.247 427.699 146.116 427.699 145.955V143.188C427.699 143.027 427.569 142.896 427.408 142.896Z" fill="white"/>
<path d="M427.408 150.076H387.849C387.688 150.076 387.557 150.206 387.557 150.368V153.134C387.557 153.295 387.688 153.426 387.849 153.426H427.408C427.569 153.426 427.699 153.295 427.699 153.134V150.368C427.699 150.206 427.569 150.076 427.408 150.076Z" fill="white"/>
<path d="M427.384 157.255H387.873C387.699 157.255 387.557 157.396 387.557 157.571V160.289C387.557 160.464 387.699 160.605 387.873 160.605H427.384C427.558 160.605 427.699 160.464 427.699 160.289V157.571C427.699 157.396 427.558 157.255 427.384 157.255Z" fill="white"/>
<path d="M378.272 175.921H349.533C348.892 175.921 348.372 176.442 348.372 177.084V195.817C348.372 196.46 348.892 196.98 349.533 196.98H378.272C378.914 196.98 379.434 196.46 379.434 195.817V177.084C379.434 176.442 378.914 175.921 378.272 175.921Z" fill="white"/>
<path d="M427.384 175.921H387.873C387.699 175.921 387.557 176.062 387.557 176.237V178.955C387.557 179.13 387.699 179.271 387.873 179.271H427.384C427.558 179.271 427.699 179.13 427.699 178.955V176.237C427.699 176.062 427.558 175.921 427.384 175.921Z" fill="white"/>
<path d="M427.384 183.1H387.873C387.699 183.1 387.557 183.242 387.557 183.416V186.135C387.557 186.309 387.699 186.451 387.873 186.451H427.384C427.558 186.451 427.699 186.309 427.699 186.135V183.416C427.699 183.242 427.558 183.1 427.384 183.1Z" fill="white"/>
<path d="M427.384 190.28H387.873C387.699 190.28 387.557 190.421 387.557 190.595V193.314C387.557 193.488 387.699 193.63 387.873 193.63H427.384C427.558 193.63 427.699 193.488 427.699 193.314V190.595C427.699 190.421 427.558 190.28 427.384 190.28Z" fill="white"/>
<path d="M378.272 208.946H349.533C348.892 208.946 348.372 209.466 348.372 210.109V228.842C348.372 229.484 348.892 230.005 349.533 230.005H378.272C378.914 230.005 379.434 229.484 379.434 228.842V210.109C379.434 209.466 378.914 208.946 378.272 208.946Z" fill="white"/>
<path d="M427.384 208.946H387.873C387.699 208.946 387.557 209.087 387.557 209.262V211.98C387.557 212.155 387.699 212.296 387.873 212.296H427.384C427.558 212.296 427.699 212.155 427.699 211.98V209.262C427.699 209.087 427.558 208.946 427.384 208.946Z" fill="white"/>
<path d="M427.384 216.125H387.873C387.699 216.125 387.557 216.266 387.557 216.441V219.159C387.557 219.334 387.699 219.475 387.873 219.475H427.384C427.558 219.475 427.699 219.334 427.699 219.159V216.441C427.699 216.266 427.558 216.125 427.384 216.125Z" fill="white"/>
<path d="M427.384 223.304H387.873C387.699 223.304 387.557 223.446 387.557 223.62V226.339C387.557 226.513 387.699 226.655 387.873 226.655H427.384C427.558 226.655 427.699 226.513 427.699 226.339V223.62C427.699 223.446 427.558 223.304 427.384 223.304Z" fill="white"/>
<path d="M378.272 241.97H349.533C348.892 241.97 348.372 242.491 348.372 243.133V261.867C348.372 262.509 348.892 263.03 349.533 263.03H378.272C378.914 263.03 379.434 262.509 379.434 261.867V243.133C379.434 242.491 378.914 241.97 378.272 241.97Z" fill="white"/>
<path d="M427.384 241.97H387.873C387.699 241.97 387.557 242.112 387.557 242.286V245.005C387.557 245.179 387.699 245.321 387.873 245.321H427.384C427.558 245.321 427.699 245.179 427.699 245.005V242.286C427.699 242.112 427.558 241.97 427.384 241.97Z" fill="white"/>
<path d="M427.384 249.15H387.873C387.699 249.15 387.557 249.291 387.557 249.466V252.184C387.557 252.359 387.699 252.5 387.873 252.5H427.384C427.558 252.5 427.699 252.359 427.699 252.184V249.466C427.699 249.291 427.558 249.15 427.384 249.15Z" fill="white"/>
<path d="M427.384 256.329H387.873C387.699 256.329 387.557 256.47 387.557 256.645V259.363C387.557 259.538 387.699 259.679 387.873 259.679H427.384C427.558 259.679 427.699 259.538 427.699 259.363V256.645C427.699 256.47 427.558 256.329 427.384 256.329Z" fill="white"/>
<path opacity="0.1" d="M194.854 155.632H145.714V158.183H194.854V155.632Z" fill="#FFAA40"/>
<path opacity="0.1" d="M154.813 142.145H150.082V155.632H154.813V142.145Z" fill="#FFAA40"/>
<path opacity="0.1" d="M161.728 142.145H156.997V155.632H161.728V142.145Z" fill="#FFAA40"/>
<path opacity="0.1" d="M168.642 142.145H163.911V155.632H168.642V142.145Z" fill="#FFAA40"/>
<path opacity="0.1" d="M175.557 142.145H170.826V155.632H175.557V142.145Z" fill="#FFAA40"/>
<path opacity="0.1" d="M182.472 142.145H177.741V155.632H182.472V142.145Z" fill="#FFAA40"/>
<path opacity="0.1" d="M189.392 142.145H184.661V155.632H189.392V142.145Z" fill="#FFAA40"/>
<path opacity="0.1" d="M154.813 144.696H150.082V146.156H154.813V144.696Z" fill="#FFAA40"/>
<path opacity="0.1" d="M161.728 144.696H156.997V146.156H161.728V144.696Z" fill="#FFAA40"/>
<path opacity="0.1" d="M168.642 144.696H163.911V146.156H168.642V144.696Z" fill="#FFAA40"/>
<path opacity="0.1" d="M175.557 144.696H170.826V146.156H175.557V144.696Z" fill="#FFAA40"/>
<path opacity="0.1" d="M182.472 144.696H177.741V146.156H182.472V144.696Z" fill="#FFAA40"/>
<path opacity="0.1" d="M189.392 144.696H184.661V146.156H189.392V144.696Z" fill="#FFAA40"/>
<path opacity="0.1" d="M154.813 151.258H150.082V152.718H154.813V151.258Z" fill="#FFAA40"/>
<path opacity="0.1" d="M161.728 151.258H156.997V152.718H161.728V151.258Z" fill="#FFAA40"/>
<path opacity="0.1" d="M168.642 151.258H163.911V152.718H168.642V151.258Z" fill="#FFAA40"/>
<path opacity="0.1" d="M175.557 151.258H170.826V152.718H175.557V151.258Z" fill="#FFAA40"/>
<path opacity="0.1" d="M182.472 151.258H177.741V152.718H182.472V151.258Z" fill="#FFAA40"/>
<path opacity="0.1" d="M189.392 151.258H184.661V152.718H189.392V151.258Z" fill="#FFAA40"/>
<path opacity="0.1" d="M302.591 162.194H253.451V164.745H302.591V162.194Z" fill="#FFAA40"/>
<path opacity="0.1" d="M262.55 148.707H257.819V162.194H262.55V148.707Z" fill="#FFAA40"/>
<path opacity="0.1" d="M269.465 148.707H264.734V162.194H269.465V148.707Z" fill="#FFAA40"/>
<path opacity="0.1" d="M276.38 148.707H271.649V162.194H276.38V148.707Z" fill="#FFAA40"/>
<path opacity="0.1" d="M283.299 148.707H278.568V162.194H283.299V148.707Z" fill="#FFAA40"/>
<path opacity="0.1" d="M290.214 148.707H285.483V162.194H290.214V148.707Z" fill="#FFAA40"/>
<path opacity="0.1" d="M297.129 148.707H292.398V162.194H297.129V148.707Z" fill="#FFAA40"/>
<path opacity="0.1" d="M262.55 151.258H257.819V152.718H262.55V151.258Z" fill="#FFAA40"/>
<path opacity="0.1" d="M269.465 151.258H264.734V152.718H269.465V151.258Z" fill="#FFAA40"/>
<path opacity="0.1" d="M276.38 151.258H271.649V152.718H276.38V151.258Z" fill="#FFAA40"/>
<path opacity="0.1" d="M283.299 151.258H278.568V152.718H283.299V151.258Z" fill="#FFAA40"/>
<path opacity="0.1" d="M290.214 151.258H285.483V152.718H290.214V151.258Z" fill="#FFAA40"/>
<path opacity="0.1" d="M297.129 151.258H292.398V152.718H297.129V151.258Z" fill="#FFAA40"/>
<path opacity="0.1" d="M262.55 157.82H257.819V159.279H262.55V157.82Z" fill="#FFAA40"/>
<path opacity="0.1" d="M269.465 157.82H264.734V159.279H269.465V157.82Z" fill="#FFAA40"/>
<path opacity="0.1" d="M276.38 157.82H271.649V159.279H276.38V157.82Z" fill="#FFAA40"/>
<path opacity="0.1" d="M283.299 157.82H278.568V159.279H283.299V157.82Z" fill="#FFAA40"/>
<path opacity="0.1" d="M290.214 157.82H285.483V159.279H290.214V157.82Z" fill="#FFAA40"/>
<path opacity="0.1" d="M297.129 157.82H292.398V159.279H297.129V157.82Z" fill="#FFAA40"/>
<path opacity="0.1" d="M302.591 180.784H253.451V183.335H302.591V180.784Z" fill="#FFAA40"/>
<path opacity="0.1" d="M262.55 167.296H257.819V180.784H262.55V167.296Z" fill="#FFAA40"/>
<path opacity="0.1" d="M269.465 167.296H264.734V180.784H269.465V167.296Z" fill="#FFAA40"/>
<path opacity="0.1" d="M276.38 167.296H271.649V180.784H276.38V167.296Z" fill="#FFAA40"/>
<path opacity="0.1" d="M283.299 167.296H278.568V180.784H283.299V167.296Z" fill="#FFAA40"/>
<path opacity="0.1" d="M290.214 167.296H285.483V180.784H290.214V167.296Z" fill="#FFAA40"/>
<path opacity="0.1" d="M297.129 167.296H292.398V180.784H297.129V167.296Z" fill="#FFAA40"/>
<path opacity="0.1" d="M262.55 169.847H257.819V171.307H262.55V169.847Z" fill="#FFAA40"/>
<path opacity="0.1" d="M269.465 169.847H264.734V171.307H269.465V169.847Z" fill="#FFAA40"/>
<path opacity="0.1" d="M276.38 169.847H271.649V171.307H276.38V169.847Z" fill="#FFAA40"/>
<path opacity="0.1" d="M283.299 169.847H278.568V171.307H283.299V169.847Z" fill="#FFAA40"/>
<path opacity="0.1" d="M290.214 169.847H285.483V171.307H290.214V169.847Z" fill="#FFAA40"/>
<path opacity="0.1" d="M297.129 169.847H292.398V171.307H297.129V169.847Z" fill="#FFAA40"/>
<path opacity="0.1" d="M262.55 176.409H257.819V177.869H262.55V176.409Z" fill="#FFAA40"/>
<path opacity="0.1" d="M269.465 176.409H264.734V177.869H269.465V176.409Z" fill="#FFAA40"/>
<path opacity="0.1" d="M276.38 176.409H271.649V177.869H276.38V176.409Z" fill="#FFAA40"/>
<path opacity="0.1" d="M283.299 176.409H278.568V177.869H283.299V176.409Z" fill="#FFAA40"/>
<path opacity="0.1" d="M290.214 176.409H285.483V177.869H290.214V176.409Z" fill="#FFAA40"/>
<path opacity="0.1" d="M297.129 176.409H292.398V177.869H297.129V176.409Z" fill="#FFAA40"/>
<path opacity="0.1" d="M175.858 184.479C175.492 184.008 175.157 183.514 174.855 183L181.932 181.837L174.286 181.894C173.553 180.295 173.153 178.563 173.11 176.803C173.067 175.044 173.383 173.294 174.038 171.661L184.288 176.984L174.821 170.015C175.702 168.467 176.893 167.119 178.319 166.054C179.744 164.989 181.375 164.231 183.107 163.827C184.839 163.424 186.636 163.383 188.385 163.708C190.134 164.033 191.796 164.716 193.269 165.716C194.741 166.715 195.991 168.008 196.941 169.514C197.891 171.021 198.519 172.707 198.787 174.468C199.055 176.229 198.956 178.027 198.497 179.748C198.038 181.469 197.229 183.076 196.12 184.469C196.696 185.197 197.19 185.987 197.592 186.824L188.407 191.61L198.199 188.322C198.884 190.355 199.053 192.527 198.69 194.642C198.327 196.757 197.444 198.748 196.12 200.436C197.621 202.341 198.555 204.631 198.817 207.043C199.078 209.456 198.656 211.893 197.599 214.077C196.542 216.26 194.892 218.101 192.839 219.39C190.786 220.678 188.412 221.361 185.989 221.361C183.567 221.361 181.193 220.678 179.14 219.39C177.086 218.101 175.437 216.26 174.38 214.077C173.323 211.893 172.901 209.456 173.162 207.043C173.424 204.631 174.358 202.341 175.858 200.436C174.071 198.159 173.1 195.346 173.1 192.45C173.1 189.554 174.071 186.741 175.858 184.464V184.479Z" fill="#FFAA40"/>
<path opacity="0.1" d="M198.882 192.462C198.883 195.355 197.91 198.164 196.12 200.436C197.621 202.341 198.555 204.631 198.817 207.043C199.078 209.456 198.656 211.893 197.599 214.077C196.542 216.26 194.892 218.101 192.839 219.39C190.786 220.678 188.412 221.361 185.989 221.361C183.567 221.361 181.193 220.678 179.14 219.39C177.086 218.101 175.437 216.26 174.38 214.077C173.323 211.893 172.901 209.456 173.162 207.043C173.424 204.631 174.358 202.341 175.858 200.436C174.124 198.249 198.882 191.012 198.882 192.462Z" fill="#FFAA40"/>
<path opacity="0.2" d="M188.054 224.788C188.076 224.822 188.097 224.857 188.116 224.893H183.739C183.762 224.86 183.777 224.821 183.801 224.788C183.424 224.132 183.229 223.386 183.237 222.629C183.235 222.111 183.324 221.595 183.5 221.107C183.743 221.146 184.044 221.189 184.393 221.227C185.409 221.329 186.432 221.329 187.447 221.227C187.74 221.198 188.041 221.16 188.35 221.112C188.348 221.12 188.348 221.128 188.35 221.136C188.524 221.616 188.611 222.123 188.608 222.634C188.618 223.389 188.426 224.132 188.054 224.788Z" fill="#3F3D56"/>
<path opacity="0.1" d="M172.322 224.893H147.95C147.898 224.754 147.85 224.606 147.807 224.463C146.948 221.697 147.048 218.722 148.089 216.02C145.71 214.372 143.952 211.972 143.099 209.204C142.245 206.436 142.345 203.461 143.382 200.757C142.892 200.419 142.427 200.046 141.991 199.641L148.404 196.439L141.112 198.756C139.939 197.446 139.046 195.909 138.488 194.241C137.929 192.573 137.716 190.808 137.862 189.054L149.241 191.112L138.144 187.25C138.527 185.508 139.266 183.865 140.314 182.423C141.361 180.981 142.696 179.772 144.233 178.872C145.77 177.972 147.476 177.401 149.245 177.193C151.013 176.986 152.805 177.147 154.509 177.667C156.212 178.187 157.789 179.055 159.141 180.215C160.493 181.376 161.591 182.804 162.365 184.41C163.139 186.015 163.573 187.764 163.639 189.546C163.705 191.329 163.403 193.105 162.75 194.764C163.52 195.301 164.23 195.918 164.867 196.607L157.498 203.887L165.885 197.847C167.142 199.588 167.945 201.617 168.222 203.748C168.499 205.879 168.241 208.045 167.472 210.051C169.786 211.656 171.513 213.976 172.389 216.655C173.264 219.335 173.241 222.228 172.322 224.893Z" fill="#FFAA40"/>
<path opacity="0.1" d="M172.322 224.893H147.95C147.898 224.754 147.85 224.606 147.807 224.463C146.948 221.697 147.048 218.722 148.089 216.02C145.795 214.431 167.314 200.192 167.739 201.58C168.598 204.347 168.499 207.324 167.457 210.027C169.779 211.632 171.512 213.954 172.391 216.639C173.269 219.324 173.245 222.223 172.322 224.893Z" fill="#FFAA40"/>
<path opacity="0.1" d="M282.592 207.405C281.112 209.893 278.837 211.808 276.136 212.842C276.252 213.763 276.269 214.693 276.189 215.618L265.862 214.995L275.95 217.187C275.653 218.565 275.133 219.884 274.411 221.093C273.531 222.574 272.361 223.86 270.97 224.874H256.911V225.243H242.575C242.603 225.118 242.632 224.999 242.666 224.874C243.189 222.894 244.174 221.067 245.541 219.543C246.908 218.019 248.617 216.843 250.527 216.111C250.16 213.237 250.767 210.324 252.252 207.838C253.736 205.353 256.012 203.438 258.713 202.403C258.637 201.811 258.602 201.215 258.607 200.618L265.274 203.255L258.679 199.373C258.874 197.624 259.423 195.933 260.293 194.404C261.163 192.875 262.336 191.54 263.74 190.481L269.814 200.331L265.26 189.485C267.74 188.11 270.604 187.592 273.408 188.011C276.212 188.429 278.801 189.761 280.774 191.801C282.746 193.84 283.993 196.474 284.322 199.294C284.651 202.114 284.043 204.965 282.592 207.405Z" fill="#FFAA40"/>
<path opacity="0.1" d="M274.411 221.112C273.532 222.593 272.361 223.879 270.97 224.893H256.911V225.262H242.575C242.603 225.137 242.632 225.018 242.666 224.893C243.189 222.913 244.174 221.086 245.541 219.562C246.908 218.038 248.617 216.862 250.527 216.13C250.407 215.173 253.184 215.316 256.887 215.938C264.146 217.159 274.903 220.289 274.411 221.112Z" fill="#FFAA40"/>
<path d="M213.472 186.647C213.472 186.647 215.24 196.219 211.293 199.345C207.346 202.47 214.638 221.203 226.671 219.016C238.704 216.829 243.607 201.115 243.607 201.115C243.607 201.115 231.555 198.617 236.023 185.919L213.472 186.647Z" fill="#EE8E9E"/>
<path opacity="0.1" d="M213.472 186.647C213.472 186.647 215.24 196.219 211.293 199.345C207.346 202.47 214.638 221.203 226.671 219.016C238.704 216.829 243.607 201.115 243.607 201.115C243.607 201.115 231.555 198.617 236.023 185.919L213.472 186.647Z" fill="black"/>
<path d="M224.124 193.673C235.143 193.673 244.075 184.727 244.075 173.691C244.075 162.655 235.143 153.708 224.124 153.708C213.105 153.708 204.173 162.655 204.173 173.691C204.173 184.727 213.105 193.673 224.124 193.673Z" fill="#EE8E9E"/>
<path d="M256.911 211.679V225.262H191.031V212.296C191.031 210.652 191.514 209.044 192.421 207.674C193.328 206.303 194.618 205.231 196.13 204.59L198.018 203.786C202.796 201.747 208.603 199.215 210.5 198.162C210.707 198.058 210.903 197.932 211.083 197.784C212.12 196.746 211.914 198.095 211.914 198.095C211.914 198.095 211.886 198.354 211.866 198.799C211.752 201.857 212.191 213.875 226.255 212.875C239.975 211.918 240.592 202.623 240.453 199.89C240.445 199.637 240.424 199.385 240.391 199.134C241.34 199.36 242.268 199.664 243.167 200.043C246.035 201.106 250.269 202.81 251.401 203.614C251.755 203.863 252.185 204.121 252.653 204.384C253.184 204.681 253.681 205.036 254.135 205.442C255.008 206.228 255.707 207.19 256.186 208.264C256.664 209.339 256.911 210.502 256.911 211.679Z" fill="#FFAA40"/>
<path opacity="0.1" d="M243.167 200.043C242.006 205.433 238.36 215.527 225.218 215.79C211.216 216.068 210.404 202.121 210.495 198.162C210.706 198.061 210.903 197.934 211.083 197.784C212.124 196.746 211.914 198.095 211.914 198.095C211.914 198.095 210.151 214.019 226.25 212.875C242.35 211.731 240.372 199.139 240.372 199.139C240.372 199.062 241.571 199.479 243.167 200.043Z" fill="black"/>
<path d="M200.507 174.691C201.17 174.525 201.867 174.562 202.508 174.796C203.149 175.031 203.706 175.453 204.106 176.007C204.832 177.027 204.942 178.257 205.033 179.434C205.898 179.616 206.385 178.635 206.466 177.893C206.787 174.873 206.81 171.795 207.824 168.876C208.837 165.956 211.049 163.132 214.447 162.017C215.608 161.614 216.848 161.496 218.064 161.673C218.786 161.792 219.465 162.046 220.181 162.151C222.666 162.563 225.366 161.385 227.694 162.204C229.156 162.721 230.083 163.912 230.766 165.104C231.064 165.747 231.468 166.334 231.961 166.842C232.95 167.732 234.499 167.962 235.918 168.239C237.337 168.517 238.885 169 239.492 170.096C240.037 171.087 239.636 172.231 239.454 173.303C239.173 175.001 239.457 176.745 240.262 178.266C240.525 178.745 241.06 179.324 241.695 179.166C241.98 179.07 242.221 178.874 242.374 178.616C244.004 176.328 243.961 173.351 246.006 171.288C246.689 170.599 247.573 170.063 248.238 169.374C248.74 168.863 249.109 168.235 249.311 167.547C249.513 166.859 249.541 166.132 249.394 165.43C249.026 163.85 247.764 162.558 246.747 161.17C245.425 159.412 244.462 157.41 243.913 155.278C243.817 155.03 243.817 154.756 243.913 154.508C244.106 154.256 244.354 154.053 244.639 153.914C245.193 153.542 245.593 152.981 245.763 152.335C245.934 151.689 245.864 151.004 245.566 150.406C244.988 149.224 243.717 148.324 242.283 147.788C240.829 147.309 239.328 146.988 237.805 146.831C236.802 146.974 235.626 146.405 235.316 145.601C235.177 145.242 235.177 144.854 235.039 144.495C234.851 144.134 234.579 143.825 234.246 143.591C233.913 143.358 233.53 143.208 233.127 143.155C232.272 143.016 231.397 143.079 230.57 143.337C229.615 143.605 228.53 144.007 227.703 143.538C227.268 143.294 227.029 142.848 226.561 142.647C225.605 142.245 224.621 143.059 223.938 143.729C223.279 144.432 222.47 144.977 221.572 145.323C221.098 145.504 220.59 145.58 220.084 145.546C219.577 145.512 219.084 145.369 218.638 145.127C217.983 144.71 217.653 144.04 217.133 143.509C216.149 142.63 214.89 142.122 213.572 142.073C212.218 142.001 210.86 142.15 209.553 142.513C207.059 143.122 204.676 144.124 202.495 145.481C201.398 146.085 200.467 146.951 199.786 148.003C199.382 148.81 199.174 149.7 199.179 150.602C199.074 153.431 200.01 156.408 202.452 158.389C200.961 159.011 200.459 160.538 200.111 161.893C199.551 164.056 198.992 166.253 199.203 168.455C199.308 169.594 199.618 170.733 199.451 171.867C199.317 172.401 199.243 172.949 199.231 173.499C199.302 173.802 199.46 174.078 199.688 174.29C199.915 174.502 200.2 174.642 200.507 174.691Z" fill="#454B69"/>
<g opacity="0.1">
<path opacity="0.1" d="M249.083 164.539C248.869 165.009 248.578 165.439 248.223 165.813C247.559 166.511 246.675 167.052 245.992 167.727C243.946 169.776 243.989 172.772 242.36 175.06C242.207 175.318 241.966 175.512 241.681 175.605C241.06 175.768 240.525 175.203 240.247 174.705C239.932 174.099 239.692 173.456 239.535 172.791C239.502 172.958 239.468 173.126 239.44 173.269C239.159 174.968 239.443 176.712 240.247 178.233C240.51 178.711 241.045 179.29 241.681 179.133C241.966 179.036 242.206 178.841 242.36 178.582C243.989 176.294 243.946 173.317 245.992 171.255C246.675 170.565 247.559 170.029 248.223 169.34C248.726 168.829 249.095 168.202 249.296 167.514C249.498 166.826 249.527 166.098 249.38 165.396C249.306 165.102 249.207 164.816 249.083 164.539Z" fill="black"/>
<path opacity="0.1" d="M244.63 150.372C244.344 150.51 244.095 150.713 243.903 150.966C243.808 151.212 243.808 151.485 243.903 151.732C244.092 152.475 244.333 153.205 244.625 153.914C245.179 153.542 245.578 152.981 245.749 152.335C245.92 151.689 245.85 151.004 245.552 150.406C245.459 150.209 245.347 150.021 245.217 149.846C245.048 150.049 244.85 150.226 244.63 150.372Z" fill="black"/>
<path opacity="0.1" d="M202.481 154.809C200.788 153.412 199.673 151.435 199.351 149.262C199.265 149.691 199.217 150.126 199.208 150.564C199.098 152.654 199.648 154.725 200.78 156.484C201.122 155.735 201.728 155.139 202.481 154.809Z" fill="black"/>
<path opacity="0.1" d="M239.455 169.776C239.636 168.699 240.038 167.555 239.493 166.569C238.886 165.468 237.338 164.989 235.918 164.712C234.499 164.434 232.951 164.2 231.961 163.314C231.468 162.807 231.064 162.219 230.767 161.577C230.093 160.385 229.156 159.184 227.694 158.676C225.367 157.858 222.667 159.031 220.182 158.624C219.465 158.504 218.786 158.255 218.065 158.145C216.849 157.967 215.608 158.085 214.447 158.49C211.05 159.61 208.837 162.434 207.824 165.348C206.811 168.263 206.787 171.341 206.467 174.365C206.386 175.103 205.898 176.089 205.033 175.907C204.942 174.724 204.832 173.514 204.106 172.475C203.706 171.921 203.149 171.501 202.508 171.267C201.866 171.033 201.17 170.997 200.508 171.164C200.106 171.074 199.749 170.845 199.499 170.517C199.552 170.956 199.552 171.4 199.499 171.838C199.365 172.372 199.292 172.92 199.28 173.47C199.341 173.777 199.493 174.058 199.715 174.277C199.937 174.496 200.22 174.644 200.527 174.701C201.189 174.535 201.886 174.571 202.527 174.806C203.169 175.041 203.725 175.462 204.125 176.017C204.852 177.036 204.961 178.266 205.052 179.444C205.917 179.626 206.405 178.644 206.486 177.902C206.806 174.882 206.83 171.805 207.843 168.885C208.856 165.966 211.069 163.142 214.466 162.027C215.627 161.624 216.868 161.506 218.084 161.682C218.806 161.802 219.484 162.055 220.201 162.161C222.686 162.572 225.386 161.395 227.713 162.213C229.175 162.73 230.103 163.922 230.786 165.114C231.083 165.756 231.487 166.344 231.981 166.851C232.97 167.741 234.518 167.971 235.937 168.249C237.357 168.526 238.805 168.976 239.44 169.991C239.416 169.919 239.44 169.847 239.455 169.776Z" fill="black"/>
<path opacity="0.1" d="M199.48 168.287C199.558 167.395 199.505 166.497 199.322 165.621C199.182 166.546 199.152 167.484 199.231 168.416C199.231 168.656 199.284 168.895 199.317 169.129C199.37 168.847 199.442 168.569 199.48 168.287Z" fill="black"/>
</g>
<path d="M176.093 244.574V235.935C176.093 235.87 176.118 235.808 176.164 235.762C176.21 235.717 176.272 235.691 176.336 235.691H177.316C177.381 235.691 177.443 235.717 177.488 235.762C177.534 235.808 177.56 235.87 177.56 235.935V239.529L181.536 235.839C181.629 235.761 181.743 235.711 181.863 235.694C181.984 235.678 182.107 235.695 182.218 235.745C182.329 235.795 182.423 235.875 182.491 235.977C182.559 236.078 182.597 236.196 182.601 236.318V244.143C182.597 244.265 182.559 244.383 182.491 244.485C182.423 244.586 182.329 244.666 182.218 244.716C182.107 244.766 181.984 244.783 181.863 244.767C181.743 244.75 181.629 244.7 181.536 244.622L177.56 240.956V244.531C177.56 244.596 177.534 244.658 177.488 244.704C177.443 244.749 177.381 244.775 177.316 244.775H176.336C176.278 244.776 176.222 244.756 176.177 244.719C176.133 244.683 176.103 244.631 176.093 244.574Z" fill="#444053"/>
<path d="M272.16 235.935V244.574C272.16 244.607 272.154 244.639 272.141 244.669C272.128 244.699 272.11 244.726 272.087 244.748C272.064 244.771 272.036 244.789 272.006 244.801C271.976 244.813 271.944 244.819 271.911 244.818H270.956C270.891 244.818 270.829 244.792 270.783 244.747C270.738 244.701 270.712 244.639 270.712 244.574V240.98L266.736 244.665C266.642 244.743 266.528 244.792 266.408 244.809C266.287 244.825 266.164 244.807 266.053 244.758C265.942 244.708 265.846 244.628 265.778 244.527C265.71 244.426 265.671 244.308 265.666 244.186V236.332C265.671 236.21 265.71 236.092 265.778 235.991C265.846 235.89 265.942 235.811 266.053 235.761C266.164 235.711 266.287 235.694 266.408 235.71C266.528 235.726 266.642 235.776 266.736 235.854L270.712 239.52V235.949C270.712 235.885 270.738 235.823 270.783 235.777C270.829 235.731 270.891 235.705 270.956 235.705H271.911C271.975 235.704 272.036 235.727 272.082 235.77C272.128 235.813 272.156 235.872 272.16 235.935Z" fill="#444053"/>
<path d="M222.504 244.947H220.559C220.305 244.947 220.062 244.847 219.883 244.667C219.704 244.487 219.603 244.244 219.603 243.99V236.84C219.603 236.586 219.704 236.342 219.883 236.163C220.062 235.983 220.305 235.882 220.559 235.882H222.504C222.757 235.882 223 235.983 223.18 236.163C223.359 236.342 223.46 236.586 223.46 236.84V243.99C223.46 244.244 223.359 244.487 223.18 244.667C223 244.847 222.757 244.947 222.504 244.947ZM228.668 243.99V236.84C228.668 236.586 228.568 236.342 228.389 236.163C228.209 235.983 227.966 235.882 227.713 235.882H225.749C225.495 235.882 225.252 235.983 225.073 236.163C224.894 236.342 224.793 236.586 224.793 236.84V243.99C224.793 244.244 224.894 244.487 225.073 244.667C225.252 244.847 225.495 244.947 225.749 244.947H227.694C227.821 244.95 227.947 244.927 228.065 244.88C228.183 244.833 228.291 244.763 228.382 244.674C228.473 244.585 228.545 244.478 228.594 244.361C228.643 244.244 228.668 244.117 228.668 243.99Z" fill="#444053"/>
<path opacity="0.6" d="M281.469 224.29H166.779V225.568H281.469V224.29Z" fill="#444053"/>
<path d="M202.194 227.956C203.865 227.956 205.219 226.6 205.219 224.927C205.219 223.254 203.865 221.897 202.194 221.897C200.524 221.897 199.169 223.254 199.169 224.927C199.169 226.6 200.524 227.956 202.194 227.956Z" fill="#444053"/>
<path d="M202.194 224.29H166.779V225.568H202.194V224.29Z" fill="#444053"/>
<path d="M457.366 368.527C473.061 368.527 485.785 366.075 485.785 363.051C485.785 360.027 473.061 357.576 457.366 357.576C441.67 357.576 428.946 360.027 428.946 363.051C428.946 366.075 441.67 368.527 457.366 368.527Z" fill="#FFAA40"/>
<path d="M456.893 365.061C458.719 365.061 460.2 363.12 460.2 360.725C460.2 358.33 458.719 356.389 456.893 356.389C455.066 356.389 453.586 358.33 453.586 360.725C453.586 363.12 455.066 365.061 456.893 365.061Z" fill="#3F3D56"/>
<path d="M456.893 359.758C458.719 359.758 460.2 357.817 460.2 355.422C460.2 353.027 458.719 351.086 456.893 351.086C455.066 351.086 453.586 353.027 453.586 355.422C453.586 357.817 455.066 359.758 456.893 359.758Z" fill="#3F3D56"/>
<path d="M456.893 354.46C458.719 354.46 460.2 352.519 460.2 350.124C460.2 347.729 458.719 345.788 456.893 345.788C455.066 345.788 453.586 347.729 453.586 350.124C453.586 352.519 455.066 354.46 456.893 354.46Z" fill="#3F3D56"/>
<path d="M456.893 349.157C458.719 349.157 460.2 347.216 460.2 344.821C460.2 342.426 458.719 340.484 456.893 340.484C455.066 340.484 453.586 342.426 453.586 344.821C453.586 347.216 455.066 349.157 456.893 349.157Z" fill="#3F3D56"/>
<path d="M456.893 343.854C458.719 343.854 460.2 341.913 460.2 339.518C460.2 337.123 458.719 335.181 456.893 335.181C455.066 335.181 453.586 337.123 453.586 339.518C453.586 341.913 455.066 343.854 456.893 343.854Z" fill="#3F3D56"/>
<path d="M456.893 338.551C458.719 338.551 460.2 336.609 460.2 334.215C460.2 331.82 458.719 329.878 456.893 329.878C455.066 329.878 453.586 331.82 453.586 334.215C453.586 336.609 455.066 338.551 456.893 338.551Z" fill="#3F3D56"/>
<path d="M456.893 333.248C458.719 333.248 460.2 331.306 460.2 328.911C460.2 326.517 458.719 324.575 456.893 324.575C455.066 324.575 453.586 326.517 453.586 328.911C453.586 331.306 455.066 333.248 456.893 333.248Z" fill="#3F3D56"/>
<path d="M469.274 292.632C469.726 292.054 470.137 291.447 470.507 290.813L461.81 289.378L471.215 289.449C472.115 287.483 472.606 285.354 472.658 283.191C472.71 281.029 472.321 278.878 471.516 276.871L458.909 283.428L470.541 274.866C469.451 272.979 467.985 271.337 466.234 270.042C464.483 268.747 462.484 267.828 460.363 267.34C458.241 266.853 456.042 266.809 453.903 267.21C451.763 267.611 449.729 268.449 447.928 269.672C446.126 270.895 444.595 272.476 443.43 274.318C442.265 276.159 441.491 278.221 441.157 280.375C440.822 282.529 440.934 284.729 441.486 286.838C442.037 288.947 443.017 290.919 444.363 292.632C443.662 293.523 443.056 294.486 442.556 295.504L453.844 301.377L441.811 297.332C440.966 299.833 440.757 302.506 441.202 305.108C441.648 307.71 442.734 310.16 444.363 312.236C442.525 314.578 441.382 317.389 441.065 320.35C440.748 323.311 441.269 326.302 442.568 328.981C443.868 331.659 445.893 333.918 448.414 335.498C450.934 337.078 453.848 337.915 456.821 337.915C459.794 337.915 462.708 337.078 465.228 335.498C467.749 333.918 469.774 331.659 471.074 328.981C472.373 326.302 472.894 323.311 472.577 320.35C472.259 317.389 471.117 314.578 469.279 312.236C471.474 309.438 472.668 305.983 472.668 302.425C472.668 298.866 471.474 295.411 469.279 292.613L469.274 292.632Z" fill="#FFAA40"/>
<path opacity="0.1" d="M440.975 302.444C440.968 306.003 442.162 309.461 444.363 312.256C442.525 314.597 441.382 317.409 441.065 320.37C440.748 323.331 441.269 326.321 442.568 329C443.868 331.678 445.893 333.937 448.414 335.517C450.934 337.097 453.847 337.935 456.821 337.935C459.794 337.935 462.708 337.097 465.228 335.517C467.749 333.937 469.774 331.678 471.074 329C472.373 326.321 472.894 323.331 472.577 320.37C472.259 317.409 471.117 314.597 469.279 312.256C471.401 309.561 440.975 300.663 440.975 302.444Z" fill="black"/>
<path opacity="0.1" d="M138.584 398C164.713 398 185.894 393.5 185.894 387.949C185.894 382.398 164.713 377.898 138.584 377.898C112.456 377.898 91.2744 382.398 91.2744 387.949C91.2744 393.5 112.456 398 138.584 398Z" fill="#FFAA40"/>
<path d="M154.426 386.781C153.47 386.432 152.447 386.489 151.449 386.379C149.375 386.139 147.444 385.201 145.972 383.718C145.026 382.76 144.281 381.62 143.783 380.368C144.099 380.483 144.414 380.602 144.739 380.731C143.783 378.496 144.787 375.988 145.666 373.729C147.157 369.9 148.567 366.051 149.895 362.18C153.241 352.373 156.108 342.174 156.046 331.74C156.046 327.969 155.353 324.403 155.219 320.636C155.119 317.841 155.549 315.051 155.53 312.251C155.53 311.858 155.53 311.471 155.501 311.078C156.356 310.329 157.027 309.392 157.464 308.342C157.901 307.291 158.091 306.154 158.019 305.019C157.971 304.427 157.886 303.839 157.766 303.257C157.597 302.247 157.373 301.247 157.097 300.261C156.782 299.223 156.352 298.227 155.984 297.213C155.272 295.245 154.789 293.197 154.182 291.196C154.407 291.219 154.626 291.279 154.832 291.373C154.679 291.194 154.574 290.978 154.526 290.746C154.169 289.473 153.976 288.159 153.953 286.836L154.359 286.654C154.542 285.363 154.475 284.048 154.163 282.782C154.392 280.729 154.751 278.661 154.97 276.618C155.052 275.852 155.018 274.89 154.316 274.703C154.172 273.607 154.115 272.497 154.058 271.391C153.857 267.533 153.658 263.677 153.46 259.823C153.26 255.951 153.059 252.084 152.982 248.207C152.93 245.747 152.901 243.2 152.318 240.846C152.419 239.717 152.304 238.58 151.979 237.495C151.09 234.676 148.328 232.441 145.528 232.599C144.692 231.402 143.66 230.357 142.474 229.507C143.033 228.253 143.702 226.961 144.252 225.946C148.734 224.486 152.012 220.059 152.012 214.794C152.019 212.867 151.569 210.966 150.698 209.247C150.78 209.036 150.851 208.82 150.909 208.601C151.148 207.567 151.074 206.485 150.693 205.495C150.559 205.115 150.399 204.744 150.216 204.384C150.091 204.145 149.958 203.906 149.819 203.676L149.575 203.308C149.427 203.083 149.274 202.867 149.097 202.657C148.758 202.2 148.394 201.762 148.008 201.345C147.532 200.829 147.007 200.361 146.44 199.948C145.672 199.376 144.793 198.97 143.86 198.756C143.32 198.649 142.771 198.599 142.221 198.608C141.891 198.608 141.556 198.608 141.227 198.636C140.558 198.675 139.893 198.722 139.229 198.718C139.009 198.718 138.785 198.718 138.565 198.684C137.396 198.528 136.239 198.286 135.105 197.961L134.532 197.842C134.336 197.803 134.145 197.77 133.949 197.746C133.424 197.676 132.896 197.644 132.367 197.65H131.836C131.307 197.676 130.779 197.73 130.255 197.813L129.729 197.894C128.402 198.103 127.108 198.487 125.882 199.038C125.724 199.11 125.562 199.191 125.404 199.278L125.309 199.33C125.18 199.397 125.051 199.469 124.926 199.546L124.855 199.589L124.449 199.847L124.415 199.871C120.621 202.427 118.379 207.271 117.811 212.076C117.175 217.47 118.289 222.907 119.402 228.215L120.406 233.001C120.449 233.216 120.496 233.427 120.539 233.642C119.128 234.802 118.043 236.31 117.39 238.017C116.435 240.41 116.411 242.999 116.487 245.594C116.487 246.12 116.516 246.646 116.568 247.173C116.449 248.169 116.344 249.169 116.277 250.174C115.976 254.816 116.54 259.483 116.392 264.135C116.277 267.72 115.737 271.314 116 274.875C116.229 278.034 117.075 281.097 117.911 284.146L119.115 288.492C119.154 288.717 119.259 288.925 119.416 289.09C119.614 289.223 119.856 289.273 120.09 289.229C119.307 291.011 118.652 292.848 118.131 294.724C117.771 295.873 117.534 297.057 117.424 298.256C117.266 300.448 117.773 302.626 118.279 304.756C119.044 307.946 119.805 311.15 120.563 314.366C121.099 316.616 121.632 318.864 122.164 321.11C123.216 325.542 124.272 330.003 124.468 334.564C124.577 336.855 124.416 339.15 123.99 341.403C122.611 348.151 122.411 355.087 123.397 361.903C124.195 367.653 125.488 373.324 127.263 378.85C127.65 378.645 128.042 378.453 128.444 378.276L128.276 378.587C127.725 379.544 127.215 380.526 126.747 381.531C126.431 382.184 126.158 382.857 125.93 383.546C125.318 385.46 125.223 387.499 125.137 389.514C125.093 389.901 125.127 390.294 125.237 390.668C125.5 391.39 126.255 391.759 126.957 391.96C129.022 392.549 131.167 392.338 133.313 392.06C133.323 392.108 133.337 392.154 133.356 392.199C133.619 392.922 134.369 393.29 135.076 393.491C138.03 394.334 141.145 393.539 144.19 393.252C147.234 392.965 150.225 393.175 153.155 392.472C153.591 392.378 154.01 392.217 154.397 391.993C155.15 391.466 155.703 390.698 155.964 389.816C156.056 389.587 156.117 389.347 156.146 389.102C156.265 388.054 155.372 387.131 154.426 386.781ZM144.319 342.456C144.154 343.578 143.832 344.67 143.363 345.701C141.064 350.597 139.416 355.774 138.46 361.098C137.833 364.616 137.47 368.176 137.375 371.748C137.327 374.38 137.428 377.137 136.333 379.501L136.73 379.439C136.606 379.669 136.486 379.918 136.372 380.1L136.314 380.205C135.652 379.076 135.21 377.832 135.01 376.539C135.01 376.496 134.795 376.462 134.465 376.443C133.114 368.883 132.646 361.191 133.069 353.522C133.076 352.592 133.204 351.667 133.452 350.77C133.695 349.999 134.106 349.296 134.407 348.549C134.885 347.295 135.206 345.986 135.363 344.653C135.884 341.246 136.085 337.798 135.965 334.353C135.851 331.103 136.601 327.873 137.241 324.637C137.547 323.101 137.829 321.56 137.982 320.019L138.011 319.708C140.854 324.405 142.841 329.572 143.879 334.966C144.456 337.419 144.605 339.953 144.319 342.456ZM123.865 273.286L124.018 273.42C124.48 273.827 124.906 274.274 125.29 274.756C125.481 274.966 125.618 275.218 125.691 275.493C125.834 276.192 125.256 276.785 124.783 277.297C124.577 277.519 124.384 277.752 124.205 277.996C124.103 276.426 123.995 274.856 123.88 273.286H123.865Z" fill="url(#paint0_linear)"/>
<path d="M117.252 243.287L116.726 247.35C116.549 248.728 116.372 250.102 116.277 251.485C115.957 256.09 116.549 260.713 116.396 265.327C116.272 268.878 115.708 272.425 115.981 275.971C116.224 279.102 117.113 282.146 118.002 285.161L119.264 289.468C119.307 289.694 119.417 289.9 119.579 290.062C119.822 290.206 120.111 290.252 120.387 290.191L125.987 289.684C125.629 288.037 125.232 286.334 125.032 284.644C124.879 283.323 124.788 281.992 124.692 280.662C124.396 276.517 124.057 272.372 123.736 268.218L123.139 260.943C122.886 257.784 122.623 254.611 121.83 251.543C121.034 248.444 119.458 245.601 117.252 243.287Z" fill="#FFAA40"/>
<path opacity="0.1" d="M117.252 243.287L116.726 247.35C116.549 248.728 116.372 250.102 116.277 251.485C115.957 256.09 116.549 260.713 116.396 265.327C116.272 268.878 115.708 272.425 115.981 275.971C116.224 279.102 117.113 282.146 118.002 285.161L119.264 289.468C119.307 289.694 119.417 289.9 119.579 290.062C119.822 290.206 120.111 290.252 120.387 290.191L125.987 289.684C125.629 288.037 125.232 286.334 125.032 284.644C124.879 283.323 124.788 281.992 124.692 280.662C124.396 276.517 124.057 272.372 123.736 268.218L123.139 260.943C122.886 257.784 122.623 254.611 121.83 251.543C121.034 248.444 119.458 245.601 117.252 243.287Z" fill="black"/>
<path d="M127.23 381.617C126.901 382.265 126.614 382.933 126.37 383.618C125.729 385.508 125.634 387.537 125.538 389.533C125.496 389.918 125.532 390.307 125.643 390.677C125.92 391.395 126.714 391.759 127.454 391.955C130.556 392.793 133.824 392.008 137.012 391.721C140.199 391.433 143.348 391.644 146.426 390.95C146.88 390.862 147.32 390.709 147.731 390.495C148.51 389.987 149.092 389.227 149.379 388.341C149.472 388.115 149.535 387.876 149.566 387.633C149.666 386.58 148.753 385.671 147.759 385.326C146.765 384.982 145.68 385.034 144.634 384.929C142.478 384.708 140.456 383.781 138.88 382.292C137.304 380.803 136.263 378.834 135.917 376.692C135.879 376.462 130.737 376.601 130.183 376.898C129.552 377.247 129.17 378.113 128.811 378.702C128.248 379.65 127.72 380.621 127.23 381.617Z" fill="#A26565"/>
<path opacity="0.1" d="M127.23 381.617C126.901 382.265 126.614 382.933 126.37 383.618C125.729 385.508 125.634 387.537 125.538 389.533C125.496 389.918 125.532 390.307 125.643 390.677C125.92 391.395 126.714 391.759 127.454 391.955C130.556 392.793 133.824 392.008 137.012 391.721C140.199 391.433 143.348 391.644 146.426 390.95C146.88 390.862 147.32 390.709 147.731 390.495C148.51 389.987 149.092 389.227 149.379 388.341C149.472 388.115 149.535 387.876 149.566 387.633C149.666 386.58 148.753 385.671 147.759 385.326C146.765 384.982 145.68 385.034 144.634 384.929C142.478 384.708 140.456 383.781 138.88 382.292C137.304 380.803 136.263 378.834 135.917 376.692C135.879 376.462 130.737 376.601 130.183 376.898C129.552 377.247 129.17 378.113 128.811 378.702C128.248 379.65 127.72 380.621 127.23 381.617Z" fill="black"/>
<path d="M135.76 383.139C135.429 383.784 135.142 384.451 134.9 385.135C134.255 387.049 134.159 389.055 134.068 391.05C134.024 391.435 134.059 391.825 134.173 392.194C134.446 392.912 135.239 393.276 135.98 393.477C139.081 394.31 142.355 393.525 145.537 393.238C148.72 392.951 151.879 393.161 154.951 392.467C155.408 392.375 155.848 392.213 156.256 391.989C157.036 391.482 157.618 390.721 157.905 389.835C157.997 389.608 158.06 389.37 158.091 389.126C158.191 388.078 157.279 387.164 156.285 386.819C155.291 386.475 154.206 386.532 153.159 386.422C151.005 386.201 148.983 385.274 147.408 383.786C145.832 382.298 144.79 380.331 144.443 378.19C144.405 377.96 139.263 378.094 138.708 378.391C138.073 378.74 137.69 379.607 137.332 380.195C136.787 381.167 136.252 382.143 135.76 383.139Z" fill="#A26565"/>
<path d="M157.995 332.295C158.062 342.638 155.061 352.747 151.539 362.448C150.144 366.296 148.664 370.111 147.1 373.892C146.173 376.132 145.126 378.621 146.12 380.832C143.253 379.741 140.338 379.099 137.322 379.602C138.469 377.257 138.359 374.529 138.412 371.944C138.509 368.402 138.886 364.873 139.54 361.39C140.552 356.09 142.287 350.954 144.696 346.127C145.183 345.109 145.52 344.026 145.695 342.911C146.087 340.451 145.781 337.924 145.27 335.488C144.17 330.107 142.079 324.978 139.105 320.363L139.076 320.67C138.898 322.209 138.639 323.738 138.302 325.25C137.628 328.452 136.84 331.659 136.959 334.88C137.084 338.295 136.873 341.715 136.328 345.089C136.153 346.414 135.808 347.71 135.301 348.946C134.971 349.688 134.541 350.382 134.283 351.153C134.025 352.039 133.89 352.957 133.882 353.881C133.499 361.668 133.882 369.575 135.468 377.209C132.807 376.998 130.145 377.769 127.765 378.965C125.904 373.501 124.545 367.878 123.703 362.166C122.666 355.411 122.877 348.523 124.324 341.844C124.775 339.616 124.944 337.341 124.826 335.071C124.621 330.548 123.512 326.126 122.408 321.732L120.726 315.032C119.929 311.841 119.133 308.664 118.336 305.502C117.806 303.392 117.271 301.233 117.438 299.06C117.555 297.868 117.805 296.693 118.184 295.557C119.377 291.692 121.161 288.037 123.474 284.721C132.682 285.237 142.001 284.376 151.19 283.668C151.636 283.58 152.098 283.658 152.49 283.888C152.803 284.206 152.99 284.628 153.016 285.075L156.471 304.698C157.03 307.426 157.358 310.195 157.451 312.978C157.451 315.754 157.021 318.521 157.126 321.292C157.269 325.025 157.976 328.557 157.995 332.295Z" fill="#454B69"/>
<path opacity="0.1" d="M139.086 320.67C138.907 322.209 138.649 323.738 138.312 325.25C136.309 321.78 134.149 318.396 132.305 314.84C131.827 313.926 131.378 312.997 130.924 312.069L129.562 309.293C129.309 308.771 129.055 308.249 128.826 307.718C128.452 306.955 128.165 306.152 127.97 305.325C128.639 305.201 130.293 307.01 130.79 307.484C131.804 308.489 132.761 309.55 133.657 310.662C134.746 311.897 135.745 313.209 136.649 314.586C137.805 316.458 138.63 318.516 139.086 320.67Z" fill="black"/>
<path d="M146.756 225.468C146.756 225.468 141.642 233.628 142.589 235.337C143.535 237.045 126.484 233.819 126.484 233.819C126.484 233.819 135.769 225.659 134.818 222.242C133.867 218.824 146.756 225.468 146.756 225.468Z" fill="#EFB7B9"/>
<path d="M142.211 227.937C148.595 227.937 153.771 222.754 153.771 216.359C153.771 209.965 148.595 204.782 142.211 204.782C135.827 204.782 130.651 209.965 130.651 216.359C130.651 222.754 135.827 227.937 142.211 227.937Z" fill="#EFB7B9"/>
<path d="M146.928 234.025C145.69 232.305 144.011 230.952 142.068 230.11C140.948 229.709 139.79 229.423 138.613 229.258L134.001 228.445C132.873 228.244 131.664 228.057 130.613 228.521C130.082 228.794 129.597 229.151 129.179 229.579C127.579 231.067 126.025 232.699 124.014 233.561C123.464 233.796 122.891 233.968 122.341 234.202C120.09 235.16 118.408 237.198 117.457 239.467C116.454 241.832 116.425 244.402 116.501 246.972C116.5 247.859 116.588 248.744 116.764 249.614C116.994 250.442 117.287 251.252 117.639 252.036C118.274 253.714 118.807 255.429 119.235 257.171C120.43 261.75 121.424 266.377 122.217 271.051C122.284 271.721 122.48 272.371 122.795 272.966C123.241 273.561 123.78 274.08 124.391 274.502C124.876 274.901 125.323 275.345 125.724 275.828C125.925 276.025 126.074 276.268 126.159 276.536C126.307 277.225 125.681 277.819 125.204 278.321C124.175 279.372 123.432 280.669 123.044 282.088C122.804 282.379 122.681 282.75 122.699 283.127C122.799 283.389 122.837 283.671 122.809 283.95C122.715 284.204 122.567 284.434 122.374 284.625C122.154 284.913 121.997 285.244 121.915 285.597C121.833 285.951 121.826 286.317 121.897 286.673C125.479 288.232 129.312 289.13 133.213 289.325C134.168 289.373 135.124 289.373 136.08 289.488C136.759 289.574 137.428 289.713 138.106 289.794C139.091 289.887 140.081 289.912 141.069 289.87C146.216 289.765 151.511 289.636 156.237 287.592C156.681 285.166 155.721 282.691 155.119 280.298C154.163 276.469 153.924 272.549 153.207 268.687C152.729 266.05 152.012 263.451 151.606 260.794C151.2 258.138 151.128 255.386 151.836 252.801C152.481 250.514 152.677 248.178 153.346 245.895C154.015 243.612 154.483 241.138 153.728 238.878C152.772 236.083 149.871 233.867 146.928 234.025Z" fill="#FFAA40"/>
<path d="M152.605 210.219C153.169 208.166 152.06 206.026 150.741 204.356C149.308 202.561 147.482 200.943 145.241 200.493C143.42 200.125 141.533 200.57 139.678 200.421C138.039 200.292 136.462 199.699 134.833 199.464C133.354 199.305 131.86 199.361 130.398 199.632C129.01 199.838 127.654 200.218 126.36 200.761C121.438 202.949 118.556 208.338 117.887 213.684C117.218 219.03 118.389 224.419 119.555 229.679L120.611 234.437C121.71 239.391 122.809 244.363 123.101 249.427C123.392 254.491 122.848 259.689 120.769 264.312C127.491 260.695 132.7 254.789 135.454 247.661C136.199 245.704 136.754 243.669 137.585 241.745C138.297 240.089 139.21 238.519 139.841 236.83C140.554 234.923 140.896 232.897 140.849 230.862C140.811 229.33 140.558 227.808 140.601 226.276C140.644 224.745 141.036 223.151 142.092 222.041C143.047 221.06 144.362 220.605 145.571 219.968C147.474 218.989 149.137 217.6 150.44 215.9C151.2 214.904 151.243 214.464 151.434 213.335C151.625 212.205 152.309 211.305 152.605 210.219Z" fill="#A26565"/>
<path d="M152.619 297.189C152.739 298.38 152.524 299.582 152.782 300.764C152.978 301.645 153.432 302.439 153.699 303.301C153.964 304.295 154.101 305.32 154.105 306.349C154.144 307.211 154.077 308.264 153.312 308.666C152.978 308.843 152.576 308.843 152.227 308.996C151.879 309.149 151.582 309.566 151.783 309.891C151.984 310.217 152.328 310.164 152.643 310.226C152.959 310.288 153.298 310.614 153.121 310.877C153.049 310.963 152.952 311.025 152.844 311.054C152.525 311.153 152.222 311.298 151.945 311.485C151.81 311.583 151.705 311.717 151.64 311.872C151.575 312.026 151.553 312.195 151.577 312.361C151.597 312.44 151.634 312.514 151.685 312.577C151.737 312.64 151.803 312.69 151.877 312.724C151.951 312.758 152.031 312.775 152.113 312.774C152.194 312.772 152.274 312.752 152.347 312.715C152.207 313.015 152.13 313.341 152.122 313.672C153.346 314.199 154.717 313.509 155.864 312.844C156.36 312.567 156.839 312.26 157.298 311.925C158.225 311.212 158.965 310.282 159.451 309.217C159.938 308.151 160.156 306.983 160.088 305.813C160.034 305.226 159.943 304.642 159.816 304.066C159.64 303.063 159.405 302.07 159.114 301.094C158.784 300.065 158.335 299.084 157.948 298.074C157.126 295.925 156.595 293.676 155.85 291.498C155.8 291.272 155.673 291.071 155.491 290.928C155.327 290.847 155.143 290.812 154.961 290.828C154.124 290.784 153.286 290.861 152.471 291.058C151.993 291.201 151.176 291.536 150.951 292.015C150.727 292.493 151.085 292.895 151.3 293.293C151.987 294.494 152.435 295.817 152.619 297.189Z" fill="#EFB7B9"/>
<path opacity="0.1" d="M151.84 239.032C152.086 239.283 152.292 239.571 152.452 239.884C154.096 242.875 154.115 246.45 154.191 249.863C154.277 253.692 154.488 257.521 154.698 261.374L155.324 272.86C155.386 273.956 155.444 275.053 155.601 276.139C156.337 276.326 156.366 277.283 156.285 278.053C155.754 282.734 154.44 287.554 155.807 292.058C155.859 292.289 155.97 292.503 156.127 292.68C155.433 292.462 154.69 292.452 153.991 292.651C153.307 292.795 152.648 293.049 151.96 293.207C151.09 293.403 150.106 293.489 149.513 294.164C148.841 292.141 148.307 290.075 147.912 287.98C147.587 286.066 147.496 284.094 146.722 282.323C146.412 281.61 145.991 280.949 145.609 280.265C143.607 276.685 142.622 272.64 141.662 268.649C141.231 266.756 141.127 264.804 141.356 262.876C141.495 261.997 141.575 261.11 141.595 260.22C141.536 259.281 141.414 258.347 141.227 257.425C140.821 254.719 141.012 251.956 141.786 249.332C142.503 246.895 143.133 244.33 144.653 242.281C146.173 240.233 149.303 239.065 151.84 239.032Z" fill="black"/>
<path d="M152.409 238.649C152.654 238.902 152.861 239.191 153.021 239.505C154.665 242.492 154.684 246.072 154.76 249.485C154.846 253.314 155.056 257.143 155.267 260.972L155.893 272.458C155.955 273.554 156.012 274.65 156.17 275.737C156.906 275.924 156.934 276.881 156.848 277.651C156.323 282.332 155.009 287.147 156.371 291.656C156.423 291.887 156.533 292.101 156.691 292.278C155.997 292.06 155.254 292.05 154.555 292.249C153.871 292.393 153.212 292.647 152.524 292.8C151.654 293.001 150.67 293.082 150.077 293.757C149.408 291.725 148.877 289.649 148.49 287.544C148.165 285.63 148.075 283.663 147.3 281.892C146.964 281.188 146.593 280.501 146.187 279.834C144.18 276.254 143.2 272.205 142.24 268.213C141.809 266.321 141.705 264.368 141.934 262.441C142.294 260.637 142.25 258.775 141.805 256.989C141.399 254.285 141.59 251.524 142.364 248.901C143.081 246.465 143.712 243.899 145.231 241.851C146.751 239.802 149.871 238.687 152.409 238.649Z" fill="#FFAA40"/>
<g opacity="0.1">
<path opacity="0.1" d="M150.741 204.356C149.308 202.561 147.482 200.943 145.241 200.493C143.42 200.125 141.533 200.57 139.678 200.421C138.039 200.292 136.462 199.699 134.833 199.464C133.354 199.305 131.86 199.361 130.398 199.632C129.01 199.838 127.654 200.218 126.36 200.761C125.661 201.075 124.994 201.455 124.367 201.896C125.519 201.448 126.716 201.127 127.937 200.938C129.398 200.667 130.89 200.611 132.367 200.771C134.001 200.981 135.573 201.57 137.217 201.699C139.067 201.848 140.954 201.407 142.78 201.771C145.021 202.221 146.856 203.844 148.275 205.638C149.599 207.304 150.703 209.443 150.144 211.502C149.848 212.583 149.159 213.531 148.973 214.646C148.787 215.761 148.739 216.216 147.974 217.211C146.994 218.488 145.809 219.593 144.467 220.48C144.835 220.308 145.212 220.136 145.571 219.949C147.474 218.97 149.137 217.581 150.44 215.881C151.2 214.885 151.243 214.445 151.434 213.315C151.625 212.186 152.309 211.257 152.605 210.171C153.169 208.166 152.06 206.026 150.741 204.356Z" fill="black"/>
<path opacity="0.1" d="M142.092 222.069C142.29 221.864 142.506 221.676 142.737 221.509C141.633 222.045 140.472 222.515 139.626 223.424C138.57 224.53 138.192 226.128 138.135 227.66C138.078 229.191 138.35 230.713 138.383 232.24C138.43 234.277 138.088 236.305 137.375 238.213C136.744 239.903 135.832 241.468 135.119 243.129C134.293 245.043 133.738 247.082 132.993 249.04C130.604 255.22 126.362 260.507 120.85 264.173C120.821 264.236 120.798 264.303 120.769 264.365C127.491 260.748 132.7 254.842 135.454 247.714C136.199 245.756 136.754 243.722 137.585 241.798C138.297 240.142 139.21 238.572 139.841 236.883C140.554 234.976 140.896 232.95 140.849 230.914C140.811 229.383 140.558 227.861 140.601 226.329C140.644 224.798 141.036 223.18 142.092 222.069Z" fill="black"/>
</g>
<defs>
<linearGradient id="paint0_linear" x1="136.998" y1="393.85" x2="136.998" y2="197.665" gradientUnits="userSpaceOnUse">
<stop stop-color="#808080" stop-opacity="0.25"/>
<stop offset="0.54" stop-color="#808080" stop-opacity="0.12"/>
<stop offset="1" stop-color="#808080" stop-opacity="0.1"/>
</linearGradient>
</defs>
</svg>
